<?xml version="1.0" encoding="utf-8" standalone="no"?>
<!DOCTYPE svg PUBLIC "-//W3C//DTD SVG 1.1//EN"
  "http://www.w3.org/Graphics/SVG/1.1/DTD/svg11.dtd">
<svg xmlns:xlink="http://www.w3.org/1999/xlink" width="398.50625pt" height="293.175449pt" viewBox="0 0 398.50625 293.175449" xmlns="http://www.w3.org/2000/svg" version="1.1">
 <metadata>
  <rdf:RDF xmlns:dc="http://purl.org/dc/elements/1.1/" xmlns:cc="http://creativecommons.org/ns#" xmlns:rdf="http://www.w3.org/1999/02/22-rdf-syntax-ns#">
   <cc:Work>
    <dc:type rdf:resource="http://purl.org/dc/dcmitype/StillImage"/>
    <dc:date>2023-08-18T07:03:55.318521</dc:date>
    <dc:format>image/svg+xml</dc:format>
    <dc:creator>
     <cc:Agent>
      <dc:title>Matplotlib v3.5.1, https://matplotlib.org/</dc:title>
     </cc:Agent>
    </dc:creator>
   </cc:Work>
  </rdf:RDF>
 </metadata>
 <defs>
  <style type="text/css">*{stroke-linejoin: round; stroke-linecap: butt}</style>
 </defs>
 <g id="figure_1">
  <g id="patch_1">
   <path d="M 0 293.175449 
L 398.50625 293.175449 
L 398.50625 0 
L 0 0 
L 0 293.175449 
z
" style="fill: none"/>
  </g>
  <g id="axes_1">
   <g id="patch_2">
    <path d="M 56.50625 255.619199 
L 391.30625 255.619199 
L 391.30625 10.999199 
L 56.50625 10.999199 
z
" style="fill: #ffffff"/>
   </g>
   <g id="matplotlib.axis_1">
    <g id="xtick_1">
     <g id="line2d_1">
      <defs>
       <path id="m7e0cf4c392" d="M 0 0 
L 0 3.5 
" style="stroke: #000000; stroke-width: 0.8"/>
      </defs>
      <g>
       <use xlink:href="#m7e0cf4c392" x="71.724432" y="255.619199" style="stroke: #000000; stroke-width: 0.8"/>
      </g>
     </g>
     <g id="text_1">
      <!-- 0 -->
      <g transform="translate(68.543182 270.217637)scale(0.1 -0.1)">
       <defs>
        <path id="DejaVuSans-30" d="M 2034 4250 
Q 1547 4250 1301 3770 
Q 1056 3291 1056 2328 
Q 1056 1369 1301 889 
Q 1547 409 2034 409 
Q 2525 409 2770 889 
Q 3016 1369 3016 2328 
Q 3016 3291 2770 3770 
Q 2525 4250 2034 4250 
z
M 2034 4750 
Q 2819 4750 3233 4129 
Q 3647 3509 3647 2328 
Q 3647 1150 3233 529 
Q 2819 -91 2034 -91 
Q 1250 -91 836 529 
Q 422 1150 422 2328 
Q 422 3509 836 4129 
Q 1250 4750 2034 4750 
z
" transform="scale(0.015625)"/>
       </defs>
       <use xlink:href="#DejaVuSans-30"/>
      </g>
     </g>
    </g>
    <g id="xtick_2">
     <g id="line2d_2">
      <g>
       <use xlink:href="#m7e0cf4c392" x="132.719149" y="255.619199" style="stroke: #000000; stroke-width: 0.8"/>
      </g>
     </g>
     <g id="text_2">
      <!-- 100 -->
      <g transform="translate(123.175399 270.217637)scale(0.1 -0.1)">
       <defs>
        <path id="DejaVuSans-31" d="M 794 531 
L 1825 531 
L 1825 4091 
L 703 3866 
L 703 4441 
L 1819 4666 
L 2450 4666 
L 2450 531 
L 3481 531 
L 3481 0 
L 794 0 
L 794 531 
z
" transform="scale(0.015625)"/>
       </defs>
       <use xlink:href="#DejaVuSans-31"/>
       <use xlink:href="#DejaVuSans-30" x="63.623047"/>
       <use xlink:href="#DejaVuSans-30" x="127.246094"/>
      </g>
     </g>
    </g>
    <g id="xtick_3">
     <g id="line2d_3">
      <g>
       <use xlink:href="#m7e0cf4c392" x="193.713865" y="255.619199" style="stroke: #000000; stroke-width: 0.8"/>
      </g>
     </g>
     <g id="text_3">
      <!-- 200 -->
      <g transform="translate(184.170115 270.217637)scale(0.1 -0.1)">
       <defs>
        <path id="DejaVuSans-32" d="M 1228 531 
L 3431 531 
L 3431 0 
L 469 0 
L 469 531 
Q 828 903 1448 1529 
Q 2069 2156 2228 2338 
Q 2531 2678 2651 2914 
Q 2772 3150 2772 3378 
Q 2772 3750 2511 3984 
Q 2250 4219 1831 4219 
Q 1534 4219 1204 4116 
Q 875 4013 500 3803 
L 500 4441 
Q 881 4594 1212 4672 
Q 1544 4750 1819 4750 
Q 2544 4750 2975 4387 
Q 3406 4025 3406 3419 
Q 3406 3131 3298 2873 
Q 3191 2616 2906 2266 
Q 2828 2175 2409 1742 
Q 1991 1309 1228 531 
z
" transform="scale(0.015625)"/>
       </defs>
       <use xlink:href="#DejaVuSans-32"/>
       <use xlink:href="#DejaVuSans-30" x="63.623047"/>
       <use xlink:href="#DejaVuSans-30" x="127.246094"/>
      </g>
     </g>
    </g>
    <g id="xtick_4">
     <g id="line2d_4">
      <g>
       <use xlink:href="#m7e0cf4c392" x="254.708582" y="255.619199" style="stroke: #000000; stroke-width: 0.8"/>
      </g>
     </g>
     <g id="text_4">
      <!-- 300 -->
      <g transform="translate(245.164832 270.217637)scale(0.1 -0.1)">
       <defs>
        <path id="DejaVuSans-33" d="M 2597 2516 
Q 3050 2419 3304 2112 
Q 3559 1806 3559 1356 
Q 3559 666 3084 287 
Q 2609 -91 1734 -91 
Q 1441 -91 1130 -33 
Q 819 25 488 141 
L 488 750 
Q 750 597 1062 519 
Q 1375 441 1716 441 
Q 2309 441 2620 675 
Q 2931 909 2931 1356 
Q 2931 1769 2642 2001 
Q 2353 2234 1838 2234 
L 1294 2234 
L 1294 2753 
L 1863 2753 
Q 2328 2753 2575 2939 
Q 2822 3125 2822 3475 
Q 2822 3834 2567 4026 
Q 2313 4219 1838 4219 
Q 1578 4219 1281 4162 
Q 984 4106 628 3988 
L 628 4550 
Q 988 4650 1302 4700 
Q 1616 4750 1894 4750 
Q 2613 4750 3031 4423 
Q 3450 4097 3450 3541 
Q 3450 3153 3228 2886 
Q 3006 2619 2597 2516 
z
" transform="scale(0.015625)"/>
       </defs>
       <use xlink:href="#DejaVuSans-33"/>
       <use xlink:href="#DejaVuSans-30" x="63.623047"/>
       <use xlink:href="#DejaVuSans-30" x="127.246094"/>
      </g>
     </g>
    </g>
    <g id="xtick_5">
     <g id="line2d_5">
      <g>
       <use xlink:href="#m7e0cf4c392" x="315.703299" y="255.619199" style="stroke: #000000; stroke-width: 0.8"/>
      </g>
     </g>
     <g id="text_5">
      <!-- 400 -->
      <g transform="translate(306.159549 270.217637)scale(0.1 -0.1)">
       <defs>
        <path id="DejaVuSans-34" d="M 2419 4116 
L 825 1625 
L 2419 1625 
L 2419 4116 
z
M 2253 4666 
L 3047 4666 
L 3047 1625 
L 3713 1625 
L 3713 1100 
L 3047 1100 
L 3047 0 
L 2419 0 
L 2419 1100 
L 313 1100 
L 313 1709 
L 2253 4666 
z
" transform="scale(0.015625)"/>
       </defs>
       <use xlink:href="#DejaVuSans-34"/>
       <use xlink:href="#DejaVuSans-30" x="63.623047"/>
       <use xlink:href="#DejaVuSans-30" x="127.246094"/>
      </g>
     </g>
    </g>
    <g id="xtick_6">
     <g id="line2d_6">
      <g>
       <use xlink:href="#m7e0cf4c392" x="376.698015" y="255.619199" style="stroke: #000000; stroke-width: 0.8"/>
      </g>
     </g>
     <g id="text_6">
      <!-- 500 -->
      <g transform="translate(367.154265 270.217637)scale(0.1 -0.1)">
       <defs>
        <path id="DejaVuSans-35" d="M 691 4666 
L 3169 4666 
L 3169 4134 
L 1269 4134 
L 1269 2991 
Q 1406 3038 1543 3061 
Q 1681 3084 1819 3084 
Q 2600 3084 3056 2656 
Q 3513 2228 3513 1497 
Q 3513 744 3044 326 
Q 2575 -91 1722 -91 
Q 1428 -91 1123 -41 
Q 819 9 494 109 
L 494 744 
Q 775 591 1075 516 
Q 1375 441 1709 441 
Q 2250 441 2565 725 
Q 2881 1009 2881 1497 
Q 2881 1984 2565 2268 
Q 2250 2553 1709 2553 
Q 1456 2553 1204 2497 
Q 953 2441 691 2322 
L 691 4666 
z
" transform="scale(0.015625)"/>
       </defs>
       <use xlink:href="#DejaVuSans-35"/>
       <use xlink:href="#DejaVuSans-30" x="63.623047"/>
       <use xlink:href="#DejaVuSans-30" x="127.246094"/>
      </g>
     </g>
    </g>
    <g id="text_7">
     <!-- Groups of experiments -->
     <g transform="translate(166.760156 283.895762)scale(0.1 -0.1)">
      <defs>
       <path id="DejaVuSans-47" d="M 3809 666 
L 3809 1919 
L 2778 1919 
L 2778 2438 
L 4434 2438 
L 4434 434 
Q 4069 175 3628 42 
Q 3188 -91 2688 -91 
Q 1594 -91 976 548 
Q 359 1188 359 2328 
Q 359 3472 976 4111 
Q 1594 4750 2688 4750 
Q 3144 4750 3555 4637 
Q 3966 4525 4313 4306 
L 4313 3634 
Q 3963 3931 3569 4081 
Q 3175 4231 2741 4231 
Q 1884 4231 1454 3753 
Q 1025 3275 1025 2328 
Q 1025 1384 1454 906 
Q 1884 428 2741 428 
Q 3075 428 3337 486 
Q 3600 544 3809 666 
z
" transform="scale(0.015625)"/>
       <path id="DejaVuSans-72" d="M 2631 2963 
Q 2534 3019 2420 3045 
Q 2306 3072 2169 3072 
Q 1681 3072 1420 2755 
Q 1159 2438 1159 1844 
L 1159 0 
L 581 0 
L 581 3500 
L 1159 3500 
L 1159 2956 
Q 1341 3275 1631 3429 
Q 1922 3584 2338 3584 
Q 2397 3584 2469 3576 
Q 2541 3569 2628 3553 
L 2631 2963 
z
" transform="scale(0.015625)"/>
       <path id="DejaVuSans-6f" d="M 1959 3097 
Q 1497 3097 1228 2736 
Q 959 2375 959 1747 
Q 959 1119 1226 758 
Q 1494 397 1959 397 
Q 2419 397 2687 759 
Q 2956 1122 2956 1747 
Q 2956 2369 2687 2733 
Q 2419 3097 1959 3097 
z
M 1959 3584 
Q 2709 3584 3137 3096 
Q 3566 2609 3566 1747 
Q 3566 888 3137 398 
Q 2709 -91 1959 -91 
Q 1206 -91 779 398 
Q 353 888 353 1747 
Q 353 2609 779 3096 
Q 1206 3584 1959 3584 
z
" transform="scale(0.015625)"/>
       <path id="DejaVuSans-75" d="M 544 1381 
L 544 3500 
L 1119 3500 
L 1119 1403 
Q 1119 906 1312 657 
Q 1506 409 1894 409 
Q 2359 409 2629 706 
Q 2900 1003 2900 1516 
L 2900 3500 
L 3475 3500 
L 3475 0 
L 2900 0 
L 2900 538 
Q 2691 219 2414 64 
Q 2138 -91 1772 -91 
Q 1169 -91 856 284 
Q 544 659 544 1381 
z
M 1991 3584 
L 1991 3584 
z
" transform="scale(0.015625)"/>
       <path id="DejaVuSans-70" d="M 1159 525 
L 1159 -1331 
L 581 -1331 
L 581 3500 
L 1159 3500 
L 1159 2969 
Q 1341 3281 1617 3432 
Q 1894 3584 2278 3584 
Q 2916 3584 3314 3078 
Q 3713 2572 3713 1747 
Q 3713 922 3314 415 
Q 2916 -91 2278 -91 
Q 1894 -91 1617 61 
Q 1341 213 1159 525 
z
M 3116 1747 
Q 3116 2381 2855 2742 
Q 2594 3103 2138 3103 
Q 1681 3103 1420 2742 
Q 1159 2381 1159 1747 
Q 1159 1113 1420 752 
Q 1681 391 2138 391 
Q 2594 391 2855 752 
Q 3116 1113 3116 1747 
z
" transform="scale(0.015625)"/>
       <path id="DejaVuSans-73" d="M 2834 3397 
L 2834 2853 
Q 2591 2978 2328 3040 
Q 2066 3103 1784 3103 
Q 1356 3103 1142 2972 
Q 928 2841 928 2578 
Q 928 2378 1081 2264 
Q 1234 2150 1697 2047 
L 1894 2003 
Q 2506 1872 2764 1633 
Q 3022 1394 3022 966 
Q 3022 478 2636 193 
Q 2250 -91 1575 -91 
Q 1294 -91 989 -36 
Q 684 19 347 128 
L 347 722 
Q 666 556 975 473 
Q 1284 391 1588 391 
Q 1994 391 2212 530 
Q 2431 669 2431 922 
Q 2431 1156 2273 1281 
Q 2116 1406 1581 1522 
L 1381 1569 
Q 847 1681 609 1914 
Q 372 2147 372 2553 
Q 372 3047 722 3315 
Q 1072 3584 1716 3584 
Q 2034 3584 2315 3537 
Q 2597 3491 2834 3397 
z
" transform="scale(0.015625)"/>
       <path id="DejaVuSans-20" transform="scale(0.015625)"/>
       <path id="DejaVuSans-66" d="M 2375 4863 
L 2375 4384 
L 1825 4384 
Q 1516 4384 1395 4259 
Q 1275 4134 1275 3809 
L 1275 3500 
L 2222 3500 
L 2222 3053 
L 1275 3053 
L 1275 0 
L 697 0 
L 697 3053 
L 147 3053 
L 147 3500 
L 697 3500 
L 697 3744 
Q 697 4328 969 4595 
Q 1241 4863 1831 4863 
L 2375 4863 
z
" transform="scale(0.015625)"/>
       <path id="DejaVuSans-65" d="M 3597 1894 
L 3597 1613 
L 953 1613 
Q 991 1019 1311 708 
Q 1631 397 2203 397 
Q 2534 397 2845 478 
Q 3156 559 3463 722 
L 3463 178 
Q 3153 47 2828 -22 
Q 2503 -91 2169 -91 
Q 1331 -91 842 396 
Q 353 884 353 1716 
Q 353 2575 817 3079 
Q 1281 3584 2069 3584 
Q 2775 3584 3186 3129 
Q 3597 2675 3597 1894 
z
M 3022 2063 
Q 3016 2534 2758 2815 
Q 2500 3097 2075 3097 
Q 1594 3097 1305 2825 
Q 1016 2553 972 2059 
L 3022 2063 
z
" transform="scale(0.015625)"/>
       <path id="DejaVuSans-78" d="M 3513 3500 
L 2247 1797 
L 3578 0 
L 2900 0 
L 1881 1375 
L 863 0 
L 184 0 
L 1544 1831 
L 300 3500 
L 978 3500 
L 1906 2253 
L 2834 3500 
L 3513 3500 
z
" transform="scale(0.015625)"/>
       <path id="DejaVuSans-69" d="M 603 3500 
L 1178 3500 
L 1178 0 
L 603 0 
L 603 3500 
z
M 603 4863 
L 1178 4863 
L 1178 4134 
L 603 4134 
L 603 4863 
z
" transform="scale(0.015625)"/>
       <path id="DejaVuSans-6d" d="M 3328 2828 
Q 3544 3216 3844 3400 
Q 4144 3584 4550 3584 
Q 5097 3584 5394 3201 
Q 5691 2819 5691 2113 
L 5691 0 
L 5113 0 
L 5113 2094 
Q 5113 2597 4934 2840 
Q 4756 3084 4391 3084 
Q 3944 3084 3684 2787 
Q 3425 2491 3425 1978 
L 3425 0 
L 2847 0 
L 2847 2094 
Q 2847 2600 2669 2842 
Q 2491 3084 2119 3084 
Q 1678 3084 1418 2786 
Q 1159 2488 1159 1978 
L 1159 0 
L 581 0 
L 581 3500 
L 1159 3500 
L 1159 2956 
Q 1356 3278 1631 3431 
Q 1906 3584 2284 3584 
Q 2666 3584 2933 3390 
Q 3200 3197 3328 2828 
z
" transform="scale(0.015625)"/>
       <path id="DejaVuSans-6e" d="M 3513 2113 
L 3513 0 
L 2938 0 
L 2938 2094 
Q 2938 2591 2744 2837 
Q 2550 3084 2163 3084 
Q 1697 3084 1428 2787 
Q 1159 2491 1159 1978 
L 1159 0 
L 581 0 
L 581 3500 
L 1159 3500 
L 1159 2956 
Q 1366 3272 1645 3428 
Q 1925 3584 2291 3584 
Q 2894 3584 3203 3211 
Q 3513 2838 3513 2113 
z
" transform="scale(0.015625)"/>
       <path id="DejaVuSans-74" d="M 1172 4494 
L 1172 3500 
L 2356 3500 
L 2356 3053 
L 1172 3053 
L 1172 1153 
Q 1172 725 1289 603 
Q 1406 481 1766 481 
L 2356 481 
L 2356 0 
L 1766 0 
Q 1100 0 847 248 
Q 594 497 594 1153 
L 594 3053 
L 172 3053 
L 172 3500 
L 594 3500 
L 594 4494 
L 1172 4494 
z
" transform="scale(0.015625)"/>
      </defs>
      <use xlink:href="#DejaVuSans-47"/>
      <use xlink:href="#DejaVuSans-72" x="77.490234"/>
      <use xlink:href="#DejaVuSans-6f" x="116.353516"/>
      <use xlink:href="#DejaVuSans-75" x="177.535156"/>
      <use xlink:href="#DejaVuSans-70" x="240.914062"/>
      <use xlink:href="#DejaVuSans-73" x="304.390625"/>
      <use xlink:href="#DejaVuSans-20" x="356.490234"/>
      <use xlink:href="#DejaVuSans-6f" x="388.277344"/>
      <use xlink:href="#DejaVuSans-66" x="449.458984"/>
      <use xlink:href="#DejaVuSans-20" x="484.664062"/>
      <use xlink:href="#DejaVuSans-65" x="516.451172"/>
      <use xlink:href="#DejaVuSans-78" x="576.224609"/>
      <use xlink:href="#DejaVuSans-70" x="635.404297"/>
      <use xlink:href="#DejaVuSans-65" x="698.880859"/>
      <use xlink:href="#DejaVuSans-72" x="760.404297"/>
      <use xlink:href="#DejaVuSans-69" x="801.517578"/>
      <use xlink:href="#DejaVuSans-6d" x="829.300781"/>
      <use xlink:href="#DejaVuSans-65" x="926.712891"/>
      <use xlink:href="#DejaVuSans-6e" x="988.236328"/>
      <use xlink:href="#DejaVuSans-74" x="1051.615234"/>
      <use xlink:href="#DejaVuSans-73" x="1090.824219"/>
     </g>
    </g>
   </g>
   <g id="matplotlib.axis_2">
    <g id="ytick_1">
     <g id="line2d_7">
      <defs>
       <path id="m3eccd66cb1" d="M 0 0 
L -3.5 0 
" style="stroke: #000000; stroke-width: 0.8"/>
      </defs>
      <g>
       <use xlink:href="#m3eccd66cb1" x="56.50625" y="244.50011" style="stroke: #000000; stroke-width: 0.8"/>
      </g>
     </g>
     <g id="text_8">
      <!-- 0.100 -->
      <g transform="translate(20.878125 248.299329)scale(0.1 -0.1)">
       <defs>
        <path id="DejaVuSans-2e" d="M 684 794 
L 1344 794 
L 1344 0 
L 684 0 
L 684 794 
z
" transform="scale(0.015625)"/>
       </defs>
       <use xlink:href="#DejaVuSans-30"/>
       <use xlink:href="#DejaVuSans-2e" x="63.623047"/>
       <use xlink:href="#DejaVuSans-31" x="95.410156"/>
       <use xlink:href="#DejaVuSans-30" x="159.033203"/>
       <use xlink:href="#DejaVuSans-30" x="222.65625"/>
      </g>
     </g>
    </g>
    <g id="ytick_2">
     <g id="line2d_8">
      <g>
       <use xlink:href="#m3eccd66cb1" x="56.50625" y="211.14284" style="stroke: #000000; stroke-width: 0.8"/>
      </g>
     </g>
     <g id="text_9">
      <!-- 0.125 -->
      <g transform="translate(20.878125 214.942059)scale(0.1 -0.1)">
       <use xlink:href="#DejaVuSans-30"/>
       <use xlink:href="#DejaVuSans-2e" x="63.623047"/>
       <use xlink:href="#DejaVuSans-31" x="95.410156"/>
       <use xlink:href="#DejaVuSans-32" x="159.033203"/>
       <use xlink:href="#DejaVuSans-35" x="222.65625"/>
      </g>
     </g>
    </g>
    <g id="ytick_3">
     <g id="line2d_9">
      <g>
       <use xlink:href="#m3eccd66cb1" x="56.50625" y="177.78557" style="stroke: #000000; stroke-width: 0.8"/>
      </g>
     </g>
     <g id="text_10">
      <!-- 0.150 -->
      <g transform="translate(20.878125 181.584789)scale(0.1 -0.1)">
       <use xlink:href="#DejaVuSans-30"/>
       <use xlink:href="#DejaVuSans-2e" x="63.623047"/>
       <use xlink:href="#DejaVuSans-31" x="95.410156"/>
       <use xlink:href="#DejaVuSans-35" x="159.033203"/>
       <use xlink:href="#DejaVuSans-30" x="222.65625"/>
      </g>
     </g>
    </g>
    <g id="ytick_4">
     <g id="line2d_10">
      <g>
       <use xlink:href="#m3eccd66cb1" x="56.50625" y="144.4283" style="stroke: #000000; stroke-width: 0.8"/>
      </g>
     </g>
     <g id="text_11">
      <!-- 0.175 -->
      <g transform="translate(20.878125 148.227518)scale(0.1 -0.1)">
       <defs>
        <path id="DejaVuSans-37" d="M 525 4666 
L 3525 4666 
L 3525 4397 
L 1831 0 
L 1172 0 
L 2766 4134 
L 525 4134 
L 525 4666 
z
" transform="scale(0.015625)"/>
       </defs>
       <use xlink:href="#DejaVuSans-30"/>
       <use xlink:href="#DejaVuSans-2e" x="63.623047"/>
       <use xlink:href="#DejaVuSans-31" x="95.410156"/>
       <use xlink:href="#DejaVuSans-37" x="159.033203"/>
       <use xlink:href="#DejaVuSans-35" x="222.65625"/>
      </g>
     </g>
    </g>
    <g id="ytick_5">
     <g id="line2d_11">
      <g>
       <use xlink:href="#m3eccd66cb1" x="56.50625" y="111.071029" style="stroke: #000000; stroke-width: 0.8"/>
      </g>
     </g>
     <g id="text_12">
      <!-- 0.200 -->
      <g transform="translate(20.878125 114.870248)scale(0.1 -0.1)">
       <use xlink:href="#DejaVuSans-30"/>
       <use xlink:href="#DejaVuSans-2e" x="63.623047"/>
       <use xlink:href="#DejaVuSans-32" x="95.410156"/>
       <use xlink:href="#DejaVuSans-30" x="159.033203"/>
       <use xlink:href="#DejaVuSans-30" x="222.65625"/>
      </g>
     </g>
    </g>
    <g id="ytick_6">
     <g id="line2d_12">
      <g>
       <use xlink:href="#m3eccd66cb1" x="56.50625" y="77.713759" style="stroke: #000000; stroke-width: 0.8"/>
      </g>
     </g>
     <g id="text_13">
      <!-- 0.225 -->
      <g transform="translate(20.878125 81.512978)scale(0.1 -0.1)">
       <use xlink:href="#DejaVuSans-30"/>
       <use xlink:href="#DejaVuSans-2e" x="63.623047"/>
       <use xlink:href="#DejaVuSans-32" x="95.410156"/>
       <use xlink:href="#DejaVuSans-32" x="159.033203"/>
       <use xlink:href="#DejaVuSans-35" x="222.65625"/>
      </g>
     </g>
    </g>
    <g id="ytick_7">
     <g id="line2d_13">
      <g>
       <use xlink:href="#m3eccd66cb1" x="56.50625" y="44.356489" style="stroke: #000000; stroke-width: 0.8"/>
      </g>
     </g>
     <g id="text_14">
      <!-- 0.250 -->
      <g transform="translate(20.878125 48.155708)scale(0.1 -0.1)">
       <use xlink:href="#DejaVuSans-30"/>
       <use xlink:href="#DejaVuSans-2e" x="63.623047"/>
       <use xlink:href="#DejaVuSans-32" x="95.410156"/>
       <use xlink:href="#DejaVuSans-35" x="159.033203"/>
       <use xlink:href="#DejaVuSans-30" x="222.65625"/>
      </g>
     </g>
    </g>
    <g id="ytick_8">
     <g id="line2d_14">
      <g>
       <use xlink:href="#m3eccd66cb1" x="56.50625" y="10.999219" style="stroke: #000000; stroke-width: 0.8"/>
      </g>
     </g>
     <g id="text_15">
      <!-- 0.275 -->
      <g transform="translate(20.878125 14.798437)scale(0.1 -0.1)">
       <use xlink:href="#DejaVuSans-30"/>
       <use xlink:href="#DejaVuSans-2e" x="63.623047"/>
       <use xlink:href="#DejaVuSans-32" x="95.410156"/>
       <use xlink:href="#DejaVuSans-37" x="159.033203"/>
       <use xlink:href="#DejaVuSans-35" x="222.65625"/>
      </g>
     </g>
    </g>
    <g id="text_16">
     <!-- Estimated probability -->
     <g transform="translate(14.798438 186.832637)rotate(-90)scale(0.1 -0.1)">
      <defs>
       <path id="DejaVuSans-45" d="M 628 4666 
L 3578 4666 
L 3578 4134 
L 1259 4134 
L 1259 2753 
L 3481 2753 
L 3481 2222 
L 1259 2222 
L 1259 531 
L 3634 531 
L 3634 0 
L 628 0 
L 628 4666 
z
" transform="scale(0.015625)"/>
       <path id="DejaVuSans-61" d="M 2194 1759 
Q 1497 1759 1228 1600 
Q 959 1441 959 1056 
Q 959 750 1161 570 
Q 1363 391 1709 391 
Q 2188 391 2477 730 
Q 2766 1069 2766 1631 
L 2766 1759 
L 2194 1759 
z
M 3341 1997 
L 3341 0 
L 2766 0 
L 2766 531 
Q 2569 213 2275 61 
Q 1981 -91 1556 -91 
Q 1019 -91 701 211 
Q 384 513 384 1019 
Q 384 1609 779 1909 
Q 1175 2209 1959 2209 
L 2766 2209 
L 2766 2266 
Q 2766 2663 2505 2880 
Q 2244 3097 1772 3097 
Q 1472 3097 1187 3025 
Q 903 2953 641 2809 
L 641 3341 
Q 956 3463 1253 3523 
Q 1550 3584 1831 3584 
Q 2591 3584 2966 3190 
Q 3341 2797 3341 1997 
z
" transform="scale(0.015625)"/>
       <path id="DejaVuSans-64" d="M 2906 2969 
L 2906 4863 
L 3481 4863 
L 3481 0 
L 2906 0 
L 2906 525 
Q 2725 213 2448 61 
Q 2172 -91 1784 -91 
Q 1150 -91 751 415 
Q 353 922 353 1747 
Q 353 2572 751 3078 
Q 1150 3584 1784 3584 
Q 2172 3584 2448 3432 
Q 2725 3281 2906 2969 
z
M 947 1747 
Q 947 1113 1208 752 
Q 1469 391 1925 391 
Q 2381 391 2643 752 
Q 2906 1113 2906 1747 
Q 2906 2381 2643 2742 
Q 2381 3103 1925 3103 
Q 1469 3103 1208 2742 
Q 947 2381 947 1747 
z
" transform="scale(0.015625)"/>
       <path id="DejaVuSans-62" d="M 3116 1747 
Q 3116 2381 2855 2742 
Q 2594 3103 2138 3103 
Q 1681 3103 1420 2742 
Q 1159 2381 1159 1747 
Q 1159 1113 1420 752 
Q 1681 391 2138 391 
Q 2594 391 2855 752 
Q 3116 1113 3116 1747 
z
M 1159 2969 
Q 1341 3281 1617 3432 
Q 1894 3584 2278 3584 
Q 2916 3584 3314 3078 
Q 3713 2572 3713 1747 
Q 3713 922 3314 415 
Q 2916 -91 2278 -91 
Q 1894 -91 1617 61 
Q 1341 213 1159 525 
L 1159 0 
L 581 0 
L 581 4863 
L 1159 4863 
L 1159 2969 
z
" transform="scale(0.015625)"/>
       <path id="DejaVuSans-6c" d="M 603 4863 
L 1178 4863 
L 1178 0 
L 603 0 
L 603 4863 
z
" transform="scale(0.015625)"/>
       <path id="DejaVuSans-79" d="M 2059 -325 
Q 1816 -950 1584 -1140 
Q 1353 -1331 966 -1331 
L 506 -1331 
L 506 -850 
L 844 -850 
Q 1081 -850 1212 -737 
Q 1344 -625 1503 -206 
L 1606 56 
L 191 3500 
L 800 3500 
L 1894 763 
L 2988 3500 
L 3597 3500 
L 2059 -325 
z
" transform="scale(0.015625)"/>
      </defs>
      <use xlink:href="#DejaVuSans-45"/>
      <use xlink:href="#DejaVuSans-73" x="63.183594"/>
      <use xlink:href="#DejaVuSans-74" x="115.283203"/>
      <use xlink:href="#DejaVuSans-69" x="154.492188"/>
      <use xlink:href="#DejaVuSans-6d" x="182.275391"/>
      <use xlink:href="#DejaVuSans-61" x="279.6875"/>
      <use xlink:href="#DejaVuSans-74" x="340.966797"/>
      <use xlink:href="#DejaVuSans-65" x="380.175781"/>
      <use xlink:href="#DejaVuSans-64" x="441.699219"/>
      <use xlink:href="#DejaVuSans-20" x="505.175781"/>
      <use xlink:href="#DejaVuSans-70" x="536.962891"/>
      <use xlink:href="#DejaVuSans-72" x="600.439453"/>
      <use xlink:href="#DejaVuSans-6f" x="639.302734"/>
      <use xlink:href="#DejaVuSans-62" x="700.484375"/>
      <use xlink:href="#DejaVuSans-61" x="763.960938"/>
      <use xlink:href="#DejaVuSans-62" x="825.240234"/>
      <use xlink:href="#DejaVuSans-69" x="888.716797"/>
      <use xlink:href="#DejaVuSans-6c" x="916.5"/>
      <use xlink:href="#DejaVuSans-69" x="944.283203"/>
      <use xlink:href="#DejaVuSans-74" x="972.066406"/>
      <use xlink:href="#DejaVuSans-79" x="1011.275391"/>
     </g>
    </g>
   </g>
   <g id="line2d_15">
    <path d="M 71.724432 111.071025 
L 72.334379 111.071025 
L 72.944326 155.547383 
L 73.554273 177.785562 
L 74.16422 164.442667 
L 74.774168 200.023741 
L 75.384115 206.377506 
L 75.994062 177.785562 
L 76.604009 185.198288 
L 77.213956 204.471393 
L 77.823903 208.110364 
L 78.433851 188.904661 
L 79.653745 196.846858 
L 80.263692 208.919024 
L 80.873639 211.14284 
L 81.483586 205.256254 
L 82.093534 185.198288 
L 82.703481 181.296868 
L 83.923375 161.901149 
L 84.533322 153.525732 
L 85.143269 157.481153 
L 85.753217 144.428304 
L 86.363164 148.431164 
L 86.973111 157.258012 
L 88.193005 163.4896 
L 88.802952 166.283069 
L 89.4129 164.442667 
L 90.022847 171.329322 
L 91.242741 175.763911 
L 91.852688 162.088024 
L 93.072583 159.253756 
L 93.68253 161.557718 
L 94.902424 158.968641 
L 95.512371 164.442667 
L 96.122319 163.140921 
L 96.732266 158.724266 
L 97.342213 163.822055 
L 97.95216 162.623181 
L 98.562107 164.442667 
L 99.782002 162.17153 
L 101.611843 151.099751 
L 102.22179 150.314871 
L 102.831737 154.692079 
L 103.441685 156.386563 
L 104.661579 154.738723 
L 105.271526 151.576295 
L 105.881473 146.183947 
L 106.49142 143.278042 
L 107.101368 144.993682 
L 107.711315 148.875935 
L 109.541156 153.429461 
L 110.151103 150.682796 
L 110.761051 152.126125 
L 111.370998 155.547383 
L 111.980945 154.883567 
L 112.590892 156.201457 
L 113.810786 154.912019 
L 114.420734 158.053093 
L 115.030681 159.253756 
L 116.250575 157.951513 
L 116.860522 159.105493 
L 117.470469 161.984754 
L 118.080417 161.323543 
L 118.690364 162.3899 
L 119.910258 157.771199 
L 120.520205 153.90012 
L 121.130152 153.377807 
L 121.7401 154.475678 
L 122.350047 153.958952 
L 123.569941 156.064566 
L 124.179888 155.547383 
L 126.00973 149.617214 
L 126.619677 149.193618 
L 127.229624 150.229555 
L 127.839571 149.808503 
L 128.449518 152.235319 
L 129.669413 151.377728 
L 130.27936 152.337754 
L 130.889307 154.639708 
L 131.499254 154.199629 
L 132.109201 155.102632 
L 133.939043 153.820152 
L 134.54899 154.692079 
L 135.768884 158.904103 
L 136.378832 157.210056 
L 136.988779 156.782841 
L 137.598726 157.587584 
L 140.648462 155.547383 
L 141.258409 157.481153 
L 141.868356 158.2313 
L 142.478303 160.109061 
L 143.08825 160.824254 
L 143.698198 162.64865 
L 145.528039 164.661394 
L 146.137986 164.225709 
L 147.357881 167.644959 
L 147.967828 168.254914 
L 148.577775 166.754025 
L 149.797669 165.890728 
L 150.407616 166.495414 
L 151.627511 163.634006 
L 152.237458 163.238782 
L 154.067299 165.031327 
L 154.677247 161.715645 
L 155.287194 161.348654 
L 155.897141 158.107173 
L 156.507088 158.724266 
L 157.117035 156.49369 
L 157.726982 156.173821 
L 158.33693 156.79149 
L 158.946877 158.327153 
L 160.166771 159.507616 
L 161.386665 162.45925 
L 162.60656 159.995035 
L 163.216507 156.136481 
L 163.826454 155.839994 
L 164.436401 157.291554 
L 165.046348 157.857847 
L 165.656296 159.277675 
L 166.266243 158.968641 
L 166.87619 156.963831 
L 167.486137 156.673368 
L 168.096084 154.708223 
L 168.706031 151.933682 
L 169.315979 151.679882 
L 169.925926 152.252836 
L 170.535873 153.637353 
L 171.14582 154.191398 
L 171.755767 155.547383 
L 172.975662 156.612687 
L 173.585609 156.341609 
L 174.195556 156.863266 
L 174.805503 155.809017 
L 175.41545 155.547383 
L 176.025397 156.840301 
L 177.245292 154.780556 
L 178.465186 155.80009 
L 179.68508 158.295938 
L 180.295028 158.032097 
L 180.904975 157.02994 
L 181.514922 158.250367 
L 183.344763 159.656615 
L 183.954711 160.836462 
L 184.564658 159.851563 
L 185.174605 161.01775 
L 185.784552 160.042335 
L 186.394499 161.195181 
L 187.004446 161.63363 
L 187.614394 162.766056 
L 188.834288 162.230363 
L 189.444235 162.654436 
L 190.054182 162.3899 
L 190.664129 163.4896 
L 191.274077 163.223513 
L 191.884024 163.634006 
L 193.103918 163.108373 
L 193.713865 163.5133 
L 196.153654 162.490048 
L 196.763601 163.535866 
L 197.373548 163.926995 
L 197.983495 163.031388 
L 199.20339 162.536533 
L 199.813337 163.557359 
L 200.423284 163.309783 
L 201.033231 163.69095 
L 201.643178 162.821568 
L 202.253126 162.580851 
L 202.863073 163.577838 
L 203.47302 161.491231 
L 204.692914 159.812255 
L 205.302861 160.803695 
L 207.74265 159.915604 
L 208.352597 160.291542 
L 208.962544 158.892949 
L 209.572492 156.918917 
L 210.182439 156.717825 
L 210.792386 157.10114 
L 211.402333 158.061265 
L 212.01228 158.435473 
L 212.622227 158.2313 
L 213.232175 159.174226 
L 213.842122 159.538851 
L 214.452069 159.33261 
L 215.062016 159.693497 
L 215.671963 158.925337 
L 216.28191 159.845519 
L 217.501805 159.439081 
L 218.721699 157.936621 
L 219.331646 158.84193 
L 219.941593 159.192995 
L 220.551541 158.451975 
L 221.161488 158.801748 
L 221.771435 158.068323 
L 222.381382 158.954843 
L 222.991329 158.76254 
L 223.601276 159.639218 
L 224.211224 159.445722 
L 224.821171 160.312717 
L 225.431118 160.118088 
L 226.041065 160.450304 
L 227.260959 159.022105 
L 227.870907 159.3547 
L 228.480854 158.650383 
L 229.090801 158.466688 
L 229.700748 159.310779 
L 230.310695 158.614733 
L 230.920642 158.433266 
L 231.53059 158.760512 
L 232.140537 157.569034 
L 232.750484 157.393571 
L 233.970378 158.046055 
L 234.580325 158.866525 
L 235.190273 157.696799 
L 238.240008 156.845968 
L 238.849956 157.649916 
L 239.459903 157.481153 
L 240.679797 158.107173 
L 241.289744 156.982103 
L 241.899691 157.771199 
L 242.509639 158.079855 
L 243.729533 157.747638 
L 244.33948 156.643644 
L 244.949427 156.483729 
L 245.559374 157.258012 
L 246.779269 157.863871 
L 247.389216 158.625331 
L 248.60911 159.215542 
L 249.829005 160.708478 
L 251.048899 161.27654 
L 251.658846 160.656167 
L 252.87874 160.323374 
L 254.098635 160.884557 
L 254.708582 160.719055 
L 255.318529 161.438304 
L 255.928476 161.712424 
L 256.538423 162.42366 
L 257.148371 162.69277 
L 258.368265 161.487235 
L 258.978212 160.457124 
L 260.198106 160.999339 
L 260.808054 160.838788 
L 261.418001 161.106943 
L 262.027948 161.799648 
L 262.637895 162.063032 
L 263.247842 162.748321 
L 264.467737 163.264113 
L 265.077684 163.099983 
L 265.687631 163.773422 
L 266.297578 163.608736 
L 266.907525 163.860726 
L 267.517472 163.282404 
L 268.12742 163.533858 
L 269.347314 164.85322 
L 269.957261 165.097536 
L 270.567208 165.748389 
L 271.177155 165.174899 
L 273.616944 164.523032 
L 274.226891 163.961829 
L 274.836838 164.602462 
L 276.66668 165.313718 
L 277.276627 164.363713 
L 278.496521 164.835107 
L 279.106469 164.286152 
L 279.716416 164.520685 
L 280.326363 165.142868 
L 280.93631 165.373564 
L 281.546257 164.829421 
L 282.156204 164.674039 
L 282.766152 164.135045 
L 283.376099 164.36598 
L 283.986046 164.213263 
L 284.595993 164.442667 
L 285.20594 163.530319 
L 287.035782 163.085747 
L 287.645729 162.563374 
L 288.255676 163.168339 
L 288.865623 163.396152 
L 290.695465 162.960109 
L 291.305412 163.185994 
L 292.525306 162.898852 
L 293.745201 163.345989 
L 294.355148 162.474042 
L 294.965095 161.970399 
L 295.575042 161.832097 
L 296.184989 161.332927 
L 296.794936 161.557718 
L 298.014831 161.286283 
L 298.624778 160.078502 
L 299.234725 160.660979 
L 299.844672 159.817126 
L 300.454619 160.397198 
L 301.064567 159.912443 
L 301.674514 160.489214 
L 302.284461 160.358825 
L 303.504355 160.800494 
L 304.114302 160.670323 
L 304.72425 161.237571 
L 305.334197 161.454409 
L 307.164038 161.063838 
L 307.773985 160.591092 
L 308.383933 160.463804 
L 308.99388 159.995035 
L 310.213774 159.74541 
L 310.823721 159.961076 
L 311.433668 159.836989 
L 312.043616 160.051322 
L 312.653563 159.590705 
L 313.26351 159.804581 
L 313.873457 159.682124 
L 314.483404 160.229111 
L 315.093351 160.106218 
L 315.703299 158.985721 
L 316.313246 159.198443 
L 316.923193 159.079009 
L 317.53314 159.290459 
L 318.143087 159.830308 
L 319.362982 159.590705 
L 320.582876 158.0485 
L 321.192823 157.933917 
L 321.80277 158.469193 
L 323.022665 157.593509 
L 323.632612 157.803429 
L 324.242559 157.369314 
L 324.852506 156.616524 
L 325.462453 156.827278 
L 326.0724 156.717825 
L 326.682348 157.245765 
L 327.902242 157.026421 
L 329.122136 156.178254 
L 330.951978 156.800238 
L 331.561925 157.318117 
L 332.171872 156.898298 
L 332.781819 156.79149 
L 333.391766 155.443954 
L 334.001714 155.960163 
L 334.611661 155.856258 
L 337.051449 157.893616 
L 338.271344 157.07056 
L 338.881291 156.053949 
L 339.491238 155.648466 
L 340.101185 155.849955 
L 340.711132 155.446758 
L 341.32108 155.34659 
L 341.931027 155.547383 
L 342.540974 155.447434 
L 343.760868 155.845899 
L 344.370815 155.74595 
L 344.980763 156.240785 
L 346.200657 156.040469 
L 347.420551 156.43102 
L 348.030498 156.331111 
L 348.640446 156.524886 
L 349.250393 157.010436 
L 349.86034 157.201864 
L 350.470287 156.809821 
L 351.690181 157.771199 
L 352.300129 157.380469 
L 354.12997 157.943739 
L 355.349865 157.742568 
L 355.959812 158.214061 
L 356.569759 158.113337 
L 357.179706 158.582027 
L 360.229442 159.48833 
L 360.839389 159.948212 
L 362.059283 159.743263 
L 362.669231 160.199725 
L 363.279178 160.375725 
L 363.889125 159.717058 
L 365.109019 159.515191 
L 365.718966 159.138657 
L 366.328914 159.315014 
L 366.938861 159.215542 
L 368.768702 159.739843 
L 369.378649 159.367444 
L 370.598544 159.714215 
L 371.208491 159.615359 
L 371.818438 158.97558 
L 372.428385 159.148717 
L 373.038332 158.782024 
L 373.64828 159.223873 
L 375.478121 159.736543 
L 376.088068 159.372355 
L 376.088068 159.372355 
" clip-path="url(#p469350dd24)" style="fill: none; stroke: #1f77b4; stroke-width: 1.5; stroke-linecap: square"/>
   </g>
   <g id="line2d_16">
    <path d="M 71.724432 111.071025 
L 72.334379 111.071025 
L 72.944326 22.11829 
L 73.554273 44.356489 
L 74.16422 84.385215 
L 74.774168 66.594668 
L 75.384115 53.887137 
L 75.994062 77.713767 
L 76.604009 96.245573 
L 77.213956 97.72813 
L 78.433851 144.428304 
L 79.653745 120.601674 
L 80.873639 152.767613 
L 81.483586 158.16364 
L 82.703481 139.161355 
L 83.313428 151.099751 
L 83.923375 149.193618 
L 84.533322 135.330855 
L 85.143269 140.07736 
L 85.753217 149.987843 
L 86.363164 143.09401 
L 86.973111 121.3348 
L 88.193005 120.601674 
L 88.802952 124.874041 
L 89.4129 133.309204 
L 90.022847 136.896004 
L 90.632794 131.919319 
L 91.242741 139.374177 
L 92.462635 145.38137 
L 93.68253 157.951513 
L 95.512371 164.442667 
L 96.122319 163.140921 
L 96.732266 165.078031 
L 97.95216 162.623181 
L 98.562107 164.442667 
L 99.172054 169.083675 
L 100.391949 172.226022 
L 101.001896 168.254914 
L 101.611843 169.779821 
L 102.22179 168.628665 
L 103.441685 171.491742 
L 104.051632 170.372836 
L 104.661579 171.72061 
L 105.271526 170.637591 
L 105.881473 171.933412 
L 107.101368 169.870286 
L 107.711315 171.114114 
L 108.931209 169.177242 
L 110.151103 171.53109 
L 110.761051 168.548181 
L 111.370998 171.72061 
L 111.980945 166.832442 
L 112.590892 164.050226 
L 114.420734 167.449514 
L 115.030681 170.372836 
L 115.640628 171.388294 
L 116.860522 176.89604 
L 117.470469 174.274276 
L 118.080417 173.453447 
L 120.520205 176.96193 
L 121.7401 172.159038 
L 122.350047 173.020248 
L 123.569941 171.579563 
L 124.179888 172.417729 
L 124.789835 171.72061 
L 126.00973 167.407761 
L 126.619677 166.78866 
L 127.229624 169.083675 
L 128.449518 167.849371 
L 129.059466 170.060721 
L 129.669413 170.836137 
L 130.27936 170.219999 
L 130.889307 170.977959 
L 131.499254 173.068383 
L 132.109201 173.782701 
L 132.719149 173.161791 
L 133.329096 173.861178 
L 133.939043 175.842427 
L 134.54899 176.502605 
L 135.158937 178.420946 
L 136.988779 176.550124 
L 137.598726 174.72527 
L 138.208673 175.359581 
L 139.428567 174.211586 
L 140.038515 171.291227 
L 140.648462 173.103854 
L 141.868356 169.733813 
L 143.698198 168.254914 
L 144.308145 168.890298 
L 144.918092 166.207018 
L 146.137986 163.140921 
L 146.747933 163.797043 
L 147.357881 163.375236 
L 147.967828 164.01907 
L 149.187722 167.361415 
L 149.797669 165.890728 
L 151.017564 165.053794 
L 151.627511 163.634006 
L 152.847405 162.849483 
L 153.457352 164.442667 
L 154.067299 163.069125 
L 154.677247 163.663512 
L 155.287194 165.216155 
L 155.897141 164.826637 
L 157.117035 165.956757 
L 157.726982 163.69095 
L 158.33693 163.322985 
L 158.946877 163.886713 
L 160.776718 162.808844 
L 161.996613 163.905362 
L 162.60656 162.663602 
L 163.216507 164.089216 
L 163.826454 164.618229 
L 164.436401 164.268238 
L 165.046348 164.789238 
L 166.266243 162.3899 
L 166.87619 162.063032 
L 167.486137 163.429276 
L 168.096084 163.939163 
L 169.315979 163.282404 
L 169.925926 163.783761 
L 171.14582 161.513738 
L 172.365714 160.905991 
L 172.975662 159.009619 
L 173.585609 158.724266 
L 174.195556 160.021339 
L 174.805503 160.518282 
L 175.41545 161.789687 
L 176.025397 160.719055 
L 176.635345 161.203353 
L 177.855239 160.630399 
L 178.465186 158.074447 
L 180.295028 161.759168 
L 180.904975 162.218851 
L 181.514922 161.936261 
L 182.124869 160.923646 
L 182.734816 161.380347 
L 183.954711 160.836462 
L 184.564658 161.286283 
L 185.174605 159.590705 
L 185.784552 160.042335 
L 186.394499 159.077259 
L 187.004446 160.229111 
L 187.614394 160.670323 
L 188.224341 159.717058 
L 188.834288 160.156341 
L 189.444235 159.215542 
L 190.054182 159.652897 
L 190.664129 158.724266 
L 191.274077 158.482376 
L 191.884024 158.916808 
L 192.493971 157.335375 
L 193.103918 157.104062 
L 195.543707 158.817714 
L 196.153654 158.58479 
L 196.763601 157.706442 
L 197.983495 158.540989 
L 199.20339 158.088901 
L 199.813337 159.130803 
L 200.423284 159.533483 
L 201.033231 160.558803 
L 201.643178 160.327549 
L 202.253126 159.477852 
L 204.082967 158.811709 
L 204.692914 157.984459 
L 205.302861 157.771199 
L 205.912809 158.16364 
L 206.522756 157.951513 
L 207.74265 158.724266 
L 208.352597 159.698508 
L 208.962544 159.483359 
L 209.572492 160.445671 
L 210.182439 160.814332 
L 210.792386 160.01444 
L 211.402333 158.641396 
L 212.01228 159.013079 
L 212.622227 158.80644 
L 213.842122 160.679271 
L 214.452069 161.035962 
L 215.062016 160.824254 
L 216.891858 161.874566 
L 217.501805 161.662897 
L 218.721699 162.34749 
L 219.941593 161.927195 
L 220.551541 162.264223 
L 221.161488 160.971344 
L 221.771435 161.849713 
L 222.991329 162.513569 
L 224.211224 164.230023 
L 224.821171 162.960109 
L 225.431118 163.809787 
L 226.651012 162.349658 
L 227.870907 161.950596 
L 228.480854 162.787728 
L 229.700748 162.3899 
L 230.310695 162.7045 
L 230.920642 161.998155 
L 233.360431 163.238782 
L 233.970378 162.543671 
L 235.190273 163.153009 
L 235.80022 163.948488 
L 236.410167 163.261011 
L 237.020114 163.559666 
L 237.630061 163.367402 
L 238.240008 163.663512 
L 238.849956 162.98707 
L 239.459903 162.798962 
L 241.899691 165.872257 
L 243.119586 166.429901 
L 243.729533 166.234297 
L 244.33948 166.979691 
L 245.559374 164.722592 
L 246.169322 165.000549 
L 246.779269 164.813296 
L 247.389216 163.703953 
L 247.999163 164.442667 
L 248.60911 164.259251 
L 249.829005 164.806973 
L 250.438952 165.531889 
L 251.048899 165.799567 
L 251.658846 165.614679 
L 252.87874 166.14411 
L 253.488688 165.513656 
L 254.098635 165.332189 
L 254.708582 166.038494 
L 255.318529 165.85647 
L 255.928476 166.116036 
L 257.148371 167.504967 
L 257.758318 166.884494 
L 258.368265 167.13732 
L 259.588159 166.774425 
L 260.198106 167.025163 
L 261.418001 166.666483 
L 262.027948 167.341433 
L 262.637895 167.587161 
L 263.247842 167.407761 
L 263.857789 168.073963 
L 264.467737 167.894146 
L 265.077684 168.554622 
L 266.297578 167.361415 
L 266.907525 168.017398 
L 268.737367 168.725572 
L 269.957261 168.371863 
L 270.567208 169.012715 
L 271.177155 168.429263 
L 271.787103 169.06604 
L 272.39705 169.294629 
L 273.616944 168.943882 
L 274.226891 168.369397 
L 274.836838 168.996829 
L 275.446786 169.222217 
L 276.66668 168.877096 
L 277.276627 169.100834 
L 278.496521 167.18973 
L 279.106469 167.807737 
L 279.716416 168.031992 
L 280.326363 167.087912 
L 280.93631 166.925054 
L 281.546257 167.149925 
L 282.156204 166.987843 
L 282.766152 166.442168 
L 283.376099 166.283069 
L 283.986046 165.742544 
L 284.595993 164.823893 
L 285.20594 164.670739 
L 285.815887 164.897538 
L 287.645729 166.697797 
L 288.255676 165.042342 
L 288.865623 164.891156 
L 289.47557 164.368127 
L 290.085518 164.962991 
L 291.305412 165.403647 
L 291.915359 164.884972 
L 292.525306 165.471863 
L 293.135253 165.322407 
L 293.745201 164.808226 
L 294.355148 164.661394 
L 294.965095 165.242519 
L 295.575042 165.457886 
L 297.404884 165.018105 
L 298.014831 165.590443 
L 301.064567 164.867376 
L 301.674514 164.01907 
L 302.894408 163.038148 
L 304.114302 164.163238 
L 304.72425 163.676237 
L 305.944144 163.402952 
L 306.554091 161.884686 
L 307.164038 162.098164 
L 308.383933 161.835815 
L 308.99388 162.047782 
L 309.603827 162.599899 
L 310.213774 162.808844 
L 310.823721 163.356208 
L 312.653563 163.970935 
L 313.26351 163.501609 
L 313.873457 163.705106 
L 315.093351 163.441942 
L 315.703299 163.97682 
L 316.923193 163.714272 
L 317.53314 163.91423 
L 318.143087 163.783761 
L 318.753034 164.311204 
L 319.362982 164.508219 
L 319.972929 165.031327 
L 320.582876 164.899387 
L 321.192823 165.418976 
L 321.80277 165.286738 
L 322.412717 165.802867 
L 323.022665 165.993421 
L 323.632612 165.860745 
L 324.852506 166.23883 
L 325.462453 165.786544 
L 326.0724 165.655657 
L 326.682348 165.206929 
L 327.902242 166.217496 
L 328.512189 166.086809 
L 329.122136 165.641322 
L 329.732083 165.512603 
L 330.342031 165.698464 
L 330.951978 166.196659 
L 331.561925 165.75507 
L 332.171872 165.939062 
L 332.781819 165.500136 
L 333.391766 165.994156 
L 334.001714 165.247569 
L 334.611661 165.431025 
L 335.831555 163.950754 
L 336.441502 163.829193 
L 337.661397 164.19839 
L 338.271344 164.686366 
L 340.101185 164.321642 
L 341.32108 164.683622 
L 342.540974 164.442667 
L 343.150921 164.622166 
L 343.760868 164.502354 
L 346.200657 165.21188 
L 346.810604 164.796893 
L 348.640446 165.322407 
L 349.86034 165.08499 
L 350.470287 164.093073 
L 351.080234 164.268238 
L 351.690181 164.152601 
L 352.300129 163.748012 
L 352.910076 163.634006 
L 353.520023 163.232281 
L 354.12997 163.407445 
L 355.959812 163.071233 
L 356.569759 163.530319 
L 357.179706 162.849483 
L 357.789653 162.455413 
L 358.3996 162.912908 
L 359.009548 163.085747 
L 359.619495 163.539962 
L 360.229442 163.710773 
L 360.839389 163.319048 
L 361.449336 163.209277 
L 362.059283 162.820256 
L 362.669231 162.711996 
L 363.279178 163.1613 
L 363.889125 162.774805 
L 364.499072 162.944701 
L 365.109019 163.390724 
L 365.718966 163.558652 
L 366.328914 163.450213 
L 366.938861 162.516889 
L 367.548808 162.685572 
L 368.158755 162.031617 
L 369.378649 162.368924 
L 369.988597 162.264223 
L 370.598544 161.888225 
L 371.818438 162.764645 
L 372.428385 162.930107 
L 373.038332 162.286232 
L 373.64828 162.182983 
L 374.258227 162.348604 
L 374.868174 162.781505 
L 376.088068 162.574648 
L 376.088068 162.574648 
" clip-path="url(#p469350dd24)" style="fill: none; stroke: #ff7f0e; stroke-width: 1.5; stroke-linecap: square"/>
   </g>
   <g id="line2d_17">
    <path d="M 71.724432 111.071025 
L 72.334379 111.071025 
L 72.944326 155.547383 
L 73.554273 211.14284 
L 74.16422 217.814298 
L 74.774168 177.785562 
L 75.384115 168.254914 
L 75.994062 177.785562 
L 76.604009 170.372836 
L 77.213956 191.128477 
L 77.823903 183.850534 
L 78.433851 188.904661 
L 79.043798 182.917449 
L 79.653745 168.254914 
L 80.263692 164.442667 
L 81.483586 173.861178 
L 82.093534 185.198288 
L 82.703481 174.274276 
L 83.923375 168.254914 
L 84.533322 171.72061 
L 85.143269 180.686197 
L 85.753217 183.345122 
L 86.363164 175.116995 
L 86.973111 177.785562 
L 87.583058 175.314667 
L 88.193005 177.785562 
L 89.4129 164.442667 
L 90.632794 169.446252 
L 91.242741 167.677308 
L 91.852688 173.861178 
L 92.462635 175.879448 
L 93.072583 181.491935 
L 93.68253 179.588665 
L 94.292477 174.274276 
L 94.902424 172.653675 
L 95.512371 164.442667 
L 96.122319 166.395285 
L 97.342213 163.822055 
L 97.95216 165.655657 
L 99.172054 163.282404 
L 99.782002 167.849371 
L 100.391949 169.446252 
L 101.001896 173.701004 
L 102.22179 166.012409 
L 104.051632 162.960109 
L 104.661579 157.164704 
L 105.271526 156.341609 
L 105.881473 157.888247 
L 106.49142 152.480053 
L 107.101368 154.039714 
L 108.321262 148.256179 
L 108.931209 149.808503 
L 111.370998 139.374177 
L 111.980945 140.943203 
L 112.590892 140.503919 
L 113.810786 147.287504 
L 114.420734 148.656691 
L 115.640628 154.938124 
L 116.250575 156.148431 
L 117.470469 154.962182 
L 118.690364 157.258012 
L 119.910258 162.774805 
L 120.520205 162.136478 
L 121.7401 164.121147 
L 122.350047 161.901149 
L 122.959994 164.442667 
L 123.569941 162.270565 
L 124.179888 164.749394 
L 124.789835 164.139419 
L 126.00973 165.925204 
L 126.619677 162.3899 
L 127.229624 164.732732 
L 127.839571 162.721003 
L 128.449518 162.17153 
L 129.059466 160.229111 
L 129.669413 159.717058 
L 130.27936 161.966661 
L 130.889307 158.724266 
L 131.499254 156.895157 
L 132.109201 157.771199 
L 132.719149 155.98774 
L 133.939043 155.115575 
L 135.158937 156.818152 
L 135.768884 156.386563 
L 136.378832 158.457065 
L 136.988779 158.018299 
L 138.208673 159.590705 
L 138.81862 159.153588 
L 139.428567 161.106943 
L 140.648462 160.229111 
L 141.258409 157.481153 
L 141.868356 158.2313 
L 142.478303 156.687803 
L 143.08825 154.039714 
L 143.698198 155.921134 
L 144.308145 156.659291 
L 145.528039 160.286671 
L 146.137986 160.971344 
L 146.747933 159.492883 
L 147.357881 160.172923 
L 147.967828 156.606344 
L 148.577775 156.247803 
L 149.187722 157.979687 
L 150.407616 157.258012 
L 151.017564 157.923996 
L 151.627511 156.558209 
L 152.237458 156.21621 
L 152.847405 156.875036 
L 153.457352 155.547383 
L 154.067299 155.220356 
L 154.677247 156.845968 
L 155.287194 154.580518 
L 155.897141 154.267488 
L 156.507088 154.912019 
L 157.117035 156.49369 
L 157.726982 155.234174 
L 158.33693 155.858405 
L 158.946877 151.84103 
L 160.166771 151.282531 
L 160.776718 150.101313 
L 161.386665 149.837592 
L 161.996613 150.472896 
L 162.60656 150.210229 
L 163.216507 151.718295 
L 165.046348 148.327199 
L 165.656296 148.08684 
L 166.87619 151.014774 
L 168.096084 150.512323 
L 168.706031 151.933682 
L 169.315979 152.508624 
L 169.925926 153.90012 
L 170.535873 154.455954 
L 171.14582 153.377807 
L 171.755767 154.738723 
L 172.365714 153.671888 
L 173.585609 153.164726 
L 174.195556 151.336611 
L 174.805503 151.884632 
L 175.41545 151.645963 
L 176.025397 152.961547 
L 176.635345 152.719418 
L 177.855239 155.293245 
L 179.075133 156.301227 
L 180.295028 154.305026 
L 180.904975 154.806124 
L 181.514922 153.090127 
L 183.344763 152.405036 
L 183.954711 150.739143 
L 184.564658 151.243223 
L 185.174605 149.601348 
L 186.394499 150.605572 
L 187.614394 150.191599 
L 188.224341 150.682796 
L 188.834288 149.786195 
L 191.274077 154.418555 
L 191.884024 154.199629 
L 192.493971 155.323884 
L 193.713865 154.883567 
L 194.93376 155.766488 
L 195.543707 156.855511 
L 197.373548 156.191973 
L 197.983495 157.258012 
L 200.423284 158.904103 
L 201.033231 158.053093 
L 201.643178 156.586561 
L 202.253126 156.995464 
L 202.863073 156.165112 
L 203.47302 157.187072 
L 204.082967 156.975522 
L 204.692914 157.37518 
L 205.302861 157.164704 
L 205.912809 157.559888 
L 206.522756 157.350486 
L 207.74265 158.128607 
L 208.352597 157.919463 
L 208.962544 158.892949 
L 209.572492 158.094488 
L 210.182439 157.888247 
L 210.792386 158.849128 
L 211.402333 158.641396 
L 212.01228 157.857847 
L 212.622227 158.80644 
L 213.232175 158.028896 
L 213.842122 157.828222 
L 214.452069 158.764826 
L 216.28191 158.16364 
L 216.891858 158.524884 
L 217.501805 158.327153 
L 218.111752 158.68472 
L 218.721699 157.936621 
L 219.331646 157.743761 
L 219.941593 156.458796 
L 220.551541 156.273531 
L 221.161488 156.632171 
L 221.771435 155.907515 
L 222.381382 154.650683 
L 222.991329 155.01153 
L 223.601276 154.302044 
L 224.211224 155.192998 
L 224.821171 154.488422 
L 225.431118 152.734648 
L 226.041065 153.095933 
L 226.651012 152.931127 
L 227.260959 153.288833 
L 227.870907 152.086201 
L 229.700748 153.152518 
L 230.920642 154.868357 
L 232.750484 155.883059 
L 233.360431 155.714595 
L 234.580325 156.377179 
L 235.190273 156.208754 
L 235.80022 155.547383 
L 236.410167 155.875623 
L 237.630061 155.547383 
L 238.240008 154.898101 
L 240.679797 154.267488 
L 241.289744 154.590916 
L 241.899691 154.435475 
L 242.509639 153.806314 
L 243.729533 154.447266 
L 244.33948 155.234174 
L 244.949427 155.547383 
L 245.559374 155.391882 
L 246.169322 155.702367 
L 246.779269 155.547383 
L 247.389216 156.316875 
L 247.999163 155.700757 
L 248.60911 156.005913 
L 249.219057 155.395083 
L 249.829005 155.699186 
L 251.658846 155.246879 
L 252.268793 155.996648 
L 252.87874 155.398145 
L 253.488688 156.142386 
L 254.708582 155.842916 
L 255.318529 154.811035 
L 256.538423 155.401088 
L 257.148371 155.255747 
L 259.588159 156.410999 
L 260.198106 155.834327 
L 260.808054 156.548466 
L 262.027948 157.110464 
L 262.637895 156.113974 
L 263.247842 156.818152 
L 264.467737 157.371342 
L 265.687631 157.081058 
L 266.297578 157.354244 
L 266.907525 157.210056 
L 267.517472 156.652392 
L 268.12742 156.924364 
L 268.737367 156.371035 
L 270.567208 155.955431 
L 271.177155 156.632171 
L 271.787103 156.49369 
L 272.39705 156.760374 
L 273.006997 156.219232 
L 273.616944 156.48514 
L 274.226891 157.15015 
L 274.836838 157.012185 
L 275.446786 156.47675 
L 276.66668 156.999142 
L 277.276627 156.863266 
L 278.496521 158.16364 
L 279.106469 157.634249 
L 280.326363 157.362753 
L 280.93631 156.840301 
L 281.546257 156.707645 
L 282.766152 157.982689 
L 283.376099 157.847886 
L 283.986046 156.949217 
L 284.595993 157.580586 
L 285.20594 157.828222 
L 285.815887 157.695387 
L 286.425835 157.941294 
L 287.035782 158.562741 
L 288.255676 159.045527 
L 290.695465 158.512478 
L 291.305412 158.75067 
L 291.915359 159.356131 
L 292.525306 159.590705 
L 293.745201 159.324836 
L 294.355148 159.922106 
L 295.575042 160.381769 
L 296.184989 160.971344 
L 297.404884 160.702334 
L 298.014831 160.927603 
L 298.624778 161.509364 
L 299.234725 161.01775 
L 299.844672 161.240354 
L 300.454619 161.106943 
L 301.064567 161.682063 
L 302.284461 162.1191 
L 302.894408 162.687024 
L 303.504355 162.901754 
L 304.114302 162.766056 
L 305.334197 161.801875 
L 305.944144 162.016686 
L 306.554091 162.57604 
L 307.773985 162.310549 
L 308.383933 162.864833 
L 308.99388 163.074155 
L 309.603827 162.599899 
L 310.213774 162.468455 
L 310.823721 161.658642 
L 311.433668 161.530241 
L 312.043616 161.740299 
L 312.653563 161.612355 
L 313.873457 162.028874 
L 315.093351 160.439786 
L 316.313246 160.857994 
L 318.753034 160.367493 
L 319.362982 159.590705 
L 320.582876 160.005891 
L 321.192823 160.537429 
L 321.80277 160.41706 
L 323.022665 161.470395 
L 324.242559 161.22751 
L 324.852506 161.748411 
L 326.682348 161.385576 
L 327.292295 160.948082 
L 327.902242 161.146549 
L 329.122136 162.17153 
L 329.732083 162.051003 
L 330.951978 162.438095 
L 331.561925 162.942752 
L 333.391766 162.580851 
L 334.001714 162.770928 
L 334.611661 162.651255 
L 335.221608 163.148436 
L 335.831555 163.028446 
L 336.441502 163.215719 
L 338.271344 162.85857 
L 338.881291 163.04455 
L 339.491238 163.532924 
L 340.101185 163.413947 
L 340.711132 162.993651 
L 341.32108 162.876444 
L 342.540974 163.243296 
L 343.150921 163.126327 
L 343.760868 162.71136 
L 344.370815 162.596101 
L 344.980763 162.184176 
L 345.59071 162.070587 
L 346.810604 162.435331 
L 347.420551 162.91102 
L 348.640446 163.26966 
L 349.250393 162.862586 
L 349.86034 162.749256 
L 351.080234 163.10547 
L 352.300129 164.037462 
L 352.910076 163.922799 
L 353.520023 164.096851 
L 354.12997 163.407445 
L 354.739917 163.294891 
L 355.349865 163.469141 
L 357.179706 163.133982 
L 359.009548 163.651125 
L 359.619495 162.975797 
L 360.839389 162.757248 
L 362.059283 163.099983 
L 362.669231 162.991126 
L 363.279178 162.32562 
L 364.499072 163.222101 
L 365.109019 162.837077 
L 365.718966 163.006157 
L 366.938861 163.892439 
L 367.548808 164.058298 
L 368.158755 163.949502 
L 368.768702 164.38797 
L 371.818438 165.200468 
L 372.428385 164.820792 
L 373.038332 165.251327 
L 373.64828 165.142093 
L 374.258227 164.496349 
L 374.868174 164.924936 
L 375.478121 164.817014 
L 376.088068 165.243235 
L 376.088068 165.243235 
" clip-path="url(#p469350dd24)" style="fill: none; stroke: #2ca02c; stroke-width: 1.5; stroke-linecap: square"/>
   </g>
   <g id="line2d_18">
    <path d="M 71.724432 244.500108 
L 72.334379 177.785562 
L 72.944326 155.547383 
L 73.554273 77.713767 
L 74.16422 57.699404 
L 74.774168 88.832847 
L 75.384115 111.071025 
L 76.604009 111.071025 
L 77.213956 71.0423 
L 77.823903 50.421441 
L 79.043798 59.752151 
L 79.653745 82.479081 
L 80.263692 39.908857 
L 81.483586 48.280873 
L 82.093534 44.356489 
L 82.703481 54.890367 
L 83.313428 57.699404 
L 84.533322 86.811196 
L 85.143269 93.667233 
L 85.753217 94.392386 
L 86.973111 105.939138 
L 87.583058 96.245573 
L 88.802952 97.26803 
L 89.4129 93.280478 
L 90.632794 94.392386 
L 91.242741 90.854497 
L 91.852688 99.297872 
L 92.462635 103.446511 
L 93.072583 111.071025 
L 93.68253 111.071025 
L 94.292477 114.582312 
L 94.902424 121.3348 
L 95.512371 124.413941 
L 96.122319 124.088504 
L 96.732266 126.955439 
L 97.342213 120.380044 
L 97.95216 120.168474 
L 98.562107 114.03612 
L 99.172054 116.872296 
L 99.782002 111.071025 
L 101.001896 116.517116 
L 101.611843 121.745354 
L 103.441685 128.693745 
L 105.271526 134.897656 
L 105.881473 139.161355 
L 106.49142 140.97754 
L 108.321262 139.506733 
L 108.931209 136.896004 
L 109.541156 136.486087 
L 110.151103 138.173812 
L 111.370998 137.352506 
L 112.590892 144.428304 
L 114.420734 137.380998 
L 115.030681 137.015577 
L 115.640628 134.832381 
L 116.250575 130.905074 
L 116.860522 130.640637 
L 117.470469 128.627496 
L 118.080417 130.132322 
L 118.690364 129.887946 
L 119.300311 131.338731 
L 119.910258 131.085388 
L 120.520205 134.132836 
L 122.350047 138.074538 
L 122.959994 136.187094 
L 123.569941 135.89504 
L 124.789835 138.363351 
L 126.00973 137.756836 
L 126.619677 138.929843 
L 127.839571 138.330744 
L 129.059466 140.565873 
L 129.669413 140.258649 
L 130.27936 135.831059 
L 130.889307 134.216899 
L 131.499254 136.678629 
L 132.109201 135.088269 
L 132.719149 137.492638 
L 133.329096 138.541717 
L 133.939043 138.275013 
L 134.54899 135.447506 
L 135.158937 131.403071 
L 135.768884 132.470024 
L 136.378832 132.270046 
L 136.988779 134.544662 
L 137.598726 133.10519 
L 138.208673 130.478893 
L 138.81862 131.506122 
L 139.428567 130.132322 
L 140.038515 131.144439 
L 141.868356 130.625288 
L 142.478303 131.598575 
L 143.08825 131.424623 
L 143.698198 129.011069 
L 144.308145 128.861573 
L 144.918092 129.817264 
L 145.528039 128.569916 
L 146.137986 129.512445 
L 146.747933 128.287685 
L 148.577775 127.880988 
L 149.187722 128.792083 
L 149.797669 127.620369 
L 152.237458 131.135552 
L 153.457352 128.861573 
L 154.067299 130.692948 
L 156.507088 133.944589 
L 157.117035 132.836061 
L 157.726982 134.562059 
L 158.33693 134.39779 
L 158.946877 135.162391 
L 159.556824 134.076052 
L 160.776718 137.393782 
L 161.386665 137.215913 
L 161.996613 136.144943 
L 162.60656 137.756836 
L 163.216507 138.463758 
L 163.826454 138.283543 
L 164.436401 137.233589 
L 165.046348 137.930132 
L 165.656296 139.47852 
L 166.266243 136.730463 
L 166.87619 138.266762 
L 167.486137 138.09464 
L 168.096084 139.603044 
L 168.706031 139.424718 
L 169.315979 140.07736 
L 170.535873 138.084281 
L 171.14582 139.546757 
L 172.365714 139.203664 
L 172.975662 139.834178 
L 173.585609 139.66297 
L 174.805503 140.89636 
L 176.635345 138.065353 
L 177.245292 138.677037 
L 177.855239 138.51929 
L 178.465186 139.12147 
L 179.68508 138.806293 
L 180.295028 137.905935 
L 180.904975 137.756836 
L 182.124869 140.396096 
L 182.734816 138.777623 
L 183.344763 140.07736 
L 183.954711 140.641804 
L 184.564658 139.048104 
L 185.174605 138.898488 
L 185.784552 137.331013 
L 186.394499 137.192074 
L 187.004446 138.459105 
L 188.224341 138.173812 
L 188.834288 138.724715 
L 189.444235 137.894403 
L 190.054182 136.388345 
L 190.664129 136.259168 
L 191.274077 135.454007 
L 191.884024 135.330855 
L 193.103918 136.422562 
L 193.713865 135.632592 
L 194.323812 136.171546 
L 195.543707 134.617333 
L 196.153654 135.804217 
L 196.763601 136.331878 
L 197.373548 136.20984 
L 197.983495 136.730463 
L 198.593443 137.884521 
L 199.20339 138.392221 
L 200.423284 136.875704 
L 201.033231 137.380998 
L 201.643178 138.505054 
L 202.863073 138.251035 
L 204.082967 140.449918 
L 205.302861 141.395827 
L 205.912809 140.654847 
L 206.522756 140.521595 
L 207.132703 139.791192 
L 207.74265 140.258649 
L 208.962544 140.000336 
L 209.572492 141.048481 
L 210.182439 140.917018 
L 211.402333 141.817734 
L 212.01228 141.684621 
L 212.622227 140.97754 
L 213.232175 141.421854 
L 214.452069 138.892404 
L 215.062016 138.774521 
L 215.671963 139.220624 
L 216.28191 137.981091 
L 216.891858 137.310216 
L 218.721699 138.639022 
L 219.331646 137.976478 
L 219.941593 138.413057 
L 220.551541 138.301457 
L 222.381382 139.586124 
L 224.211224 139.245298 
L 225.431118 140.07736 
L 226.041065 138.912525 
L 226.651012 139.849845 
L 227.260959 139.73743 
L 227.870907 140.664252 
L 229.090801 140.435722 
L 230.920642 141.627299 
L 231.53059 141.003785 
L 232.140537 141.395827 
L 232.750484 141.281384 
L 233.360431 140.164585 
L 233.970378 140.555355 
L 234.580325 139.947468 
L 235.190273 139.840123 
L 236.410167 141.597237 
L 237.630061 142.351101 
L 238.240008 142.236956 
L 238.849956 142.608818 
L 239.459903 143.461419 
L 240.06985 143.826183 
L 240.679797 143.228396 
L 241.289744 143.59137 
L 241.899691 143.475237 
L 242.509639 142.885085 
L 243.119586 143.245415 
L 244.33948 144.898127 
L 244.949427 145.247601 
L 246.779269 144.891585 
L 247.389216 143.851175 
L 247.999163 144.198243 
L 248.60911 144.084416 
L 250.438952 145.10906 
L 251.048899 144.541375 
L 252.268793 144.315988 
L 252.87874 144.65218 
L 253.488688 144.093602 
L 254.098635 144.873055 
L 254.708582 145.204059 
L 255.318529 145.091027 
L 255.928476 144.098036 
L 256.538423 143.989398 
L 257.148371 143.443982 
L 257.758318 143.77423 
L 258.368265 143.667719 
L 258.978212 143.995084 
L 260.198106 142.921848 
L 260.808054 142.819433 
L 261.418001 143.572979 
L 262.027948 143.042853 
L 262.637895 142.941034 
L 263.247842 143.263449 
L 263.857789 141.894838 
L 266.297578 143.177397 
L 266.907525 143.077388 
L 268.737367 144.016478 
L 269.347314 143.504564 
L 269.957261 143.405072 
L 270.567208 142.898148 
L 271.177155 143.207917 
L 271.787103 143.110234 
L 272.39705 142.608818 
L 273.006997 142.916639 
L 273.616944 143.624515 
L 274.836838 142.630609 
L 275.446786 142.934692 
L 276.056733 142.44274 
L 276.66668 142.74559 
L 278.496521 142.466102 
L 279.106469 141.982758 
L 281.546257 141.624357 
L 282.156204 142.30732 
L 282.766152 142.217292 
L 283.376099 141.744387 
L 283.986046 142.421127 
L 285.20594 143.002769 
L 285.815887 142.912066 
L 286.425835 142.065887 
L 287.645729 141.891259 
L 288.255676 142.5543 
L 288.865623 142.092351 
L 289.47557 142.751117 
L 290.085518 142.291195 
L 290.695465 142.575117 
L 291.305412 141.748622 
L 291.915359 142.032465 
L 292.525306 141.947189 
L 293.135253 142.228923 
L 293.745201 142.874667 
L 294.355148 143.152345 
L 294.965095 143.064922 
L 295.575042 142.252822 
L 296.184989 142.168322 
L 296.794936 141.72365 
L 297.404884 142.000672 
L 298.014831 141.558864 
L 299.234725 142.10935 
L 299.844672 142.026579 
L 300.454619 142.299109 
L 301.064567 141.86235 
L 302.284461 141.69987 
L 302.894408 141.268142 
L 303.504355 141.188871 
L 304.72425 141.728362 
L 305.334197 141.648534 
L 305.944144 142.262246 
L 306.554091 142.527101 
L 307.164038 142.445821 
L 307.773985 142.708847 
L 308.99388 142.546606 
L 310.213774 143.066771 
L 310.823721 143.664399 
L 311.433668 143.581668 
L 312.653563 144.091355 
L 313.26351 144.008187 
L 313.873457 143.254919 
L 314.483404 143.843083 
L 315.703299 144.345115 
L 316.313246 143.930426 
L 316.923193 144.179991 
L 317.53314 143.767768 
L 319.972929 144.755331 
L 321.192823 144.591022 
L 321.80277 144.184823 
L 323.022665 142.732169 
L 324.242559 143.22261 
L 324.852506 143.145327 
L 325.462453 143.708359 
L 326.0724 143.63028 
L 326.682348 143.234122 
L 327.292295 143.157555 
L 327.902242 143.398272 
L 328.512189 143.954027 
L 329.122136 143.876286 
L 329.732083 144.428304 
L 330.342031 144.663772 
L 330.951978 144.584898 
L 331.561925 145.131388 
L 332.171872 145.363556 
L 333.391766 146.445242 
L 334.611661 146.899199 
L 335.221608 146.816468 
L 336.441502 147.879048 
L 337.051449 147.488596 
L 337.661397 147.405268 
L 338.271344 147.626938 
L 338.881291 147.54367 
L 341.32108 148.419116 
L 341.931027 148.034489 
L 343.150921 147.868729 
L 343.760868 148.084911 
L 344.370815 148.002299 
L 344.980763 148.217209 
L 345.59071 148.134657 
L 346.200657 148.348334 
L 346.810604 148.265861 
L 348.030498 146.926418 
L 348.640446 145.967864 
L 349.250393 146.476557 
L 349.86034 146.107121 
L 350.470287 146.613269 
L 351.080234 146.245145 
L 351.690181 146.458743 
L 352.300129 146.960855 
L 352.910076 146.883154 
L 353.520023 147.094008 
L 354.739917 146.939064 
L 355.349865 147.148426 
L 355.959812 147.642605 
L 356.569759 147.279352 
L 357.179706 147.202149 
L 357.789653 147.409165 
L 358.3996 147.048715 
L 359.009548 146.972506 
L 359.619495 147.178687 
L 360.839389 146.464846 
L 361.449336 146.670809 
L 362.059283 147.155624 
L 362.669231 146.52185 
L 363.279178 146.726401 
L 363.889125 146.65212 
L 364.499072 146.300736 
L 365.718966 146.707373 
L 366.328914 146.358058 
L 367.548808 146.761931 
L 368.158755 147.236605 
L 369.378649 147.088699 
L 369.988597 146.742883 
L 370.598544 146.941986 
L 371.208491 146.59788 
L 371.818438 145.984525 
L 372.428385 145.64374 
L 373.038332 145.843459 
L 373.64828 145.773354 
L 374.258227 145.972 
L 374.868174 145.366061 
L 375.478121 145.297327 
L 376.088068 144.962009 
L 376.088068 144.962009 
" clip-path="url(#p469350dd24)" style="fill: none; stroke: #d62728; stroke-width: 1.5; stroke-linecap: square"/>
   </g>
   <g id="line2d_19">
    <path d="M 71.724432 111.071025 
L 72.334379 177.785562 
L 72.944326 200.023741 
L 73.554273 244.500108 
L 75.384115 244.500108 
L 75.994062 227.821479 
L 76.604009 214.849203 
L 77.213956 217.814298 
L 78.433851 177.785562 
L 79.043798 182.917449 
L 80.263692 208.919024 
L 81.483586 166.012409 
L 82.093534 177.785562 
L 82.703481 181.296868 
L 83.313428 171.114114 
L 83.923375 180.962445 
L 84.533322 183.850534 
L 85.143269 180.686197 
L 86.363164 185.791323 
L 86.973111 188.049337 
L 87.583058 195.08193 
L 88.802952 189.288075 
L 89.4129 191.128477 
L 90.022847 179.937662 
L 90.632794 181.955237 
L 91.242741 175.763911 
L 91.852688 173.861178 
L 93.072583 162.960109 
L 94.292477 160.229111 
L 94.902424 152.126125 
L 96.732266 149.193618 
L 97.342213 151.410057 
L 97.95216 156.558209 
L 98.562107 155.547383 
L 99.172054 157.481153 
L 101.001896 154.639708 
L 101.611843 153.768338 
L 102.22179 155.547383 
L 102.831737 146.994237 
L 103.441685 143.798924 
L 104.051632 143.192846 
L 105.271526 146.810961 
L 106.49142 154.780556 
L 108.931209 151.960583 
L 110.151103 154.852451 
L 111.370998 161.612355 
L 111.980945 162.849483 
L 113.810786 160.630399 
L 114.420734 161.811657 
L 115.640628 156.765921 
L 116.250575 156.148431 
L 117.470469 158.473468 
L 118.080417 157.857847 
L 118.690364 153.836754 
L 119.300311 148.228502 
L 119.910258 149.431889 
L 120.520205 152.252836 
L 122.350047 150.782069 
L 122.959994 151.884632 
L 123.569941 154.513057 
L 124.179888 152.480053 
L 126.619677 156.524886 
L 127.229624 151.679882 
L 127.839571 154.112663 
L 129.059466 150.397502 
L 129.669413 149.987843 
L 130.889307 151.916663 
L 132.719149 150.703434 
L 133.329096 151.622999 
L 133.939043 151.229306 
L 134.54899 152.126125 
L 135.158937 151.735136 
L 135.768884 150.092743 
L 136.378832 150.975048 
L 137.598726 150.242876 
L 138.208673 151.099751 
L 139.428567 150.384956 
L 140.038515 152.398614 
L 140.648462 152.036097 
L 141.258409 152.840125 
L 141.868356 151.329812 
L 143.698198 153.678629 
L 144.308145 152.211659 
L 144.918092 151.871649 
L 145.528039 152.630901 
L 146.137986 152.293018 
L 146.747933 153.036623 
L 147.357881 151.633477 
L 147.967828 153.429461 
L 148.577775 152.045322 
L 149.187722 151.725195 
L 149.797669 153.47873 
L 151.017564 150.794197 
L 151.627511 152.514907 
L 153.457352 151.59393 
L 154.067299 149.333789 
L 154.677247 149.0545 
L 155.287194 147.812362 
L 155.897141 149.467897 
L 156.507088 148.240551 
L 157.726982 151.47561 
L 158.33693 150.259995 
L 158.946877 150.914427 
L 159.556824 152.480053 
L 160.166771 152.196429 
L 161.386665 149.837592 
L 164.436401 152.931127 
L 165.656296 150.669335 
L 166.266243 152.126125 
L 167.486137 149.917479 
L 168.096084 149.673163 
L 168.706031 151.099751 
L 171.14582 153.377807 
L 171.755767 150.695421 
L 172.365714 152.06431 
L 172.975662 152.617819 
L 174.195556 152.126125 
L 174.805503 152.669513 
L 175.41545 152.426251 
L 176.025397 151.410057 
L 177.245292 152.480053 
L 177.855239 151.480978 
L 178.465186 152.009494 
L 179.075133 149.516688 
L 179.68508 147.801506 
L 182.734816 150.44355 
L 183.344763 150.229555 
L 183.954711 150.739143 
L 185.174605 153.168981 
L 185.784552 153.65477 
L 186.394499 152.723494 
L 187.004446 151.099751 
L 188.224341 150.682796 
L 188.834288 151.168883 
L 190.664129 150.55515 
L 191.274077 151.709328 
L 191.884024 150.830205 
L 192.493971 150.630405 
L 193.103918 149.765458 
L 193.713865 149.572956 
L 194.323812 150.042898 
L 194.93376 149.850913 
L 195.543707 150.314871 
L 196.153654 149.472569 
L 196.763601 149.933862 
L 197.373548 149.101542 
L 197.983495 148.918703 
L 198.593443 147.46078 
L 199.20339 147.287504 
L 199.813337 144.586389 
L 201.033231 143.018835 
L 202.253126 145.204059 
L 202.863073 144.428304 
L 203.47302 144.274572 
L 204.082967 144.734335 
L 204.692914 145.799141 
L 205.302861 144.428304 
L 205.912809 144.277356 
L 206.522756 144.728808 
L 207.132703 143.979556 
L 207.74265 143.832625 
L 208.962544 144.723499 
L 209.572492 144.575255 
L 210.182439 145.013525 
L 210.792386 144.282645 
L 212.622227 143.853183 
L 213.232175 143.139819 
L 213.842122 143.572979 
L 214.452069 143.434677 
L 215.062016 144.428304 
L 215.671963 144.287556 
L 216.28191 145.269233 
L 216.891858 144.567879 
L 217.501805 145.540212 
L 218.111752 144.843529 
L 218.721699 145.255335 
L 219.331646 145.114667 
L 219.941593 145.521979 
L 220.551541 146.470573 
L 222.381382 147.656424 
L 222.991329 146.973639 
L 223.601276 146.830028 
L 224.211224 145.624374 
L 226.041065 146.792192 
L 226.651012 147.698614 
L 227.260959 148.076759 
L 227.870907 147.93275 
L 228.480854 147.272712 
L 229.090801 147.132938 
L 229.700748 146.481051 
L 230.310695 146.345393 
L 231.53059 145.062475 
L 232.750484 144.805932 
L 233.970378 145.552698 
L 234.580325 145.424038 
L 235.190273 145.792361 
L 235.80022 145.663761 
L 236.410167 146.028466 
L 237.020114 145.899945 
L 238.240008 146.619651 
L 238.849956 146.490376 
L 240.06985 145.271261 
L 241.289744 145.02609 
L 241.899691 144.428304 
L 242.509639 145.259272 
L 244.33948 142.079188 
L 245.559374 142.795435 
L 246.779269 141.648534 
L 247.389216 142.00441 
L 248.60911 141.791807 
L 249.219057 140.77271 
L 250.438952 139.66297 
L 251.048899 139.566062 
L 251.658846 140.371343 
L 252.268793 140.721931 
L 252.87874 141.517926 
L 253.488688 141.416108 
L 254.708582 139.44134 
L 255.318529 140.231032 
L 256.538423 139.161355 
L 257.148371 139.069259 
L 257.758318 139.413802 
L 258.368265 138.886857 
L 259.588159 138.706821 
L 260.198106 139.048104 
L 260.808054 138.529112 
L 261.418001 138.441092 
L 262.027948 137.501068 
L 263.247842 137.33326 
L 263.857789 137.672395 
L 264.467737 137.167559 
L 265.077684 137.505084 
L 265.687631 137.003946 
L 266.907525 136.842381 
L 267.517472 137.176725 
L 268.12742 136.682804 
L 268.737367 135.78012 
L 269.347314 135.704089 
L 269.957261 136.037817 
L 270.567208 135.55344 
L 271.177155 136.292372 
L 273.006997 136.063783 
L 273.616944 135.586623 
L 274.226891 135.91369 
L 274.836838 135.83931 
L 276.056733 136.486087 
L 276.66668 136.410673 
L 277.276627 137.125229 
L 278.496521 136.971975 
L 279.106469 137.678579 
L 279.716416 137.210644 
L 280.326363 137.134435 
L 280.93631 137.44655 
L 282.156204 137.294091 
L 283.376099 138.677037 
L 286.425835 140.175958 
L 287.035782 139.339899 
L 287.645729 139.26027 
L 288.255676 139.930687 
L 290.085518 140.804522 
L 291.305412 140.639796 
L 291.915359 139.820936 
L 292.525306 139.374177 
L 294.355148 140.235864 
L 294.965095 140.156393 
L 295.575042 140.802514 
L 296.184989 141.083533 
L 296.794936 141.002413 
L 297.404884 141.281384 
L 298.014831 141.200184 
L 298.624778 141.834833 
L 299.844672 142.382396 
L 300.454619 141.589383 
L 301.674514 141.427918 
L 302.284461 142.05193 
L 302.894408 141.970391 
L 304.114302 141.110037 
L 304.72425 141.379981 
L 305.334197 141.996 
L 305.944144 141.222532 
L 306.554091 141.835767 
L 307.164038 141.756277 
L 307.773985 142.021072 
L 308.383933 142.627527 
L 308.99388 142.888724 
L 310.213774 142.045647 
L 310.823721 141.287786 
L 311.433668 141.888416 
L 312.043616 141.13479 
L 313.26351 141.655532 
L 315.093351 143.427579 
L 316.313246 143.26661 
L 316.923193 143.517805 
L 318.143087 142.698667 
L 318.753034 142.949405 
L 319.362982 143.526752 
L 319.972929 143.120176 
L 320.582876 143.36805 
L 321.192823 142.638403 
L 321.80277 143.210879 
L 323.022665 143.055239 
L 323.632612 143.300271 
L 324.852506 143.145327 
L 325.462453 142.748433 
L 326.0724 142.672661 
L 326.682348 143.234122 
L 327.902242 143.081325 
L 328.512189 142.689302 
L 329.732083 142.540144 
L 330.342031 142.152157 
L 330.951978 142.079188 
L 331.561925 141.694104 
L 332.781819 141.551328 
L 334.001714 142.029045 
L 335.221608 141.269753 
L 336.441502 139.903985 
L 337.051449 139.837856 
L 337.661397 140.382676 
L 338.271344 140.620391 
L 338.881291 141.160956 
L 340.101185 141.024502 
L 340.711132 141.258599 
L 341.931027 141.122622 
L 342.540974 141.354929 
L 343.150921 141.287031 
L 343.760868 141.816441 
L 344.370815 142.045647 
L 344.980763 141.679491 
L 345.59071 141.90798 
L 346.810604 141.181136 
L 347.420551 141.409208 
L 348.030498 141.342383 
L 348.640446 141.569103 
L 349.250393 141.502219 
L 349.86034 141.727606 
L 350.470287 142.243318 
L 351.690181 141.527668 
L 352.300129 141.461599 
L 352.910076 141.684621 
L 354.739917 141.487128 
L 355.349865 141.708181 
L 355.959812 141.356858 
L 356.569759 141.86235 
L 357.179706 142.081197 
L 357.789653 141.731324 
L 359.009548 141.601412 
L 360.229442 140.909601 
L 360.839389 141.127692 
L 362.059283 141.001657 
L 362.669231 141.497328 
L 363.279178 141.155249 
L 363.889125 141.370557 
L 366.328914 140.017415 
L 366.938861 139.957747 
L 367.548808 139.074667 
L 368.158755 139.291147 
L 368.768702 138.959885 
L 369.988597 139.390679 
L 370.598544 139.061246 
L 371.818438 139.488978 
L 372.428385 139.971665 
L 373.038332 140.182837 
L 374.258227 141.139562 
L 374.868174 141.079179 
L 376.088068 141.492854 
L 376.088068 141.492854 
" clip-path="url(#p469350dd24)" style="fill: none; stroke: #9467bd; stroke-width: 1.5; stroke-linecap: square"/>
   </g>
   <g id="line2d_20">
    <path d="M 71.724432 244.500108 
L 72.944326 244.500108 
L 73.554273 177.785562 
L 74.16422 164.442667 
L 74.774168 155.547383 
L 75.384115 149.193618 
L 75.994062 161.106943 
L 76.604009 155.547383 
L 77.213956 151.099751 
L 77.823903 171.72061 
L 79.043798 182.917449 
L 79.653745 168.254914 
L 80.263692 173.33793 
L 80.873639 169.446252 
L 82.093534 192.611015 
L 83.313428 211.14284 
L 83.923375 200.023741 
L 84.533322 202.045412 
L 85.143269 180.686197 
L 85.753217 177.785562 
L 86.973111 182.917449 
L 87.583058 185.198288 
L 88.193005 182.550896 
L 89.4129 186.680845 
L 90.632794 181.955237 
L 91.242741 183.850534 
L 92.462635 179.691696 
L 93.072583 166.666483 
L 93.68253 161.557718 
L 94.902424 165.811158 
L 95.512371 164.442667 
L 97.342213 170.028073 
L 97.95216 165.655657 
L 98.562107 170.372836 
L 99.172054 163.282404 
L 99.782002 165.010451 
L 100.391949 163.886713 
L 102.22179 168.628665 
L 102.831737 170.087741 
L 103.441685 168.974222 
L 105.271526 173.020248 
L 105.881473 167.251704 
L 106.49142 170.884074 
L 107.711315 168.890298 
L 108.321262 172.317164 
L 108.931209 173.481402 
L 109.541156 172.490758 
L 110.761051 174.706441 
L 111.370998 167.677308 
L 113.810786 164.442667 
L 115.030681 155.547383 
L 116.250575 157.951513 
L 116.860522 153.768338 
L 117.470469 154.962182 
L 118.080417 154.392151 
L 118.690364 155.547383 
L 119.300311 158.362345 
L 120.520205 153.90012 
L 121.130152 155.004989 
L 121.7401 154.475678 
L 122.350047 155.547383 
L 122.959994 153.454394 
L 123.569941 152.961547 
L 124.179888 150.946378 
L 124.789835 152.009494 
L 126.619677 159.457393 
L 127.229624 158.931461 
L 127.839571 159.851563 
L 128.449518 159.33261 
L 130.889307 162.808844 
L 131.499254 160.938459 
L 132.109201 160.439786 
L 132.719149 161.272067 
L 133.329096 159.471768 
L 136.988779 156.782841 
L 137.598726 158.811709 
L 140.038515 161.844921 
L 140.648462 161.399533 
L 141.868356 165.132807 
L 142.478303 163.530319 
L 143.08825 165.34726 
L 143.698198 163.769903 
L 145.528039 162.474042 
L 146.137986 163.140921 
L 147.357881 162.307805 
L 147.967828 162.960109 
L 148.577775 164.652785 
L 149.187722 161.106943 
L 149.797669 162.787728 
L 150.407616 163.416293 
L 151.627511 166.666483 
L 153.457352 168.396119 
L 154.067299 169.936793 
L 154.677247 170.481056 
L 155.897141 173.465914 
L 156.507088 172.067181 
L 157.117035 171.634578 
L 158.946877 173.152625 
L 159.556824 172.724476 
L 160.166771 171.388294 
L 161.386665 170.573192 
L 162.60656 171.558885 
L 163.216507 171.158293 
L 165.046348 172.587029 
L 165.656296 172.190154 
L 166.266243 173.508999 
L 168.706031 175.283769 
L 169.315979 174.056185 
L 169.925926 172.020119 
L 171.14582 171.276833 
L 171.755767 171.72061 
L 172.365714 171.355249 
L 172.975662 171.79324 
L 173.585609 173.020248 
L 174.195556 172.653675 
L 174.805503 171.506555 
L 176.025397 172.355318 
L 176.635345 173.543614 
L 177.245292 172.417729 
L 177.855239 172.067181 
L 178.465186 172.478729 
L 179.075133 172.131799 
L 180.295028 172.94038 
L 180.904975 172.596652 
L 182.124869 170.454294 
L 182.734816 170.858923 
L 183.344763 169.808829 
L 183.954711 169.491326 
L 184.564658 169.894602 
L 185.784552 172.107741 
L 186.394499 172.490758 
L 187.614394 170.450457 
L 188.224341 171.53109 
L 188.834288 171.217821 
L 190.054182 171.969439 
L 191.274077 169.99656 
L 192.493971 170.745334 
L 193.103918 171.781271 
L 193.713865 172.143053 
L 194.323812 170.519628 
L 194.93376 170.884074 
L 195.543707 169.936793 
L 196.153654 170.300523 
L 196.763601 169.365291 
L 197.373548 169.728266 
L 197.983495 168.804764 
L 198.593443 169.166943 
L 199.20339 168.890298 
L 200.423284 170.862362 
L 201.033231 170.581661 
L 201.643178 170.92706 
L 202.253126 170.648665 
L 202.863073 171.608293 
L 203.47302 171.944208 
L 204.692914 171.388294 
L 206.522756 172.376274 
L 207.132703 173.298046 
L 207.74265 172.424589 
L 208.352597 170.965871 
L 208.962544 171.291227 
L 209.572492 172.201527 
L 210.792386 171.667643 
L 212.622227 172.609436 
L 213.232175 171.772662 
L 213.842122 171.513255 
L 214.452069 171.823839 
L 215.062016 171.001043 
L 215.671963 171.31117 
L 216.28191 170.497419 
L 216.891858 171.365349 
L 217.501805 170.55816 
L 219.941593 171.770316 
L 221.771435 171.033093 
L 222.381382 170.253282 
L 222.991329 170.55146 
L 223.601276 169.779821 
L 224.211224 169.545923 
L 225.431118 170.138441 
L 226.041065 170.956526 
L 226.651012 170.721674 
L 229.090801 171.861119 
L 230.310695 170.372836 
L 232.140537 171.215197 
L 232.750484 170.988238 
L 233.360431 171.264605 
L 234.580325 169.819645 
L 235.190273 170.593293 
L 236.410167 169.169309 
L 237.630061 168.743665 
L 238.240008 169.020151 
L 238.849956 168.809436 
L 239.459903 169.083675 
L 240.06985 168.39254 
L 241.289744 167.981649 
L 241.899691 167.301847 
L 242.509639 167.10175 
L 243.729533 167.648737 
L 244.33948 167.449514 
L 245.559374 167.98833 
L 246.169322 167.790002 
L 246.779269 168.519669 
L 247.389216 168.782575 
L 247.999163 168.123471 
L 248.60911 167.92741 
L 249.219057 168.18964 
L 249.829005 167.083915 
L 250.438952 166.439564 
L 251.658846 166.966986 
L 252.268793 165.880289 
L 252.87874 165.248603 
L 254.708582 166.038494 
L 255.318529 165.85647 
L 255.928476 166.556393 
L 256.538423 165.496041 
L 257.148371 165.317615 
L 257.758318 165.576366 
L 258.978212 166.955295 
L 260.808054 167.703314 
L 261.418001 166.666483 
L 262.027948 166.488852 
L 262.637895 167.162232 
L 263.247842 165.713416 
L 264.467737 165.368673 
L 265.077684 164.358743 
L 266.297578 164.859622 
L 266.907525 164.276389 
L 267.517472 164.525537 
L 268.12742 163.946957 
L 269.347314 164.442667 
L 270.567208 164.116236 
L 271.177155 163.547716 
L 271.787103 163.388199 
L 272.39705 163.634006 
L 273.006997 164.28142 
L 273.616944 164.121147 
L 274.226891 164.763212 
L 275.446786 163.646075 
L 276.056733 163.4896 
L 276.66668 162.938119 
L 279.716416 164.130551 
L 280.326363 164.753867 
L 280.93631 164.985697 
L 281.546257 165.602909 
L 282.156204 164.674039 
L 283.376099 164.36598 
L 283.986046 164.977903 
L 284.595993 164.442667 
L 285.20594 164.670739 
L 287.645729 164.066808 
L 288.255676 163.543143 
L 288.865623 163.769903 
L 290.695465 163.330759 
L 291.305412 163.55559 
L 291.915359 164.14779 
L 292.525306 164.001574 
L 293.745201 162.980429 
L 296.184989 162.417715 
L 296.794936 163.000193 
L 298.624778 162.582521 
L 299.234725 162.088024 
L 299.844672 162.663602 
L 300.454619 162.881256 
L 301.064567 163.451684 
L 301.674514 163.666097 
L 302.284461 163.527317 
L 302.894408 163.740397 
L 303.504355 163.251964 
L 305.334197 162.844294 
L 307.773985 163.686098 
L 308.383933 162.864833 
L 308.99388 162.732037 
L 310.823721 163.356208 
L 311.433668 162.884854 
L 313.873457 162.364112 
L 314.483404 161.566745 
L 316.313246 162.185647 
L 316.923193 162.058817 
L 317.53314 162.593158 
L 318.143087 162.46593 
L 318.753034 161.682063 
L 319.362982 161.557718 
L 319.972929 161.760997 
L 320.582876 162.289533 
L 321.192823 162.164611 
L 321.80277 161.715645 
L 322.412717 161.916577 
L 323.022665 162.439606 
L 323.632612 161.993244 
L 325.462453 162.586816 
L 326.0724 163.101991 
L 326.682348 162.977805 
L 327.292295 163.171918 
L 327.902242 162.414296 
L 328.512189 162.292615 
L 329.122136 162.802402 
L 330.342031 161.931052 
L 331.561925 160.442908 
L 333.391766 161.029361 
L 334.001714 160.603876 
L 335.221608 160.991386 
L 335.831555 161.491231 
L 336.441502 161.068589 
L 337.661397 160.839762 
L 338.271344 160.421514 
L 338.881291 160.916966 
L 340.101185 160.690922 
L 340.711132 160.880521 
L 341.32108 160.768086 
L 341.931027 160.956671 
L 343.150921 160.732973 
L 343.760868 160.323374 
L 346.200657 159.886556 
L 346.810604 160.368945 
L 347.420551 159.965569 
L 348.030498 160.445671 
L 348.640446 160.630399 
L 349.250393 160.229111 
L 350.470287 160.597116 
L 351.080234 160.489214 
L 351.690181 159.801658 
L 353.520023 159.485904 
L 354.739917 160.425451 
L 356.569759 159.253756 
L 357.789653 159.616512 
L 359.009548 158.84543 
L 359.619495 159.026519 
L 360.229442 159.48833 
L 360.839389 159.667312 
L 362.669231 159.362315 
L 363.279178 159.540044 
L 363.889125 159.995035 
L 366.328914 160.693407 
L 366.938861 161.14132 
L 367.548808 161.312846 
L 368.158755 161.209676 
L 368.768702 160.833519 
L 369.988597 160.630399 
L 370.598544 160.80121 
L 371.208491 160.42895 
L 371.818438 160.870123 
L 372.428385 160.769318 
L 373.038332 160.938459 
L 373.64828 160.299913 
L 374.868174 159.566329 
L 375.478121 159.469143 
L 376.088068 159.639218 
L 376.088068 159.639218 
" clip-path="url(#p469350dd24)" style="fill: none; stroke: #8c564b; stroke-width: 1.5; stroke-linecap: square"/>
   </g>
   <g id="line2d_21">
    <path d="M 56.50625 155.102626 
L 391.30625 155.102626 
" clip-path="url(#p469350dd24)" style="fill: none; stroke-dasharray: 5.55,2.4; stroke-dashoffset: 0; stroke: #000000; stroke-width: 1.5"/>
   </g>
   <g id="patch_3">
    <path d="M 56.50625 255.619199 
L 56.50625 10.999199 
" style="fill: none; stroke: #000000; stroke-width: 0.8; stroke-linejoin: miter; stroke-linecap: square"/>
   </g>
   <g id="patch_4">
    <path d="M 391.30625 255.619199 
L 391.30625 10.999199 
" style="fill: none; stroke: #000000; stroke-width: 0.8; stroke-linejoin: miter; stroke-linecap: square"/>
   </g>
   <g id="patch_5">
    <path d="M 56.50625 255.619199 
L 391.30625 255.619199 
" style="fill: none; stroke: #000000; stroke-width: 0.8; stroke-linejoin: miter; stroke-linecap: square"/>
   </g>
   <g id="patch_6">
    <path d="M 56.50625 10.999199 
L 391.30625 10.999199 
" style="fill: none; stroke: #000000; stroke-width: 0.8; stroke-linejoin: miter; stroke-linecap: square"/>
   </g>
   <g id="legend_1">
    <g id="patch_7">
     <path d="M 308.451563 107.067949 
L 384.30625 107.067949 
Q 386.30625 107.067949 386.30625 105.067949 
L 386.30625 17.999199 
Q 386.30625 15.999199 384.30625 15.999199 
L 308.451563 15.999199 
Q 306.451563 15.999199 306.451563 17.999199 
L 306.451563 105.067949 
Q 306.451563 107.067949 308.451563 107.067949 
z
" style="fill: #ffffff; opacity: 0.8; stroke: #cccccc; stroke-linejoin: miter"/>
    </g>
    <g id="line2d_22">
     <path d="M 310.451563 24.097637 
L 320.451563 24.097637 
L 330.451563 24.097637 
" style="fill: none; stroke: #1f77b4; stroke-width: 1.5; stroke-linecap: square"/>
    </g>
    <g id="text_17">
     <!-- P(die=1) -->
     <g transform="translate(338.451563 27.597637)scale(0.1 -0.1)">
      <defs>
       <path id="DejaVuSans-50" d="M 1259 4147 
L 1259 2394 
L 2053 2394 
Q 2494 2394 2734 2622 
Q 2975 2850 2975 3272 
Q 2975 3691 2734 3919 
Q 2494 4147 2053 4147 
L 1259 4147 
z
M 628 4666 
L 2053 4666 
Q 2838 4666 3239 4311 
Q 3641 3956 3641 3272 
Q 3641 2581 3239 2228 
Q 2838 1875 2053 1875 
L 1259 1875 
L 1259 0 
L 628 0 
L 628 4666 
z
" transform="scale(0.015625)"/>
       <path id="DejaVuSans-28" d="M 1984 4856 
Q 1566 4138 1362 3434 
Q 1159 2731 1159 2009 
Q 1159 1288 1364 580 
Q 1569 -128 1984 -844 
L 1484 -844 
Q 1016 -109 783 600 
Q 550 1309 550 2009 
Q 550 2706 781 3412 
Q 1013 4119 1484 4856 
L 1984 4856 
z
" transform="scale(0.015625)"/>
       <path id="DejaVuSans-3d" d="M 678 2906 
L 4684 2906 
L 4684 2381 
L 678 2381 
L 678 2906 
z
M 678 1631 
L 4684 1631 
L 4684 1100 
L 678 1100 
L 678 1631 
z
" transform="scale(0.015625)"/>
       <path id="DejaVuSans-29" d="M 513 4856 
L 1013 4856 
Q 1481 4119 1714 3412 
Q 1947 2706 1947 2009 
Q 1947 1309 1714 600 
Q 1481 -109 1013 -844 
L 513 -844 
Q 928 -128 1133 580 
Q 1338 1288 1338 2009 
Q 1338 2731 1133 3434 
Q 928 4138 513 4856 
z
" transform="scale(0.015625)"/>
      </defs>
      <use xlink:href="#DejaVuSans-50"/>
      <use xlink:href="#DejaVuSans-28" x="60.302734"/>
      <use xlink:href="#DejaVuSans-64" x="99.316406"/>
      <use xlink:href="#DejaVuSans-69" x="162.792969"/>
      <use xlink:href="#DejaVuSans-65" x="190.576172"/>
      <use xlink:href="#DejaVuSans-3d" x="252.099609"/>
      <use xlink:href="#DejaVuSans-31" x="335.888672"/>
      <use xlink:href="#DejaVuSans-29" x="399.511719"/>
     </g>
    </g>
    <g id="line2d_23">
     <path d="M 310.451563 38.775762 
L 320.451563 38.775762 
L 330.451563 38.775762 
" style="fill: none; stroke: #ff7f0e; stroke-width: 1.5; stroke-linecap: square"/>
    </g>
    <g id="text_18">
     <!-- P(die=2) -->
     <g transform="translate(338.451563 42.275762)scale(0.1 -0.1)">
      <use xlink:href="#DejaVuSans-50"/>
      <use xlink:href="#DejaVuSans-28" x="60.302734"/>
      <use xlink:href="#DejaVuSans-64" x="99.316406"/>
      <use xlink:href="#DejaVuSans-69" x="162.792969"/>
      <use xlink:href="#DejaVuSans-65" x="190.576172"/>
      <use xlink:href="#DejaVuSans-3d" x="252.099609"/>
      <use xlink:href="#DejaVuSans-32" x="335.888672"/>
      <use xlink:href="#DejaVuSans-29" x="399.511719"/>
     </g>
    </g>
    <g id="line2d_24">
     <path d="M 310.451563 53.453887 
L 320.451563 53.453887 
L 330.451563 53.453887 
" style="fill: none; stroke: #2ca02c; stroke-width: 1.5; stroke-linecap: square"/>
    </g>
    <g id="text_19">
     <!-- P(die=3) -->
     <g transform="translate(338.451563 56.953887)scale(0.1 -0.1)">
      <use xlink:href="#DejaVuSans-50"/>
      <use xlink:href="#DejaVuSans-28" x="60.302734"/>
      <use xlink:href="#DejaVuSans-64" x="99.316406"/>
      <use xlink:href="#DejaVuSans-69" x="162.792969"/>
      <use xlink:href="#DejaVuSans-65" x="190.576172"/>
      <use xlink:href="#DejaVuSans-3d" x="252.099609"/>
      <use xlink:href="#DejaVuSans-33" x="335.888672"/>
      <use xlink:href="#DejaVuSans-29" x="399.511719"/>
     </g>
    </g>
    <g id="line2d_25">
     <path d="M 310.451563 68.132012 
L 320.451563 68.132012 
L 330.451563 68.132012 
" style="fill: none; stroke: #d62728; stroke-width: 1.5; stroke-linecap: square"/>
    </g>
    <g id="text_20">
     <!-- P(die=4) -->
     <g transform="translate(338.451563 71.632012)scale(0.1 -0.1)">
      <use xlink:href="#DejaVuSans-50"/>
      <use xlink:href="#DejaVuSans-28" x="60.302734"/>
      <use xlink:href="#DejaVuSans-64" x="99.316406"/>
      <use xlink:href="#DejaVuSans-69" x="162.792969"/>
      <use xlink:href="#DejaVuSans-65" x="190.576172"/>
      <use xlink:href="#DejaVuSans-3d" x="252.099609"/>
      <use xlink:href="#DejaVuSans-34" x="335.888672"/>
      <use xlink:href="#DejaVuSans-29" x="399.511719"/>
     </g>
    </g>
    <g id="line2d_26">
     <path d="M 310.451563 82.810137 
L 320.451563 82.810137 
L 330.451563 82.810137 
" style="fill: none; stroke: #9467bd; stroke-width: 1.5; stroke-linecap: square"/>
    </g>
    <g id="text_21">
     <!-- P(die=5) -->
     <g transform="translate(338.451563 86.310137)scale(0.1 -0.1)">
      <use xlink:href="#DejaVuSans-50"/>
      <use xlink:href="#DejaVuSans-28" x="60.302734"/>
      <use xlink:href="#DejaVuSans-64" x="99.316406"/>
      <use xlink:href="#DejaVuSans-69" x="162.792969"/>
      <use xlink:href="#DejaVuSans-65" x="190.576172"/>
      <use xlink:href="#DejaVuSans-3d" x="252.099609"/>
      <use xlink:href="#DejaVuSans-35" x="335.888672"/>
      <use xlink:href="#DejaVuSans-29" x="399.511719"/>
     </g>
    </g>
    <g id="line2d_27">
     <path d="M 310.451563 97.488262 
L 320.451563 97.488262 
L 330.451563 97.488262 
" style="fill: none; stroke: #8c564b; stroke-width: 1.5; stroke-linecap: square"/>
    </g>
    <g id="text_22">
     <!-- P(die=6) -->
     <g transform="translate(338.451563 100.988262)scale(0.1 -0.1)">
      <defs>
       <path id="DejaVuSans-36" d="M 2113 2584 
Q 1688 2584 1439 2293 
Q 1191 2003 1191 1497 
Q 1191 994 1439 701 
Q 1688 409 2113 409 
Q 2538 409 2786 701 
Q 3034 994 3034 1497 
Q 3034 2003 2786 2293 
Q 2538 2584 2113 2584 
z
M 3366 4563 
L 3366 3988 
Q 3128 4100 2886 4159 
Q 2644 4219 2406 4219 
Q 1781 4219 1451 3797 
Q 1122 3375 1075 2522 
Q 1259 2794 1537 2939 
Q 1816 3084 2150 3084 
Q 2853 3084 3261 2657 
Q 3669 2231 3669 1497 
Q 3669 778 3244 343 
Q 2819 -91 2113 -91 
Q 1303 -91 875 529 
Q 447 1150 447 2328 
Q 447 3434 972 4092 
Q 1497 4750 2381 4750 
Q 2619 4750 2861 4703 
Q 3103 4656 3366 4563 
z
" transform="scale(0.015625)"/>
      </defs>
      <use xlink:href="#DejaVuSans-50"/>
      <use xlink:href="#DejaVuSans-28" x="60.302734"/>
      <use xlink:href="#DejaVuSans-64" x="99.316406"/>
      <use xlink:href="#DejaVuSans-69" x="162.792969"/>
      <use xlink:href="#DejaVuSans-65" x="190.576172"/>
      <use xlink:href="#DejaVuSans-3d" x="252.099609"/>
      <use xlink:href="#DejaVuSans-36" x="335.888672"/>
      <use xlink:href="#DejaVuSans-29" x="399.511719"/>
     </g>
    </g>
   </g>
  </g>
 </g>
 <defs>
  <clipPath id="p469350dd24">
   <rect x="56.50625" y="10.999199" width="334.8" height="244.62"/>
  </clipPath>
 </defs>
</svg>
