<?xml version="1.0" encoding="utf-8" standalone="no"?>
<!DOCTYPE svg PUBLIC "-//W3C//DTD SVG 1.1//EN"
  "http://www.w3.org/Graphics/SVG/1.1/DTD/svg11.dtd">
<svg xmlns:xlink="http://www.w3.org/1999/xlink" width="406.885938pt" height="208.057659pt" viewBox="0 0 406.885938 208.057659" xmlns="http://www.w3.org/2000/svg" version="1.1">
 <metadata>
  <rdf:RDF xmlns:dc="http://purl.org/dc/elements/1.1/" xmlns:cc="http://creativecommons.org/ns#" xmlns:rdf="http://www.w3.org/1999/02/22-rdf-syntax-ns#">
   <cc:Work>
    <dc:type rdf:resource="http://purl.org/dc/dcmitype/StillImage"/>
    <dc:date>2023-08-18T07:00:33.652151</dc:date>
    <dc:format>image/svg+xml</dc:format>
    <dc:creator>
     <cc:Agent>
      <dc:title>Matplotlib v3.5.1, https://matplotlib.org/</dc:title>
     </cc:Agent>
    </dc:creator>
   </cc:Work>
  </rdf:RDF>
 </metadata>
 <defs>
  <style type="text/css">*{stroke-linejoin: round; stroke-linecap: butt}</style>
 </defs>
 <g id="figure_1">
  <g id="patch_1">
   <path d="M 0 208.057659 
L 406.885938 208.057659 
L 406.885938 0 
L 0 0 
L 0 208.057659 
z
" style="fill: none"/>
  </g>
  <g id="axes_1">
   <g id="patch_2">
    <path d="M 52.160938 170.501409 
L 386.960938 170.501409 
L 386.960938 7.421409 
L 52.160938 7.421409 
z
" style="fill: #ffffff"/>
   </g>
   <g id="matplotlib.axis_1">
    <g id="xtick_1">
     <g id="line2d_1">
      <path d="M 118.852829 170.501409 
L 118.852829 7.421409 
" clip-path="url(#p6ab48af28d)" style="fill: none; stroke: #b0b0b0; stroke-width: 0.8; stroke-linecap: square"/>
     </g>
     <g id="line2d_2">
      <defs>
       <path id="m6b44dd81a8" d="M 0 0 
L 0 3.5 
" style="stroke: #000000; stroke-width: 0.8"/>
      </defs>
      <g>
       <use xlink:href="#m6b44dd81a8" x="118.852829" y="170.501409" style="stroke: #000000; stroke-width: 0.8"/>
      </g>
     </g>
     <g id="text_1">
      <!-- 200 -->
      <g transform="translate(109.309079 185.099847)scale(0.1 -0.1)">
       <defs>
        <path id="DejaVuSans-32" d="M 1228 531 
L 3431 531 
L 3431 0 
L 469 0 
L 469 531 
Q 828 903 1448 1529 
Q 2069 2156 2228 2338 
Q 2531 2678 2651 2914 
Q 2772 3150 2772 3378 
Q 2772 3750 2511 3984 
Q 2250 4219 1831 4219 
Q 1534 4219 1204 4116 
Q 875 4013 500 3803 
L 500 4441 
Q 881 4594 1212 4672 
Q 1544 4750 1819 4750 
Q 2544 4750 2975 4387 
Q 3406 4025 3406 3419 
Q 3406 3131 3298 2873 
Q 3191 2616 2906 2266 
Q 2828 2175 2409 1742 
Q 1991 1309 1228 531 
z
" transform="scale(0.015625)"/>
        <path id="DejaVuSans-30" d="M 2034 4250 
Q 1547 4250 1301 3770 
Q 1056 3291 1056 2328 
Q 1056 1369 1301 889 
Q 1547 409 2034 409 
Q 2525 409 2770 889 
Q 3016 1369 3016 2328 
Q 3016 3291 2770 3770 
Q 2525 4250 2034 4250 
z
M 2034 4750 
Q 2819 4750 3233 4129 
Q 3647 3509 3647 2328 
Q 3647 1150 3233 529 
Q 2819 -91 2034 -91 
Q 1250 -91 836 529 
Q 422 1150 422 2328 
Q 422 3509 836 4129 
Q 1250 4750 2034 4750 
z
" transform="scale(0.015625)"/>
       </defs>
       <use xlink:href="#DejaVuSans-32"/>
       <use xlink:href="#DejaVuSans-30" x="63.623047"/>
       <use xlink:href="#DejaVuSans-30" x="127.246094"/>
      </g>
     </g>
    </g>
    <g id="xtick_2">
     <g id="line2d_3">
      <path d="M 185.879856 170.501409 
L 185.879856 7.421409 
" clip-path="url(#p6ab48af28d)" style="fill: none; stroke: #b0b0b0; stroke-width: 0.8; stroke-linecap: square"/>
     </g>
     <g id="line2d_4">
      <g>
       <use xlink:href="#m6b44dd81a8" x="185.879856" y="170.501409" style="stroke: #000000; stroke-width: 0.8"/>
      </g>
     </g>
     <g id="text_2">
      <!-- 400 -->
      <g transform="translate(176.336106 185.099847)scale(0.1 -0.1)">
       <defs>
        <path id="DejaVuSans-34" d="M 2419 4116 
L 825 1625 
L 2419 1625 
L 2419 4116 
z
M 2253 4666 
L 3047 4666 
L 3047 1625 
L 3713 1625 
L 3713 1100 
L 3047 1100 
L 3047 0 
L 2419 0 
L 2419 1100 
L 313 1100 
L 313 1709 
L 2253 4666 
z
" transform="scale(0.015625)"/>
       </defs>
       <use xlink:href="#DejaVuSans-34"/>
       <use xlink:href="#DejaVuSans-30" x="63.623047"/>
       <use xlink:href="#DejaVuSans-30" x="127.246094"/>
      </g>
     </g>
    </g>
    <g id="xtick_3">
     <g id="line2d_5">
      <path d="M 252.906883 170.501409 
L 252.906883 7.421409 
" clip-path="url(#p6ab48af28d)" style="fill: none; stroke: #b0b0b0; stroke-width: 0.8; stroke-linecap: square"/>
     </g>
     <g id="line2d_6">
      <g>
       <use xlink:href="#m6b44dd81a8" x="252.906883" y="170.501409" style="stroke: #000000; stroke-width: 0.8"/>
      </g>
     </g>
     <g id="text_3">
      <!-- 600 -->
      <g transform="translate(243.363133 185.099847)scale(0.1 -0.1)">
       <defs>
        <path id="DejaVuSans-36" d="M 2113 2584 
Q 1688 2584 1439 2293 
Q 1191 2003 1191 1497 
Q 1191 994 1439 701 
Q 1688 409 2113 409 
Q 2538 409 2786 701 
Q 3034 994 3034 1497 
Q 3034 2003 2786 2293 
Q 2538 2584 2113 2584 
z
M 3366 4563 
L 3366 3988 
Q 3128 4100 2886 4159 
Q 2644 4219 2406 4219 
Q 1781 4219 1451 3797 
Q 1122 3375 1075 2522 
Q 1259 2794 1537 2939 
Q 1816 3084 2150 3084 
Q 2853 3084 3261 2657 
Q 3669 2231 3669 1497 
Q 3669 778 3244 343 
Q 2819 -91 2113 -91 
Q 1303 -91 875 529 
Q 447 1150 447 2328 
Q 447 3434 972 4092 
Q 1497 4750 2381 4750 
Q 2619 4750 2861 4703 
Q 3103 4656 3366 4563 
z
" transform="scale(0.015625)"/>
       </defs>
       <use xlink:href="#DejaVuSans-36"/>
       <use xlink:href="#DejaVuSans-30" x="63.623047"/>
       <use xlink:href="#DejaVuSans-30" x="127.246094"/>
      </g>
     </g>
    </g>
    <g id="xtick_4">
     <g id="line2d_7">
      <path d="M 319.93391 170.501409 
L 319.93391 7.421409 
" clip-path="url(#p6ab48af28d)" style="fill: none; stroke: #b0b0b0; stroke-width: 0.8; stroke-linecap: square"/>
     </g>
     <g id="line2d_8">
      <g>
       <use xlink:href="#m6b44dd81a8" x="319.93391" y="170.501409" style="stroke: #000000; stroke-width: 0.8"/>
      </g>
     </g>
     <g id="text_4">
      <!-- 800 -->
      <g transform="translate(310.39016 185.099847)scale(0.1 -0.1)">
       <defs>
        <path id="DejaVuSans-38" d="M 2034 2216 
Q 1584 2216 1326 1975 
Q 1069 1734 1069 1313 
Q 1069 891 1326 650 
Q 1584 409 2034 409 
Q 2484 409 2743 651 
Q 3003 894 3003 1313 
Q 3003 1734 2745 1975 
Q 2488 2216 2034 2216 
z
M 1403 2484 
Q 997 2584 770 2862 
Q 544 3141 544 3541 
Q 544 4100 942 4425 
Q 1341 4750 2034 4750 
Q 2731 4750 3128 4425 
Q 3525 4100 3525 3541 
Q 3525 3141 3298 2862 
Q 3072 2584 2669 2484 
Q 3125 2378 3379 2068 
Q 3634 1759 3634 1313 
Q 3634 634 3220 271 
Q 2806 -91 2034 -91 
Q 1263 -91 848 271 
Q 434 634 434 1313 
Q 434 1759 690 2068 
Q 947 2378 1403 2484 
z
M 1172 3481 
Q 1172 3119 1398 2916 
Q 1625 2713 2034 2713 
Q 2441 2713 2670 2916 
Q 2900 3119 2900 3481 
Q 2900 3844 2670 4047 
Q 2441 4250 2034 4250 
Q 1625 4250 1398 4047 
Q 1172 3844 1172 3481 
z
" transform="scale(0.015625)"/>
       </defs>
       <use xlink:href="#DejaVuSans-38"/>
       <use xlink:href="#DejaVuSans-30" x="63.623047"/>
       <use xlink:href="#DejaVuSans-30" x="127.246094"/>
      </g>
     </g>
    </g>
    <g id="xtick_5">
     <g id="line2d_9">
      <path d="M 386.960938 170.501409 
L 386.960938 7.421409 
" clip-path="url(#p6ab48af28d)" style="fill: none; stroke: #b0b0b0; stroke-width: 0.8; stroke-linecap: square"/>
     </g>
     <g id="line2d_10">
      <g>
       <use xlink:href="#m6b44dd81a8" x="386.960938" y="170.501409" style="stroke: #000000; stroke-width: 0.8"/>
      </g>
     </g>
     <g id="text_5">
      <!-- 1000 -->
      <g transform="translate(374.235937 185.099847)scale(0.1 -0.1)">
       <defs>
        <path id="DejaVuSans-31" d="M 794 531 
L 1825 531 
L 1825 4091 
L 703 3866 
L 703 4441 
L 1819 4666 
L 2450 4666 
L 2450 531 
L 3481 531 
L 3481 0 
L 794 0 
L 794 531 
z
" transform="scale(0.015625)"/>
       </defs>
       <use xlink:href="#DejaVuSans-31"/>
       <use xlink:href="#DejaVuSans-30" x="63.623047"/>
       <use xlink:href="#DejaVuSans-30" x="127.246094"/>
       <use xlink:href="#DejaVuSans-30" x="190.869141"/>
      </g>
     </g>
    </g>
    <g id="text_6">
     <!-- time -->
     <g transform="translate(208.264844 198.777972)scale(0.1 -0.1)">
      <defs>
       <path id="DejaVuSans-74" d="M 1172 4494 
L 1172 3500 
L 2356 3500 
L 2356 3053 
L 1172 3053 
L 1172 1153 
Q 1172 725 1289 603 
Q 1406 481 1766 481 
L 2356 481 
L 2356 0 
L 1766 0 
Q 1100 0 847 248 
Q 594 497 594 1153 
L 594 3053 
L 172 3053 
L 172 3500 
L 594 3500 
L 594 4494 
L 1172 4494 
z
" transform="scale(0.015625)"/>
       <path id="DejaVuSans-69" d="M 603 3500 
L 1178 3500 
L 1178 0 
L 603 0 
L 603 3500 
z
M 603 4863 
L 1178 4863 
L 1178 4134 
L 603 4134 
L 603 4863 
z
" transform="scale(0.015625)"/>
       <path id="DejaVuSans-6d" d="M 3328 2828 
Q 3544 3216 3844 3400 
Q 4144 3584 4550 3584 
Q 5097 3584 5394 3201 
Q 5691 2819 5691 2113 
L 5691 0 
L 5113 0 
L 5113 2094 
Q 5113 2597 4934 2840 
Q 4756 3084 4391 3084 
Q 3944 3084 3684 2787 
Q 3425 2491 3425 1978 
L 3425 0 
L 2847 0 
L 2847 2094 
Q 2847 2600 2669 2842 
Q 2491 3084 2119 3084 
Q 1678 3084 1418 2786 
Q 1159 2488 1159 1978 
L 1159 0 
L 581 0 
L 581 3500 
L 1159 3500 
L 1159 2956 
Q 1356 3278 1631 3431 
Q 1906 3584 2284 3584 
Q 2666 3584 2933 3390 
Q 3200 3197 3328 2828 
z
" transform="scale(0.015625)"/>
       <path id="DejaVuSans-65" d="M 3597 1894 
L 3597 1613 
L 953 1613 
Q 991 1019 1311 708 
Q 1631 397 2203 397 
Q 2534 397 2845 478 
Q 3156 559 3463 722 
L 3463 178 
Q 3153 47 2828 -22 
Q 2503 -91 2169 -91 
Q 1331 -91 842 396 
Q 353 884 353 1716 
Q 353 2575 817 3079 
Q 1281 3584 2069 3584 
Q 2775 3584 3186 3129 
Q 3597 2675 3597 1894 
z
M 3022 2063 
Q 3016 2534 2758 2815 
Q 2500 3097 2075 3097 
Q 1594 3097 1305 2825 
Q 1016 2553 972 2059 
L 3022 2063 
z
" transform="scale(0.015625)"/>
      </defs>
      <use xlink:href="#DejaVuSans-74"/>
      <use xlink:href="#DejaVuSans-69" x="39.208984"/>
      <use xlink:href="#DejaVuSans-6d" x="66.992188"/>
      <use xlink:href="#DejaVuSans-65" x="164.404297"/>
     </g>
    </g>
   </g>
   <g id="matplotlib.axis_2">
    <g id="ytick_1">
     <g id="line2d_11">
      <path d="M 52.160938 170.350493 
L 386.960938 170.350493 
" clip-path="url(#p6ab48af28d)" style="fill: none; stroke: #b0b0b0; stroke-width: 0.8; stroke-linecap: square"/>
     </g>
     <g id="line2d_12">
      <defs>
       <path id="mb06d0a7e16" d="M 0 0 
L -3.5 0 
" style="stroke: #000000; stroke-width: 0.8"/>
      </defs>
      <g>
       <use xlink:href="#mb06d0a7e16" x="52.160938" y="170.350493" style="stroke: #000000; stroke-width: 0.8"/>
      </g>
     </g>
     <g id="text_7">
      <!-- −1.5 -->
      <g transform="translate(20.878125 174.149712)scale(0.1 -0.1)">
       <defs>
        <path id="DejaVuSans-2212" d="M 678 2272 
L 4684 2272 
L 4684 1741 
L 678 1741 
L 678 2272 
z
" transform="scale(0.015625)"/>
        <path id="DejaVuSans-2e" d="M 684 794 
L 1344 794 
L 1344 0 
L 684 0 
L 684 794 
z
" transform="scale(0.015625)"/>
        <path id="DejaVuSans-35" d="M 691 4666 
L 3169 4666 
L 3169 4134 
L 1269 4134 
L 1269 2991 
Q 1406 3038 1543 3061 
Q 1681 3084 1819 3084 
Q 2600 3084 3056 2656 
Q 3513 2228 3513 1497 
Q 3513 744 3044 326 
Q 2575 -91 1722 -91 
Q 1428 -91 1123 -41 
Q 819 9 494 109 
L 494 744 
Q 775 591 1075 516 
Q 1375 441 1709 441 
Q 2250 441 2565 725 
Q 2881 1009 2881 1497 
Q 2881 1984 2565 2268 
Q 2250 2553 1709 2553 
Q 1456 2553 1204 2497 
Q 953 2441 691 2322 
L 691 4666 
z
" transform="scale(0.015625)"/>
       </defs>
       <use xlink:href="#DejaVuSans-2212"/>
       <use xlink:href="#DejaVuSans-31" x="83.789062"/>
       <use xlink:href="#DejaVuSans-2e" x="147.412109"/>
       <use xlink:href="#DejaVuSans-35" x="179.199219"/>
      </g>
     </g>
    </g>
    <g id="ytick_2">
     <g id="line2d_13">
      <path d="M 52.160938 143.791947 
L 386.960938 143.791947 
" clip-path="url(#p6ab48af28d)" style="fill: none; stroke: #b0b0b0; stroke-width: 0.8; stroke-linecap: square"/>
     </g>
     <g id="line2d_14">
      <g>
       <use xlink:href="#mb06d0a7e16" x="52.160938" y="143.791947" style="stroke: #000000; stroke-width: 0.8"/>
      </g>
     </g>
     <g id="text_8">
      <!-- −1.0 -->
      <g transform="translate(20.878125 147.591166)scale(0.1 -0.1)">
       <use xlink:href="#DejaVuSans-2212"/>
       <use xlink:href="#DejaVuSans-31" x="83.789062"/>
       <use xlink:href="#DejaVuSans-2e" x="147.412109"/>
       <use xlink:href="#DejaVuSans-30" x="179.199219"/>
      </g>
     </g>
    </g>
    <g id="ytick_3">
     <g id="line2d_15">
      <path d="M 52.160938 117.233402 
L 386.960938 117.233402 
" clip-path="url(#p6ab48af28d)" style="fill: none; stroke: #b0b0b0; stroke-width: 0.8; stroke-linecap: square"/>
     </g>
     <g id="line2d_16">
      <g>
       <use xlink:href="#mb06d0a7e16" x="52.160938" y="117.233402" style="stroke: #000000; stroke-width: 0.8"/>
      </g>
     </g>
     <g id="text_9">
      <!-- −0.5 -->
      <g transform="translate(20.878125 121.03262)scale(0.1 -0.1)">
       <use xlink:href="#DejaVuSans-2212"/>
       <use xlink:href="#DejaVuSans-30" x="83.789062"/>
       <use xlink:href="#DejaVuSans-2e" x="147.412109"/>
       <use xlink:href="#DejaVuSans-35" x="179.199219"/>
      </g>
     </g>
    </g>
    <g id="ytick_4">
     <g id="line2d_17">
      <path d="M 52.160938 90.674856 
L 386.960938 90.674856 
" clip-path="url(#p6ab48af28d)" style="fill: none; stroke: #b0b0b0; stroke-width: 0.8; stroke-linecap: square"/>
     </g>
     <g id="line2d_18">
      <g>
       <use xlink:href="#mb06d0a7e16" x="52.160938" y="90.674856" style="stroke: #000000; stroke-width: 0.8"/>
      </g>
     </g>
     <g id="text_10">
      <!-- 0.0 -->
      <g transform="translate(29.257812 94.474075)scale(0.1 -0.1)">
       <use xlink:href="#DejaVuSans-30"/>
       <use xlink:href="#DejaVuSans-2e" x="63.623047"/>
       <use xlink:href="#DejaVuSans-30" x="95.410156"/>
      </g>
     </g>
    </g>
    <g id="ytick_5">
     <g id="line2d_19">
      <path d="M 52.160938 64.11631 
L 386.960938 64.11631 
" clip-path="url(#p6ab48af28d)" style="fill: none; stroke: #b0b0b0; stroke-width: 0.8; stroke-linecap: square"/>
     </g>
     <g id="line2d_20">
      <g>
       <use xlink:href="#mb06d0a7e16" x="52.160938" y="64.11631" style="stroke: #000000; stroke-width: 0.8"/>
      </g>
     </g>
     <g id="text_11">
      <!-- 0.5 -->
      <g transform="translate(29.257812 67.915529)scale(0.1 -0.1)">
       <use xlink:href="#DejaVuSans-30"/>
       <use xlink:href="#DejaVuSans-2e" x="63.623047"/>
       <use xlink:href="#DejaVuSans-35" x="95.410156"/>
      </g>
     </g>
    </g>
    <g id="ytick_6">
     <g id="line2d_21">
      <path d="M 52.160938 37.557764 
L 386.960938 37.557764 
" clip-path="url(#p6ab48af28d)" style="fill: none; stroke: #b0b0b0; stroke-width: 0.8; stroke-linecap: square"/>
     </g>
     <g id="line2d_22">
      <g>
       <use xlink:href="#mb06d0a7e16" x="52.160938" y="37.557764" style="stroke: #000000; stroke-width: 0.8"/>
      </g>
     </g>
     <g id="text_12">
      <!-- 1.0 -->
      <g transform="translate(29.257812 41.356983)scale(0.1 -0.1)">
       <use xlink:href="#DejaVuSans-31"/>
       <use xlink:href="#DejaVuSans-2e" x="63.623047"/>
       <use xlink:href="#DejaVuSans-30" x="95.410156"/>
      </g>
     </g>
    </g>
    <g id="ytick_7">
     <g id="line2d_23">
      <path d="M 52.160938 10.999219 
L 386.960938 10.999219 
" clip-path="url(#p6ab48af28d)" style="fill: none; stroke: #b0b0b0; stroke-width: 0.8; stroke-linecap: square"/>
     </g>
     <g id="line2d_24">
      <g>
       <use xlink:href="#mb06d0a7e16" x="52.160938" y="10.999219" style="stroke: #000000; stroke-width: 0.8"/>
      </g>
     </g>
     <g id="text_13">
      <!-- 1.5 -->
      <g transform="translate(29.257812 14.798437)scale(0.1 -0.1)">
       <use xlink:href="#DejaVuSans-31"/>
       <use xlink:href="#DejaVuSans-2e" x="63.623047"/>
       <use xlink:href="#DejaVuSans-35" x="95.410156"/>
      </g>
     </g>
    </g>
    <g id="text_14">
     <!-- x -->
     <g transform="translate(14.798438 91.920784)rotate(-90)scale(0.1 -0.1)">
      <defs>
       <path id="DejaVuSans-78" d="M 3513 3500 
L 2247 1797 
L 3578 0 
L 2900 0 
L 1881 1375 
L 863 0 
L 184 0 
L 1544 1831 
L 300 3500 
L 978 3500 
L 1906 2253 
L 2834 3500 
L 3513 3500 
z
" transform="scale(0.015625)"/>
      </defs>
      <use xlink:href="#DejaVuSans-78"/>
     </g>
    </g>
   </g>
   <g id="line2d_25">
    <path d="M 52.160938 84.54498 
L 52.496073 66.292182 
L 52.831208 84.811538 
L 53.166343 85.913688 
L 53.501478 99.10471 
L 53.836613 98.383487 
L 54.171748 81.436069 
L 54.506883 72.074729 
L 54.842019 103.48116 
L 55.177154 65.125338 
L 55.847424 83.059261 
L 56.182559 53.359426 
L 56.852829 100.104027 
L 57.187965 100.759161 
L 57.5231 80.859436 
L 57.858235 74.808693 
L 58.19337 77.262553 
L 58.528505 83.659933 
L 58.86364 69.296344 
L 59.198775 67.966281 
L 59.53391 86.256409 
L 59.869046 59.839099 
L 60.204181 58.998411 
L 60.539316 65.198439 
L 60.874451 64.879003 
L 61.209586 71.720712 
L 61.544721 98.535389 
L 61.879856 79.315594 
L 62.214992 89.378511 
L 62.550127 81.74239 
L 62.885262 80.90693 
L 63.220397 77.151232 
L 63.555532 85.20364 
L 63.890667 103.590006 
L 64.225802 83.896333 
L 64.560938 72.609344 
L 64.896073 81.028173 
L 65.231208 70.004145 
L 65.566343 76.238885 
L 65.901478 68.938553 
L 66.236613 64.290176 
L 66.571748 68.481729 
L 66.906883 67.475493 
L 67.242019 89.425816 
L 67.577154 81.024249 
L 68.247424 58.698031 
L 68.582559 55.445919 
L 68.917694 66.109903 
L 69.252829 54.629493 
L 69.587965 74.563535 
L 69.9231 60.821665 
L 70.258235 55.828289 
L 70.59337 58.586673 
L 70.928505 52.777573 
L 71.26364 98.160334 
L 71.598775 46.326426 
L 71.93391 78.336651 
L 72.269046 45.615388 
L 72.604181 62.458218 
L 72.939316 39.487375 
L 73.274451 41.38225 
L 73.609586 62.194979 
L 73.944721 64.427513 
L 74.279856 54.49569 
L 74.614992 54.392354 
L 74.950127 57.777462 
L 75.285262 54.386054 
L 75.620397 56.643145 
L 75.955532 67.783528 
L 76.625802 55.971055 
L 76.960938 14.834137 
L 77.296073 48.76046 
L 77.631208 71.155554 
L 77.966343 39.456873 
L 78.301478 39.34624 
L 78.636613 48.47593 
L 78.971748 60.788507 
L 79.306883 53.261684 
L 79.642019 63.45615 
L 79.977154 39.988756 
L 80.312289 27.673231 
L 80.982559 48.208837 
L 81.317694 42.292745 
L 81.652829 61.904525 
L 81.987965 40.472104 
L 82.3231 49.66569 
L 82.658235 52.429358 
L 82.99337 50.912636 
L 83.328505 52.493283 
L 83.66364 43.657537 
L 83.998775 44.336294 
L 84.33391 49.57625 
L 84.669046 34.110678 
L 85.004181 56.486585 
L 85.339316 45.579434 
L 85.674451 51.652064 
L 86.009586 30.714363 
L 86.344721 41.407806 
L 86.679856 36.584649 
L 87.014992 55.312844 
L 87.350127 58.702464 
L 87.685262 35.968914 
L 88.020397 43.857614 
L 88.355532 62.821678 
L 88.690667 66.993342 
L 89.025802 62.461916 
L 89.360938 37.760624 
L 89.696073 35.707742 
L 90.031208 45.950081 
L 90.366343 47.301185 
L 90.701478 37.908323 
L 91.036613 32.293912 
L 91.706883 48.448483 
L 92.042019 47.022885 
L 92.377154 31.093988 
L 93.047424 65.55191 
L 93.382559 42.302215 
L 93.717694 53.448343 
L 94.052829 68.807062 
L 94.387965 48.180641 
L 95.058235 33.589931 
L 95.39337 45.27996 
L 95.728505 42.160285 
L 96.06364 47.417382 
L 96.398775 56.077208 
L 96.73391 40.657224 
L 97.069046 18.049109 
L 97.404181 43.602625 
L 97.739316 58.45975 
L 98.074451 43.442747 
L 98.409586 55.452257 
L 99.079856 46.28057 
L 99.750127 45.987003 
L 100.085262 47.122267 
L 100.420397 38.404831 
L 100.755532 43.397831 
L 101.090667 44.618533 
L 101.425802 35.511271 
L 101.760938 41.99563 
L 102.096073 37.845566 
L 102.431208 45.158929 
L 102.766343 22.130071 
L 103.101478 39.837537 
L 103.436613 36.497279 
L 103.771748 38.494775 
L 104.106883 26.027803 
L 104.442019 44.34421 
L 105.112289 33.091402 
L 105.447424 24.437015 
L 105.782559 56.886881 
L 106.117694 38.053995 
L 106.452829 30.723468 
L 106.787965 39.930808 
L 107.1231 24.601641 
L 107.458235 28.128663 
L 107.79337 34.541492 
L 108.128505 33.015949 
L 108.46364 37.567604 
L 108.798775 35.114498 
L 109.13391 48.4828 
L 109.469046 38.126348 
L 109.804181 53.879936 
L 110.139316 32.273579 
L 110.474451 57.036501 
L 110.809586 40.773041 
L 111.144721 38.72511 
L 111.479856 30.786573 
L 111.814992 26.671215 
L 112.150127 51.505379 
L 112.485262 50.290762 
L 112.820397 23.754134 
L 113.155532 48.554726 
L 113.490667 39.448543 
L 113.825802 38.972497 
L 114.160938 47.945709 
L 114.496073 29.878431 
L 114.831208 41.213286 
L 115.166343 43.724394 
L 115.501478 21.598489 
L 115.836613 35.318523 
L 116.171748 43.404929 
L 116.506883 25.732989 
L 116.842019 17.022487 
L 117.177154 33.884782 
L 117.847424 32.208233 
L 118.182559 27.515594 
L 118.517694 35.865955 
L 118.852829 32.401595 
L 119.187965 33.34022 
L 119.5231 29.688773 
L 120.19337 59.032642 
L 120.528505 36.259175 
L 120.86364 34.849223 
L 121.198775 46.45888 
L 121.869046 20.24243 
L 122.204181 54.531077 
L 122.539316 42.129382 
L 122.874451 25.504123 
L 123.544721 54.851428 
L 123.879856 47.974741 
L 124.214992 46.127125 
L 124.550127 48.499871 
L 124.885262 46.645796 
L 125.220397 40.449356 
L 125.555532 45.795994 
L 125.890667 36.663242 
L 126.560938 60.546142 
L 126.896073 46.543897 
L 127.231208 63.218463 
L 127.566343 37.169749 
L 127.901478 41.355035 
L 128.236613 57.502195 
L 128.571748 41.818389 
L 128.906883 61.396197 
L 129.242019 45.829772 
L 129.577154 53.28837 
L 129.912289 56.326143 
L 130.247424 68.245998 
L 130.582559 42.339007 
L 130.917694 52.110289 
L 131.252829 48.027598 
L 131.587965 62.824407 
L 131.9231 50.029334 
L 132.258235 66.397525 
L 132.59337 64.924465 
L 132.928505 75.628488 
L 133.26364 32.170411 
L 133.598775 59.250601 
L 133.93391 69.364114 
L 134.269046 67.536235 
L 134.604181 72.552055 
L 134.939316 57.637916 
L 135.274451 63.102064 
L 135.609586 63.681656 
L 135.944721 63.737821 
L 136.279856 71.969288 
L 136.614992 59.402846 
L 136.950127 71.931375 
L 137.285262 63.189817 
L 137.620397 40.128976 
L 137.955532 67.161438 
L 138.290667 59.840476 
L 138.625802 62.356222 
L 138.960938 72.257517 
L 139.296073 65.887155 
L 139.631208 50.920867 
L 139.966343 52.025699 
L 140.636613 58.285828 
L 140.971748 69.019007 
L 141.306883 67.073205 
L 141.642019 56.187737 
L 141.977154 54.274711 
L 142.312289 50.948918 
L 142.647424 76.034604 
L 142.982559 58.561037 
L 143.317694 80.419717 
L 143.652829 51.130683 
L 143.987965 57.147936 
L 144.3231 83.284041 
L 144.658235 73.199675 
L 144.99337 79.227366 
L 145.328505 59.683457 
L 145.998775 78.914328 
L 146.33391 62.272192 
L 146.669046 62.786212 
L 147.339316 67.693742 
L 147.674451 61.868831 
L 148.009586 63.724188 
L 148.344721 62.815998 
L 148.679856 66.97589 
L 149.014992 77.427063 
L 149.350127 74.540118 
L 149.685262 66.71499 
L 150.355532 91.899918 
L 150.690667 84.57065 
L 151.025802 89.230496 
L 151.360938 74.574653 
L 151.696073 103.44619 
L 152.031208 79.944455 
L 152.366343 88.574606 
L 152.701478 76.030621 
L 153.036613 92.332349 
L 153.371748 82.288451 
L 154.042019 88.579158 
L 154.377154 115.859711 
L 154.712289 83.007429 
L 155.047424 77.758114 
L 155.382559 62.213402 
L 155.717694 89.966695 
L 156.052829 98.687412 
L 156.387965 76.073346 
L 156.7231 98.614911 
L 157.058235 84.218717 
L 157.39337 77.346388 
L 157.728505 76.233927 
L 158.73391 100.880805 
L 159.069046 94.014133 
L 159.404181 99.545176 
L 159.739316 98.434284 
L 160.074451 89.38885 
L 160.409586 73.217774 
L 160.744721 93.973039 
L 161.079856 102.128746 
L 161.414992 101.767972 
L 161.750127 88.115443 
L 162.085262 110.822666 
L 162.420397 91.882926 
L 162.755532 108.550954 
L 163.090667 118.493844 
L 163.425802 118.593583 
L 163.760938 107.257128 
L 164.096073 110.920942 
L 164.431208 99.254481 
L 164.766343 95.16897 
L 165.101478 105.807878 
L 165.436613 108.122016 
L 165.771748 111.781756 
L 166.106883 113.494228 
L 166.442019 102.126682 
L 166.777154 99.613707 
L 167.447424 110.190515 
L 167.782559 83.86778 
L 168.787965 121.00769 
L 169.1231 115.176999 
L 169.458235 102.356077 
L 169.79337 127.873204 
L 170.128505 110.000922 
L 170.46364 116.987944 
L 170.798775 111.333733 
L 171.13391 119.059185 
L 171.804181 103.358708 
L 172.139316 121.87097 
L 172.474451 131.489488 
L 172.809586 111.716055 
L 173.144721 128.107711 
L 173.479856 130.792716 
L 173.814992 120.034606 
L 174.150127 98.322501 
L 174.485262 107.080946 
L 174.820397 146.124745 
L 175.155532 99.137816 
L 175.490667 128.712776 
L 175.825802 134.998334 
L 176.160938 114.260019 
L 176.496073 104.568567 
L 176.831208 133.608598 
L 177.166343 135.818832 
L 177.501478 121.669317 
L 177.836613 119.3673 
L 178.171748 106.027033 
L 178.506883 110.81337 
L 178.842019 117.522824 
L 179.177154 127.301239 
L 179.847424 120.006299 
L 180.182559 135.072923 
L 180.517694 118.60455 
L 181.187965 147.460098 
L 181.858235 129.856946 
L 182.19337 131.289402 
L 182.528505 135.89961 
L 182.86364 117.01423 
L 183.198775 120.215339 
L 183.53391 127.848417 
L 183.869046 151.662921 
L 184.204181 127.199907 
L 184.539316 128.242413 
L 184.874451 121.736731 
L 185.209586 163.088682 
L 185.544721 135.269748 
L 185.879856 132.511864 
L 186.214992 119.013873 
L 186.550127 136.87706 
L 186.885262 135.22574 
L 187.220397 132.584803 
L 187.890667 136.21814 
L 188.225802 140.711582 
L 188.560938 148.430649 
L 188.896073 120.308075 
L 189.231208 127.357328 
L 189.566343 145.992272 
L 189.901478 120.722827 
L 190.571748 142.161869 
L 190.906883 129.423141 
L 191.242019 130.38629 
L 191.577154 153.791281 
L 191.912289 138.172743 
L 192.247424 153.385042 
L 192.582559 137.629475 
L 192.917694 152.421773 
L 193.252829 155.887405 
L 193.587965 134.414592 
L 193.9231 147.05353 
L 194.258235 127.727342 
L 194.59337 137.282238 
L 195.26364 129.974343 
L 195.598775 136.190324 
L 195.93391 120.239878 
L 196.269046 143.37572 
L 196.604181 113.899784 
L 196.939316 148.312709 
L 197.274451 140.686681 
L 197.609586 148.542689 
L 198.279856 131.408615 
L 198.614992 129.228288 
L 198.950127 153.213849 
L 199.285262 123.951214 
L 199.620397 132.082428 
L 199.955532 123.51233 
L 200.290667 136.8864 
L 200.625802 122.461076 
L 200.960938 138.790321 
L 201.296073 138.98152 
L 201.631208 120.75053 
L 201.966343 146.110947 
L 202.301478 134.906814 
L 202.636613 134.366253 
L 202.971748 147.911985 
L 203.306883 144.294744 
L 203.642019 152.524498 
L 203.977154 132.817513 
L 204.312289 156.474013 
L 204.647424 143.204694 
L 204.982559 149.870855 
L 205.652829 153.701151 
L 205.987965 150.154975 
L 206.3231 125.501961 
L 206.658235 131.02527 
L 206.99337 140.960295 
L 207.328505 138.13237 
L 207.66364 145.002572 
L 207.998775 129.310677 
L 208.33391 124.604051 
L 208.669046 147.347565 
L 209.004181 126.25501 
L 209.674451 151.431858 
L 210.009586 123.039044 
L 210.344721 150.939376 
L 210.679856 143.325304 
L 211.014992 132.17177 
L 211.350127 148.969197 
L 211.685262 149.320759 
L 212.020397 141.738102 
L 212.355532 150.587169 
L 212.690667 146.005113 
L 213.025802 138.521516 
L 213.360938 140.399643 
L 213.696073 129.195826 
L 214.031208 145.249415 
L 214.366343 142.239097 
L 214.701478 127.185967 
L 215.036613 154.924769 
L 215.371748 129.598668 
L 215.706883 131.649135 
L 216.042019 138.36973 
L 216.377154 141.951872 
L 216.712289 152.811631 
L 217.047424 152.959522 
L 217.382559 129.085092 
L 217.717694 140.805873 
L 218.052829 146.707344 
L 218.387965 144.099425 
L 218.7231 152.548021 
L 219.058235 133.970604 
L 219.728505 159.501303 
L 220.06364 139.683077 
L 220.398775 151.462606 
L 220.73391 151.664409 
L 221.069046 133.682382 
L 221.404181 140.461843 
L 221.739316 128.899702 
L 222.074451 130.475623 
L 222.409586 133.215124 
L 222.744721 146.958359 
L 223.414992 136.786154 
L 223.750127 139.625246 
L 224.085262 134.907495 
L 224.420397 134.545972 
L 224.755532 150.005158 
L 225.090667 115.079702 
L 225.425802 136.75922 
L 226.096073 117.987403 
L 226.431208 137.910039 
L 226.766343 135.242349 
L 227.101478 135.837217 
L 227.436613 118.287118 
L 227.771748 144.755553 
L 228.106883 141.8602 
L 228.442019 130.180565 
L 228.777154 138.524929 
L 229.112289 140.048752 
L 229.447424 135.12993 
L 229.782559 139.822553 
L 230.117694 139.434325 
L 230.787965 123.444846 
L 231.1231 131.427767 
L 231.458235 110.097899 
L 232.128505 137.08054 
L 232.46364 126.249017 
L 232.798775 141.510877 
L 233.13391 137.45232 
L 233.469046 114.554762 
L 233.804181 145.135545 
L 234.139316 134.088118 
L 234.474451 137.838452 
L 234.809586 96.471317 
L 235.144721 147.221272 
L 235.479856 134.19828 
L 235.814992 147.135226 
L 236.150127 113.259693 
L 236.485262 134.816835 
L 236.820397 116.322069 
L 237.155532 114.770414 
L 237.490667 114.630099 
L 237.825802 131.96475 
L 238.160938 130.031502 
L 238.496073 112.495885 
L 238.831208 124.354268 
L 239.166343 119.680666 
L 239.501478 124.2743 
L 239.836613 123.76343 
L 240.171748 112.985848 
L 240.506883 120.805913 
L 240.842019 134.084217 
L 241.177154 115.087109 
L 241.512289 141.467312 
L 242.182559 116.489395 
L 242.517694 112.828457 
L 242.852829 152.177773 
L 243.187965 130.510674 
L 243.5231 143.278298 
L 243.858235 103.709014 
L 244.19337 116.45574 
L 244.528505 121.305927 
L 244.86364 107.213508 
L 245.198775 125.940038 
L 245.53391 102.937015 
L 245.869046 90.60603 
L 246.204181 112.902119 
L 246.539316 98.995809 
L 246.874451 123.494806 
L 247.209586 114.318605 
L 247.544721 124.681641 
L 247.879856 106.728178 
L 248.214992 124.086001 
L 248.550127 114.069273 
L 248.885262 117.753865 
L 249.220397 123.412163 
L 249.555532 106.866709 
L 249.890667 105.825302 
L 250.225802 105.935285 
L 250.896073 119.196961 
L 251.566343 94.493911 
L 251.901478 94.749753 
L 252.236613 96.761404 
L 252.571748 97.836934 
L 252.906883 90.026585 
L 253.242019 101.853703 
L 253.577154 108.440726 
L 253.912289 95.860411 
L 254.247424 99.802056 
L 254.582559 105.959499 
L 254.917694 102.042288 
L 255.252829 106.699025 
L 255.587965 115.402274 
L 255.9231 98.637104 
L 256.258235 111.49276 
L 256.59337 112.597103 
L 256.928505 114.440815 
L 257.26364 101.856277 
L 257.598775 78.586715 
L 257.93391 108.447629 
L 258.269046 100.257078 
L 258.604181 73.004778 
L 259.274451 100.409904 
L 259.609586 100.704571 
L 259.944721 94.561343 
L 260.279856 96.361888 
L 260.614992 104.163943 
L 260.950127 82.582756 
L 261.285262 84.910339 
L 261.620397 92.937649 
L 261.955532 78.600805 
L 262.290667 108.856442 
L 262.625802 70.706696 
L 263.296073 100.137695 
L 263.631208 98.349311 
L 263.966343 101.688611 
L 264.636613 73.478121 
L 264.971748 93.030623 
L 265.306883 87.804738 
L 265.642019 76.961937 
L 265.977154 87.915583 
L 266.312289 87.194329 
L 266.647424 98.705772 
L 266.982559 79.789276 
L 267.317694 97.41211 
L 267.652829 80.073273 
L 267.987965 89.77167 
L 268.3231 77.953791 
L 268.658235 95.129084 
L 268.99337 63.973855 
L 269.328505 77.878982 
L 269.66364 75.280722 
L 269.998775 98.424471 
L 270.33391 77.318166 
L 270.669046 76.119075 
L 271.004181 73.714889 
L 271.339316 79.33557 
L 271.674451 87.517092 
L 272.009586 67.913112 
L 272.344721 79.826816 
L 272.679856 71.586511 
L 273.014992 73.29953 
L 273.350127 73.599557 
L 273.685262 75.684886 
L 274.355532 88.35781 
L 274.690667 71.129042 
L 275.025802 69.077664 
L 275.360937 70.295271 
L 275.696073 69.721285 
L 276.031208 58.216042 
L 276.701478 68.842849 
L 277.371748 70.842253 
L 277.706883 68.00532 
L 278.042019 76.036609 
L 278.377154 66.113186 
L 278.712289 69.094534 
L 279.047424 71.033317 
L 279.382559 47.360001 
L 279.717694 80.559478 
L 280.052829 56.78371 
L 280.387965 56.335056 
L 280.7231 54.642885 
L 281.058235 71.099381 
L 281.39337 47.294242 
L 281.728505 65.825622 
L 282.06364 60.604086 
L 282.398775 51.714356 
L 282.73391 70.250516 
L 283.069046 49.560585 
L 283.404181 78.321167 
L 283.739316 55.129487 
L 284.074451 66.531915 
L 284.409586 44.555127 
L 284.744721 69.711323 
L 285.079856 38.533116 
L 285.414992 60.491205 
L 285.750127 54.495392 
L 286.420397 70.427234 
L 286.755532 54.823032 
L 287.090667 57.277879 
L 287.425802 62.248865 
L 287.760938 52.395244 
L 288.096073 48.910353 
L 288.431208 83.917016 
L 288.766343 50.17403 
L 289.101478 60.322256 
L 289.436613 48.247469 
L 289.771748 60.027724 
L 290.106883 53.737671 
L 290.442019 49.999339 
L 290.777154 60.160108 
L 291.112289 51.158177 
L 291.447424 59.930606 
L 291.782559 59.469338 
L 292.117694 64.98612 
L 292.452829 26.650136 
L 292.787965 47.924797 
L 293.458235 46.311647 
L 293.79337 49.94495 
L 294.128505 49.372402 
L 294.46364 32.554343 
L 294.798775 35.632707 
L 295.13391 51.261351 
L 295.469046 49.567718 
L 295.804181 49.512281 
L 296.139316 58.009012 
L 296.474451 43.344854 
L 296.809586 42.644814 
L 297.144721 61.054096 
L 297.479856 36.180183 
L 297.814992 61.900111 
L 298.150127 31.626311 
L 298.485262 66.808516 
L 298.820397 45.825175 
L 299.155532 33.770046 
L 299.490667 33.26604 
L 299.825802 38.356743 
L 300.160938 49.610674 
L 300.496073 44.605866 
L 300.831208 56.573546 
L 301.166343 43.94207 
L 301.501478 37.184769 
L 301.836613 33.47596 
L 302.171748 35.821428 
L 302.506883 49.941274 
L 302.842019 37.220019 
L 303.177154 37.262267 
L 303.512289 30.17358 
L 303.847424 44.169831 
L 304.182559 34.122697 
L 304.517694 34.20174 
L 304.852829 44.261868 
L 305.187965 34.211136 
L 305.5231 45.127415 
L 305.858235 37.99762 
L 306.19337 16.111235 
L 306.528505 47.345465 
L 306.86364 34.656476 
L 307.198775 39.697478 
L 307.53391 26.181121 
L 307.869046 39.560076 
L 308.204181 34.552073 
L 308.539316 22.216763 
L 308.874451 25.561821 
L 309.209586 48.959109 
L 309.544721 50.98321 
L 309.879856 26.451303 
L 310.214992 43.726569 
L 310.885262 28.089113 
L 311.220397 25.574409 
L 311.555532 38.142704 
L 311.890667 44.763945 
L 312.225802 32.455195 
L 312.560938 34.526327 
L 312.896073 39.553988 
L 313.231208 62.248349 
L 313.566343 30.036466 
L 313.901478 37.407264 
L 314.236613 40.906517 
L 314.571748 38.999088 
L 315.242019 51.798942 
L 315.577154 48.931005 
L 315.912289 42.526024 
L 316.247424 53.564679 
L 316.582559 52.725125 
L 316.917694 42.300451 
L 317.252829 38.816348 
L 317.587965 28.223404 
L 317.9231 50.932012 
L 318.258235 24.784252 
L 318.59337 55.014139 
L 319.26364 25.045303 
L 319.598775 49.809744 
L 319.93391 35.336272 
L 320.269046 30.886398 
L 320.604181 60.08805 
L 320.939316 34.21857 
L 321.274451 58.871865 
L 321.609586 41.220796 
L 321.944721 38.172702 
L 322.279856 51.174998 
L 322.614992 54.562208 
L 322.950127 47.563975 
L 323.285262 45.523839 
L 323.620397 55.554181 
L 323.955532 43.6036 
L 324.290667 38.863991 
L 324.625802 49.973406 
L 324.960938 34.144631 
L 325.296073 57.794156 
L 325.631208 47.22805 
L 325.966343 43.992854 
L 326.301478 53.849681 
L 326.636613 41.126233 
L 326.971748 44.787956 
L 327.306883 22.839292 
L 327.642019 47.170077 
L 327.977154 36.975539 
L 328.312289 44.681575 
L 328.647424 40.202542 
L 328.982559 20.921631 
L 329.317694 48.507517 
L 329.652829 42.868674 
L 329.987965 28.547503 
L 331.328505 46.561855 
L 331.66364 35.551309 
L 331.998775 40.734909 
L 332.33391 24.803077 
L 332.669046 47.851972 
L 333.004181 54.589414 
L 333.339316 38.210906 
L 333.674451 51.780146 
L 334.009586 51.087834 
L 334.344721 55.439634 
L 334.679856 40.666485 
L 335.014992 43.76376 
L 335.350127 40.075521 
L 335.685262 59.465593 
L 336.020397 42.63965 
L 336.355532 73.083455 
L 336.690667 44.536128 
L 337.025802 44.807608 
L 337.360937 56.877535 
L 337.696073 49.852758 
L 338.031208 29.803991 
L 339.036613 60.498629 
L 339.371748 26.932672 
L 339.706883 24.257684 
L 340.042019 57.502233 
L 340.377154 71.939445 
L 340.712289 51.314167 
L 341.047424 66.751181 
L 341.382559 32.857331 
L 341.717694 85.417532 
L 342.387965 37.864185 
L 343.058235 51.609836 
L 343.39337 53.106986 
L 343.728505 66.964169 
L 344.73391 39.312034 
L 345.069046 63.002031 
L 345.404181 51.273895 
L 345.739316 55.628484 
L 346.074451 48.876194 
L 346.409586 56.094248 
L 346.744721 56.957158 
L 347.079856 74.9738 
L 347.414992 68.481347 
L 347.750127 50.710118 
L 348.085262 87.194047 
L 348.420397 69.994267 
L 348.755532 66.03104 
L 349.090667 55.979799 
L 349.425802 74.752721 
L 349.760938 63.374634 
L 350.431208 75.178121 
L 350.766343 58.206842 
L 351.101478 62.501729 
L 351.436613 56.426661 
L 351.771748 77.814716 
L 352.106883 63.250177 
L 352.442019 59.13342 
L 352.777154 62.885781 
L 353.112289 78.607904 
L 353.447424 46.659745 
L 353.782559 60.052134 
L 354.117694 78.305613 
L 354.787965 64.582181 
L 355.1231 46.448986 
L 355.458235 86.503339 
L 355.79337 69.844282 
L 356.128505 75.658944 
L 356.46364 67.30708 
L 356.798775 73.016804 
L 357.13391 40.025485 
L 357.804181 91.190244 
L 358.139316 67.851492 
L 358.474451 59.503766 
L 358.809586 59.208708 
L 359.144721 70.976183 
L 359.479856 73.236885 
L 359.814992 79.181973 
L 360.150127 73.811473 
L 360.485262 64.900367 
L 360.820397 92.21929 
L 361.155532 65.478167 
L 361.490667 75.61441 
L 361.825802 59.909201 
L 362.160938 83.884979 
L 362.496073 92.477308 
L 362.831208 98.051157 
L 363.501478 68.57869 
L 363.836613 88.051114 
L 364.171748 80.546687 
L 364.506883 96.087567 
L 364.842019 89.667737 
L 365.177154 73.275441 
L 365.512289 117.961673 
L 365.847424 83.555797 
L 366.182559 87.239697 
L 366.517694 98.581996 
L 366.852829 98.89668 
L 367.187965 80.599499 
L 367.5231 110.871946 
L 367.858235 86.909661 
L 368.19337 105.505027 
L 368.86364 76.945225 
L 369.198775 78.906776 
L 369.53391 89.995222 
L 369.869046 90.480386 
L 370.204181 70.812058 
L 370.539316 109.27787 
L 370.874451 91.043122 
L 371.209586 103.756206 
L 371.544721 99.753872 
L 371.879856 100.60051 
L 372.214992 108.655015 
L 372.550127 102.559199 
L 372.885262 88.998853 
L 373.220397 108.805205 
L 373.890667 93.584136 
L 374.225802 108.050527 
L 374.560938 92.47331 
L 374.896073 127.846612 
L 375.231208 111.937597 
L 375.566343 110.652957 
L 376.236613 93.181595 
L 376.571748 116.28849 
L 376.906883 92.778991 
L 377.242019 96.396629 
L 377.577154 89.801226 
L 377.912289 115.761385 
L 378.247424 105.704727 
L 378.582559 109.848799 
L 378.917694 94.644811 
L 379.252829 95.146298 
L 379.587965 110.927752 
L 379.9231 115.719563 
L 380.258235 103.479645 
L 380.59337 117.940622 
L 380.928505 117.331302 
L 381.26364 106.117411 
L 381.598775 107.3568 
L 381.93391 110.196901 
L 382.269046 126.978276 
L 382.604181 112.201479 
L 382.939316 108.366834 
L 383.274451 99.895389 
L 383.609586 114.677829 
L 383.944721 112.091267 
L 384.614992 103.95886 
L 384.950127 110.465745 
L 385.285262 101.820585 
L 385.620397 125.377372 
L 385.955532 109.982809 
L 386.290667 111.553565 
L 386.625802 117.887867 
L 386.960938 144.781945 
L 386.960938 144.781945 
" clip-path="url(#p6ab48af28d)" style="fill: none; stroke: #1f77b4; stroke-width: 1.5; stroke-linecap: square"/>
   </g>
   <g id="line2d_26">
    <path d="M 53.501478 82.259956 
L 53.836613 84.232191 
L 54.171748 95.834543 
L 54.842019 91.789077 
L 55.177154 79.724841 
L 55.512289 83.862962 
L 55.847424 78.159466 
L 56.182559 77.840561 
L 56.517694 64.073401 
L 57.5231 86.258665 
L 58.19337 93.659818 
L 58.528505 79.897894 
L 58.86364 79.562792 
L 59.198775 74.138099 
L 59.53391 73.460138 
L 59.869046 75.77085 
L 60.204181 67.099498 
L 60.539316 66.35955 
L 60.874451 66.01376 
L 61.209586 61.594109 
L 61.544721 65.513615 
L 61.879856 77.874512 
L 62.550127 83.346073 
L 62.885262 89.750477 
L 63.220397 82.547496 
L 63.555532 82.045707 
L 63.890667 81.249872 
L 64.225802 85.98868 
L 64.560938 92.952812 
L 65.566343 75.732149 
L 65.901478 75.215029 
L 66.236613 72.984284 
L 66.571748 68.331783 
L 66.906883 69.491325 
L 67.242019 66.745291 
L 67.577154 74.825469 
L 67.912289 77.868211 
L 68.247424 73.842489 
L 68.582559 72.079564 
L 68.917694 64.27859 
L 69.252829 62.765693 
L 69.587965 56.375467 
L 69.9231 64.411048 
L 70.59337 59.098581 
L 70.928505 61.89357 
L 71.26364 55.12452 
L 71.598775 69.820226 
L 71.93391 59.380209 
L 72.269046 69.381341 
L 72.604181 62.033569 
L 72.939316 58.873426 
L 73.609586 46.202533 
L 73.944721 53.529232 
L 74.279856 51.722559 
L 74.614992 52.878187 
L 74.950127 57.400715 
L 75.285262 57.267096 
L 75.620397 53.6734 
L 75.955532 54.808281 
L 76.290667 59.984777 
L 76.960938 58.521066 
L 77.296073 42.198322 
L 77.631208 52.939209 
L 77.966343 50.799871 
L 78.301478 38.08664 
L 78.636613 48.151048 
L 78.971748 49.909059 
L 79.306883 47.699671 
L 79.642019 48.3265 
L 79.977154 56.551093 
L 80.647424 42.284102 
L 80.982559 43.400307 
L 81.317694 38.937278 
L 81.652829 37.937779 
L 81.987965 49.574892 
L 82.3231 44.190838 
L 82.658235 48.81819 
L 82.99337 50.635849 
L 83.328505 46.648436 
L 83.66364 50.138042 
L 83.998775 47.093871 
L 84.33391 45.986911 
L 84.669046 46.806975 
L 85.004181 38.902489 
L 85.339316 49.061192 
L 85.674451 44.12513 
L 86.009586 47.080168 
L 86.344721 41.496056 
L 86.679856 43.844661 
L 87.014992 37.930551 
L 87.685262 47.78131 
L 88.020397 41.508939 
L 88.355532 48.116396 
L 88.690667 52.287995 
L 89.025802 52.478606 
L 89.360938 57.392169 
L 90.031208 48.425216 
L 90.366343 45.714953 
L 90.701478 40.535693 
L 91.036613 39.254925 
L 91.371748 38.707019 
L 92.377154 40.744385 
L 92.712289 37.867177 
L 93.047424 47.022138 
L 93.382559 50.289239 
L 93.717694 42.736055 
L 94.387965 59.422621 
L 94.7231 49.261889 
L 95.058235 49.14373 
L 95.39337 44.851309 
L 95.728505 42.336702 
L 96.06364 38.410628 
L 96.398775 42.328062 
L 96.73391 47.734269 
L 97.069046 42.875098 
L 97.404181 35.724933 
L 97.739316 45.211738 
L 98.409586 38.42945 
L 98.744721 50.469291 
L 99.079856 50.825918 
L 99.414992 46.608431 
L 99.750127 48.15113 
L 100.085262 45.876547 
L 100.420397 44.904795 
L 100.755532 41.360221 
L 101.090667 43.022619 
L 101.425802 42.026555 
L 101.760938 37.988081 
L 102.096073 41.34365 
L 102.431208 37.721356 
L 102.766343 40.759446 
L 103.101478 31.873426 
L 103.436613 40.917623 
L 103.771748 34.076834 
L 104.106883 35.507978 
L 104.442019 32.525753 
L 104.777154 40.171375 
L 105.112289 34.59061 
L 105.447424 35.218015 
L 105.782559 32.926648 
L 106.117694 44.561617 
L 106.452829 34.545494 
L 106.787965 37.306141 
L 107.1231 41.411029 
L 107.458235 30.233019 
L 107.79337 32.697865 
L 108.128505 32.474287 
L 108.46364 30.637713 
L 108.798775 34.582973 
L 109.13391 34.336752 
L 109.469046 40.446522 
L 109.804181 36.836379 
L 110.139316 45.806742 
L 110.474451 38.738344 
L 110.809586 49.60236 
L 111.144721 42.955572 
L 111.479856 41.749649 
L 111.814992 38.704888 
L 112.150127 33.27954 
L 112.485262 41.358752 
L 112.820397 38.719601 
L 113.155532 33.87139 
L 113.490667 48.538535 
L 113.825802 38.340558 
L 114.160938 38.297747 
L 114.496073 43.362846 
L 114.831208 34.887672 
L 115.166343 41.540688 
L 115.501478 39.715515 
L 115.836613 30.649909 
L 116.171748 39.263999 
L 116.506883 35.944124 
L 116.842019 29.457242 
L 117.177154 29.746705 
L 117.512289 34.432992 
L 117.847424 27.923328 
L 118.182559 30.6208 
L 118.517694 31.127048 
L 118.852829 33.908344 
L 119.187965 31.438091 
L 119.5231 33.163442 
L 119.858235 32.136161 
L 120.528505 42.832948 
L 120.86364 37.594861 
L 121.198775 42.460902 
L 121.53391 44.54214 
L 121.869046 35.278036 
L 122.204181 31.994526 
L 122.539316 46.163572 
L 122.874451 35.501931 
L 123.209586 34.12742 
L 123.544721 43.411749 
L 124.214992 40.643895 
L 124.550127 45.664528 
L 124.885262 48.183455 
L 125.555532 42.669876 
L 125.890667 44.278945 
L 126.225802 39.369738 
L 126.896073 48.666046 
L 127.231208 44.684044 
L 127.566343 55.296137 
L 127.901478 47.223545 
L 128.236613 46.532167 
L 128.571748 51.155448 
L 128.906883 40.93623 
L 129.242019 52.15437 
L 129.577154 48.742971 
L 129.912289 50.183601 
L 130.582559 56.694919 
L 130.917694 50.294856 
L 131.252829 54.06026 
L 131.587965 51.260348 
L 131.9231 51.995961 
L 132.258235 50.602166 
L 132.59337 57.613987 
L 132.928505 60.667081 
L 133.26364 65.009954 
L 133.598775 52.504852 
L 133.93391 60.535023 
L 134.269046 58.747874 
L 134.604181 55.972828 
L 134.939316 67.221242 
L 135.274451 64.051261 
L 135.609586 64.689157 
L 135.944721 63.892285 
L 136.279856 61.180841 
L 136.614992 66.220156 
L 136.950127 62.364738 
L 137.285262 67.504087 
L 137.620397 65.232282 
L 137.955532 53.600477 
L 138.290667 63.113522 
L 138.625802 56.627742 
L 138.960938 56.209083 
L 139.296073 66.396441 
L 139.631208 63.794645 
L 139.966343 59.379556 
L 140.301478 58.88375 
L 140.636613 55.489173 
L 140.971748 53.463965 
L 141.306883 59.397783 
L 141.642019 61.708738 
L 141.977154 59.974775 
L 142.312289 60.000765 
L 142.647424 55.4652 
L 142.982559 62.132995 
L 143.317694 57.356849 
L 143.652829 67.96432 
L 143.987965 62.368424 
L 144.3231 60.508643 
L 144.658235 67.611966 
L 144.99337 65.054451 
L 145.328505 73.286747 
L 145.66364 70.851184 
L 145.998775 71.045109 
L 146.33391 72.357906 
L 146.669046 65.132193 
L 147.004181 67.593209 
L 147.339316 67.073796 
L 147.674451 64.212152 
L 148.009586 62.79478 
L 148.344721 63.871247 
L 148.679856 63.230355 
L 149.014992 63.672288 
L 149.350127 68.968931 
L 149.685262 69.977098 
L 150.020397 69.629253 
L 150.690667 79.792959 
L 151.025802 82.373943 
L 151.360938 86.622687 
L 151.696073 87.290989 
L 152.031208 81.598088 
L 152.366343 94.263699 
L 152.701478 84.031492 
L 153.036613 88.46336 
L 153.371748 83.106421 
L 153.706883 88.816352 
L 154.042019 83.788633 
L 154.377154 88.246629 
L 154.712289 88.410798 
L 155.047424 100.229479 
L 155.382559 94.875096 
L 156.052829 76.163534 
L 156.387965 86.828059 
L 156.7231 82.040926 
L 157.058235 83.917356 
L 157.39337 94.599017 
L 157.728505 82.643346 
L 158.06364 81.811899 
L 158.398775 80.056919 
L 159.404181 97.051114 
L 159.739316 94.554308 
L 160.074451 98.131412 
L 160.409586 97.565566 
L 160.744721 96.037102 
L 161.079856 81.790644 
L 161.414992 91.818881 
L 162.085262 99.536794 
L 162.420397 93.899722 
L 162.755532 103.65007 
L 163.090667 94.925471 
L 163.425802 103.512729 
L 163.760938 107.475773 
L 164.096073 115.654818 
L 164.431208 115.208925 
L 164.766343 113.492489 
L 165.436613 99.904156 
L 165.771748 101.560946 
L 166.106883 102.528297 
L 166.777154 111.651091 
L 167.112289 109.860865 
L 167.447424 104.573785 
L 167.782559 101.1595 
L 168.117694 104.818227 
L 168.787965 95.249558 
L 169.1231 99.397045 
L 169.458235 109.292029 
L 169.79337 114.456747 
L 170.128505 111.604475 
L 170.46364 115.460684 
L 170.798775 112.624444 
L 171.13391 119.263429 
L 171.469046 111.955568 
L 171.804181 116.285782 
L 172.139316 114.258519 
L 172.474451 109.880631 
L 172.809586 111.419439 
L 173.144721 119.07714 
L 173.814992 123.542644 
L 174.150127 123.669254 
L 174.485262 129.310063 
L 175.155532 102.80625 
L 175.490667 117.820338 
L 175.825802 116.379464 
L 176.160938 124.513528 
L 176.496073 120.943679 
L 176.831208 128.42754 
L 177.166343 117.00925 
L 177.501478 117.898216 
L 178.171748 131.979298 
L 178.506883 128.067787 
L 178.842019 116.322289 
L 179.177154 111.60967 
L 179.512289 109.575609 
L 179.847424 117.868801 
L 180.182559 122.919257 
L 180.517694 122.74663 
L 180.852829 126.918413 
L 181.187965 124.018143 
L 181.5231 127.319007 
L 181.858235 132.232498 
L 182.19337 140.21128 
L 182.528505 139.846605 
L 182.86364 133.153406 
L 183.198775 134.185448 
L 184.204181 118.869904 
L 184.539316 133.83519 
L 184.874451 136.706484 
L 185.209586 138.152807 
L 185.544721 122.600771 
L 185.879856 138.163653 
L 186.214992 141.097945 
L 186.550127 147.46258 
L 186.885262 128.835799 
L 187.220397 129.389559 
L 187.555532 130.23137 
L 187.890667 135.616064 
L 188.225802 134.444732 
L 188.560938 134.299665 
L 188.896073 136.59454 
L 189.231208 144.403782 
L 189.901478 131.756812 
L 190.236613 132.244092 
L 190.571748 131.632092 
L 190.906883 133.287059 
L 191.242019 132.239475 
L 191.577154 135.7932 
L 191.912289 132.981345 
L 192.247424 138.180826 
L 192.582559 140.10349 
L 192.917694 150.64386 
L 193.252829 142.946169 
L 193.587965 148.235458 
L 193.9231 150.652452 
L 194.258235 148.873646 
L 194.59337 148.729111 
L 194.928505 136.952266 
L 195.26364 138.688891 
L 195.598775 133.455799 
L 195.93391 134.015112 
L 196.269046 134.944692 
L 196.604181 127.918848 
L 196.939316 135.637846 
L 197.274451 123.961684 
L 197.609586 135.459925 
L 197.944721 132.888409 
L 198.279856 147.313961 
L 198.614992 145.376385 
L 198.950127 142.46658 
L 199.285262 132.922897 
L 199.620397 139.659873 
L 199.955532 136.321286 
L 200.290667 138.79922 
L 200.625802 125.799071 
L 200.960938 132.062941 
L 201.296073 126.832689 
L 201.631208 132.739638 
L 201.966343 134.765387 
L 202.301478 132.383245 
L 202.636613 135.97064 
L 202.971748 134.034989 
L 203.306883 138.554227 
L 203.642019 139.130596 
L 203.977154 141.820134 
L 204.312289 150.690577 
L 204.647424 142.949506 
L 204.982559 148.769667 
L 205.317694 144.203214 
L 205.652829 150.959405 
L 205.987965 148.709475 
L 206.3231 153.089468 
L 206.658235 155.571689 
L 207.328505 136.146151 
L 207.66364 132.219954 
L 207.998775 136.407624 
L 208.33391 143.266083 
L 208.669046 139.430152 
L 209.004181 132.579551 
L 209.339316 134.790244 
L 209.674451 132.375339 
L 210.009586 137.558639 
L 210.344721 140.99049 
L 210.679856 137.799212 
L 211.014992 142.728916 
L 211.350127 139.968066 
L 211.685262 142.677893 
L 212.020397 141.588976 
L 212.690667 147.405307 
L 213.025802 148.384166 
L 213.360938 147.658329 
L 213.696073 146.615637 
L 214.031208 143.763308 
L 214.366343 135.930944 
L 214.701478 138.645022 
L 215.036613 140.398348 
L 215.371748 137.657558 
L 215.706883 143.312599 
L 216.042019 138.21676 
L 216.377154 140.016557 
L 216.712289 132.787609 
L 217.047424 136.358171 
L 217.717694 151.953233 
L 218.387965 141.580485 
L 218.7231 138.762995 
L 219.39337 150.040599 
L 219.728505 144.306034 
L 220.06364 143.76691 
L 220.398775 147.517682 
L 220.73391 148.994525 
L 221.069046 151.470407 
L 221.739316 147.288538 
L 222.074451 144.287139 
L 222.409586 135.295535 
L 222.744721 134.059221 
L 223.079856 129.748728 
L 223.750127 141.785612 
L 224.085262 143.285839 
L 225.090667 135.843581 
L 225.425802 142.671985 
L 225.760938 133.60572 
L 226.096073 135.522454 
L 226.431208 127.417742 
L 226.766343 127.353554 
L 227.101478 127.643211 
L 227.436613 129.905887 
L 227.771748 138.70208 
L 228.106883 129.051187 
L 229.112289 139.930365 
L 229.447424 137.360787 
L 229.782559 136.787892 
L 230.117694 138.453718 
L 230.452829 138.985142 
L 230.787965 139.259902 
L 231.1231 139.306164 
L 231.458235 132.586453 
L 231.79337 131.368815 
L 232.128505 121.883672 
L 232.46364 120.163153 
L 232.798775 122.509285 
L 233.13391 127.454873 
L 233.469046 135.334886 
L 233.804181 137.296305 
L 234.139316 130.754667 
L 234.474451 132.808588 
L 234.809586 130.591733 
L 235.144721 143.906792 
L 235.479856 121.572788 
L 235.814992 127.758239 
L 236.150127 123.392138 
L 236.485262 146.576441 
L 236.820397 131.91535 
L 237.155532 134.108504 
L 237.490667 122.00728 
L 237.825802 123.241419 
L 238.160938 113.647204 
L 238.831208 126.672672 
L 239.166343 125.417599 
L 239.501478 122.92589 
L 239.836613 118.188212 
L 240.171748 122.898209 
L 240.506883 123.544566 
L 241.177154 117.988407 
L 241.512289 123.141465 
L 241.847424 121.810705 
L 242.182559 130.743 
L 242.517694 129.866657 
L 242.852829 131.605169 
L 243.187965 117.083247 
L 243.5231 127.316293 
L 243.858235 130.759653 
L 244.19337 146.687942 
L 244.528505 127.309676 
L 244.86364 121.961566 
L 245.198775 113.963547 
L 245.53391 113.981419 
L 245.869046 119.643292 
L 246.204181 113.747883 
L 246.539316 104.364367 
L 246.874451 105.905627 
L 247.209586 97.862031 
L 247.544721 112.664789 
L 247.879856 110.523233 
L 248.214992 122.31788 
L 248.550127 114.368554 
L 248.885262 119.102246 
L 249.220397 114.372189 
L 249.555532 118.40448 
L 249.890667 119.357437 
L 250.225802 117.018277 
L 250.560938 112.802749 
L 250.896073 105.165358 
L 251.231208 107.025536 
L 251.566343 113.08392 
L 251.901478 114.750665 
L 252.236613 107.949214 
L 252.571748 96.932859 
L 252.906883 95.97259 
L 253.242019 97.143748 
L 253.577154 92.113856 
L 253.912289 98.555509 
L 254.247424 102.128111 
L 254.582559 101.769552 
L 254.917694 99.363762 
L 255.252829 101.718152 
L 255.587965 101.634472 
L 255.9231 103.378995 
L 256.258235 108.378122 
L 256.59337 106.172409 
L 256.928505 107.837205 
L 257.26364 106.30007 
L 257.598775 113.65958 
L 257.93391 112.391913 
L 258.269046 94.56846 
L 258.604181 101.790511 
L 258.939316 89.315208 
L 259.274451 91.952831 
L 259.609586 88.332401 
L 259.944721 94.00393 
L 260.279856 97.683186 
L 260.614992 97.686211 
L 260.950127 95.971089 
L 261.285262 99.183057 
L 261.955532 88.635878 
L 262.290667 87.671078 
L 262.625802 83.38924 
L 262.960938 95.149322 
L 263.296073 86.853293 
L 263.631208 88.319784 
L 264.636613 100.49482 
L 264.971748 97.378027 
L 265.306883 83.054185 
L 265.642019 90.510478 
L 265.977154 82.159346 
L 266.312289 83.462964 
L 266.647424 88.006906 
L 266.982559 88.003271 
L 267.317694 93.788697 
L 267.652829 85.266154 
L 267.987965 94.043185 
L 268.3231 84.690245 
L 268.658235 88.661115 
L 268.99337 83.474653 
L 269.328505 83.58765 
L 269.66364 77.406071 
L 269.998775 76.036543 
L 270.669046 86.099539 
L 271.004181 80.445211 
L 271.674451 77.273713 
L 272.009586 80.579425 
L 272.344721 75.252159 
L 272.679856 78.26372 
L 273.350127 72.706937 
L 273.685262 74.511282 
L 274.020397 73.589025 
L 274.690667 81.75691 
L 275.025802 78.72561 
L 275.360937 76.798312 
L 276.031208 69.570764 
L 276.366343 64.384454 
L 277.036613 65.459823 
L 277.371748 64.789672 
L 277.706883 67.871653 
L 278.042019 68.520597 
L 278.377154 71.945449 
L 278.712289 68.614878 
L 279.047424 69.339128 
L 279.382559 70.617748 
L 279.717694 58.988574 
L 280.052829 68.941501 
L 280.387965 61.009803 
L 280.7231 58.045495 
L 281.058235 61.059164 
L 281.39337 61.224165 
L 281.728505 53.249701 
L 282.06364 60.513177 
L 282.398775 60.403652 
L 282.73391 53.504847 
L 283.069046 63.768576 
L 283.404181 54.585247 
L 283.739316 64.257122 
L 284.074451 60.245233 
L 284.409586 62.171551 
L 284.744721 57.413053 
L 285.079856 61.12839 
L 285.414992 49.943021 
L 285.750127 56.096413 
L 286.085262 54.796852 
L 286.420397 53.949167 
L 286.755532 62.840291 
L 287.090667 57.666439 
L 287.425802 60.244087 
L 287.760938 61.246954 
L 288.096073 54.217783 
L 288.431208 53.008364 
L 288.766343 65.045649 
L 289.101478 54.088925 
L 289.436613 60.007506 
L 289.771748 58.352969 
L 290.106883 54.720547 
L 290.442019 53.980935 
L 290.777154 50.769417 
L 291.112289 56.264244 
L 291.447424 51.534259 
L 291.782559 55.034459 
L 292.452829 58.655426 
L 292.787965 45.69816 
L 293.1231 53.666824 
L 293.458235 46.035101 
L 293.79337 41.667721 
L 294.128505 46.788292 
L 294.46364 46.706983 
L 294.798775 40.135853 
L 295.13391 41.291746 
L 295.469046 42.988331 
L 295.804181 40.777799 
L 296.139316 45.22949 
L 296.474451 52.048359 
L 296.809586 46.722458 
L 297.144721 46.243619 
L 297.479856 52.764552 
L 297.814992 41.041032 
L 298.150127 54.131917 
L 298.485262 42.618751 
L 298.820397 55.672118 
L 299.490667 42.40272 
L 299.825802 43.217823 
L 300.160938 37.401933 
L 300.496073 39.975519 
L 300.831208 39.589675 
L 301.166343 47.835009 
L 301.836613 43.001973 
L 302.506883 37.018027 
L 302.842019 40.608578 
L 303.177154 36.082637 
L 303.512289 39.770079 
L 303.847424 35.84378 
L 304.182559 39.346316 
L 304.517694 33.813667 
L 304.852829 36.118382 
L 305.187965 39.576922 
L 305.5231 34.420189 
L 305.858235 41.033022 
L 306.19337 37.850049 
L 306.528505 30.021294 
L 306.86364 44.222583 
L 307.198775 31.221687 
L 307.53391 36.961102 
L 307.869046 33.288031 
L 308.204181 38.092816 
L 308.874451 29.63326 
L 309.209586 32.014979 
L 309.544721 37.129775 
L 309.879856 37.044431 
L 310.214992 34.113363 
L 310.550127 45.834242 
L 310.885262 36.473755 
L 311.220397 33.065668 
L 311.555532 32.225127 
L 311.890667 34.239745 
L 312.225802 35.202843 
L 312.560938 33.468026 
L 312.896073 37.569954 
L 313.231208 37.401673 
L 313.566343 45.079256 
L 313.901478 35.624773 
L 314.236613 44.138551 
L 314.571748 41.831481 
L 314.906883 36.4068 
L 315.242019 41.157934 
L 315.577154 43.894105 
L 315.912289 44.560411 
L 316.247424 44.575852 
L 316.582559 49.14998 
L 316.917694 48.309735 
L 317.252829 44.477695 
L 317.587965 44.234896 
L 317.9231 36.874156 
L 318.258235 43.918981 
L 318.59337 30.449202 
L 318.928505 46.957057 
L 319.26364 39.059379 
L 319.598775 34.646965 
L 319.93391 45.991613 
L 320.269046 33.770622 
L 320.604181 35.541836 
L 320.939316 47.933564 
L 321.274451 35.406647 
L 321.609586 50.569901 
L 321.944721 45.498197 
L 322.279856 42.321635 
L 322.614992 47.839587 
L 322.950127 45.720402 
L 323.285262 45.275493 
L 323.620397 47.583338 
L 323.955532 50.877977 
L 324.290667 45.069992 
L 324.625802 43.52375 
L 324.960938 46.961423 
L 325.296073 37.787058 
L 325.631208 48.696852 
L 325.966343 45.124277 
L 326.301478 44.477917 
L 326.636613 50.729215 
L 326.971748 43.359785 
L 327.306883 45.091534 
L 327.642019 35.511486 
L 327.977154 44.496565 
L 328.312289 35.428429 
L 328.647424 39.959065 
L 328.982559 40.077851 
L 329.317694 32.271958 
L 329.652829 44.6623 
L 329.987965 36.45386 
L 330.3231 33.873853 
L 330.658235 38.680652 
L 330.99337 35.928813 
L 331.328505 36.188294 
L 331.66364 40.373289 
L 331.998775 37.77281 
L 332.33391 41.117143 
L 332.669046 32.89217 
L 333.004181 42.307078 
L 333.339316 42.233781 
L 333.674451 38.411205 
L 334.009586 48.63178 
L 334.344721 47.94683 
L 334.679856 48.189145 
L 335.014992 46.148011 
L 335.350127 46.176037 
L 335.685262 42.894493 
L 336.020397 47.666361 
L 336.355532 43.065449 
L 336.690667 57.170617 
L 337.025802 50.655244 
L 337.360937 49.999174 
L 337.696073 55.195806 
L 338.366343 40.395061 
L 338.701478 45.095938 
L 339.036613 41.947231 
L 339.371748 45.736016 
L 339.706883 37.463569 
L 340.042019 40.012036 
L 340.377154 47.162935 
L 341.047424 47.078892 
L 341.382559 62.448831 
L 341.717694 50.024813 
L 342.052829 64.340753 
L 342.387965 59.661535 
L 342.7231 49.518438 
L 343.058235 56.92866 
L 343.39337 48.876096 
L 343.728505 45.478299 
L 344.06364 54.763086 
L 344.398775 55.270033 
L 344.73391 54.424948 
L 345.069046 50.304835 
L 345.404181 55.125602 
L 345.739316 48.913569 
L 346.074451 51.29001 
L 346.409586 52.655827 
L 346.744721 52.456548 
L 347.079856 53.615899 
L 347.414992 61.021748 
L 347.750127 63.124303 
L 348.085262 58.817061 
L 348.420397 70.581571 
L 349.090667 66.401892 
L 349.425802 67.684009 
L 349.760938 68.459785 
L 350.096073 63.406975 
L 350.431208 65.83549 
L 350.766343 71.564098 
L 351.101478 63.619925 
L 351.436613 65.762678 
L 351.771748 61.593346 
L 352.106883 66.005151 
L 352.442019 62.964323 
L 352.777154 62.02415 
L 353.112289 65.579087 
L 353.447424 67.93252 
L 353.782559 56.628331 
L 354.452829 65.919713 
L 354.787965 63.187433 
L 355.1231 66.674468 
L 355.458235 61.507148 
L 355.79337 68.52845 
L 356.128505 65.515888 
L 356.798775 73.247525 
L 357.13391 71.570049 
L 357.469046 58.39113 
L 358.139316 69.216977 
L 358.474451 63.278887 
L 358.809586 68.741946 
L 359.479856 65.501448 
L 359.814992 65.910942 
L 360.150127 71.183283 
L 360.485262 73.464967 
L 360.820397 70.814794 
L 361.155532 76.569798 
L 361.490667 73.763091 
L 361.825802 73.883174 
L 362.160938 70.122808 
L 362.496073 72.462849 
L 362.831208 80.494835 
L 363.166343 85.433448 
L 363.501478 92.800479 
L 364.171748 78.837654 
L 364.506883 82.030686 
L 364.842019 82.971859 
L 365.177154 93.211285 
L 365.512289 84.875347 
L 365.847424 80.414624 
L 366.182559 102.085742 
L 366.517694 87.15153 
L 367.187965 95.500623 
L 367.5231 94.249277 
L 367.858235 87.657142 
L 368.19337 101.629179 
L 368.528505 90.428054 
L 368.86364 102.014843 
L 369.198775 92.924216 
L 369.53391 88.858542 
L 369.869046 83.307828 
L 370.204181 88.084642 
L 370.539316 82.297976 
L 370.874451 79.973862 
L 371.209586 98.599058 
L 371.544721 88.513717 
L 371.879856 101.116493 
L 372.214992 97.803271 
L 372.550127 99.535581 
L 372.885262 103.477243 
L 373.220397 104.776653 
L 373.555532 97.457008 
L 373.890667 103.420364 
L 374.225802 98.801704 
L 374.560938 99.221907 
L 374.896073 103.185135 
L 375.231208 93.446465 
L 375.566343 114.713483 
L 375.901478 109.971268 
L 376.236613 118.482123 
L 376.906883 99.137213 
L 377.242019 106.634969 
L 377.577154 100.405242 
L 377.912289 101.477789 
L 378.247424 90.958907 
L 378.582559 106.981819 
L 378.917694 102.287799 
L 379.252829 111.836123 
L 379.9231 96.45815 
L 380.258235 104.022428 
L 381.26364 111.816424 
L 381.93391 114.444425 
L 382.604181 105.722674 
L 382.939316 114.701762 
L 383.274451 117.013699 
L 383.609586 117.66338 
L 383.944721 105.901209 
L 384.279856 107.571158 
L 384.614992 108.341613 
L 384.950127 112.396332 
L 385.285262 107.799868 
L 385.620397 107.858525 
L 385.955532 103.126762 
L 386.290667 113.227028 
L 386.625802 111.993186 
L 386.960938 115.688926 
L 386.960938 115.688926 
" clip-path="url(#p6ab48af28d)" style="fill: none; stroke-dasharray: 5.55,2.4; stroke-dashoffset: 0; stroke: #bf00bf; stroke-width: 1.5"/>
   </g>
   <g id="patch_3">
    <path d="M 52.160938 170.501409 
L 52.160938 7.421409 
" style="fill: none; stroke: #000000; stroke-width: 0.8; stroke-linejoin: miter; stroke-linecap: square"/>
   </g>
   <g id="patch_4">
    <path d="M 386.960938 170.501409 
L 386.960938 7.421409 
" style="fill: none; stroke: #000000; stroke-width: 0.8; stroke-linejoin: miter; stroke-linecap: square"/>
   </g>
   <g id="patch_5">
    <path d="M 52.160938 170.501409 
L 386.960938 170.501409 
" style="fill: none; stroke: #000000; stroke-width: 0.8; stroke-linejoin: miter; stroke-linecap: square"/>
   </g>
   <g id="patch_6">
    <path d="M 52.160938 7.421409 
L 386.960938 7.421409 
" style="fill: none; stroke: #000000; stroke-width: 0.8; stroke-linejoin: miter; stroke-linecap: square"/>
   </g>
   <g id="legend_1">
    <g id="patch_7">
     <path d="M 59.160938 165.501409 
L 153.885938 165.501409 
Q 155.885938 165.501409 155.885938 163.501409 
L 155.885938 135.145159 
Q 155.885938 133.145159 153.885938 133.145159 
L 59.160938 133.145159 
Q 57.160938 133.145159 57.160938 135.145159 
L 57.160938 163.501409 
Q 57.160938 165.501409 59.160938 165.501409 
z
" style="fill: #ffffff; opacity: 0.8; stroke: #cccccc; stroke-linejoin: miter"/>
    </g>
    <g id="line2d_27">
     <path d="M 61.160938 141.243597 
L 71.160938 141.243597 
L 81.160938 141.243597 
" style="fill: none; stroke: #1f77b4; stroke-width: 1.5; stroke-linecap: square"/>
    </g>
    <g id="text_15">
     <!-- data -->
     <g transform="translate(89.160938 144.743597)scale(0.1 -0.1)">
      <defs>
       <path id="DejaVuSans-64" d="M 2906 2969 
L 2906 4863 
L 3481 4863 
L 3481 0 
L 2906 0 
L 2906 525 
Q 2725 213 2448 61 
Q 2172 -91 1784 -91 
Q 1150 -91 751 415 
Q 353 922 353 1747 
Q 353 2572 751 3078 
Q 1150 3584 1784 3584 
Q 2172 3584 2448 3432 
Q 2725 3281 2906 2969 
z
M 947 1747 
Q 947 1113 1208 752 
Q 1469 391 1925 391 
Q 2381 391 2643 752 
Q 2906 1113 2906 1747 
Q 2906 2381 2643 2742 
Q 2381 3103 1925 3103 
Q 1469 3103 1208 2742 
Q 947 2381 947 1747 
z
" transform="scale(0.015625)"/>
       <path id="DejaVuSans-61" d="M 2194 1759 
Q 1497 1759 1228 1600 
Q 959 1441 959 1056 
Q 959 750 1161 570 
Q 1363 391 1709 391 
Q 2188 391 2477 730 
Q 2766 1069 2766 1631 
L 2766 1759 
L 2194 1759 
z
M 3341 1997 
L 3341 0 
L 2766 0 
L 2766 531 
Q 2569 213 2275 61 
Q 1981 -91 1556 -91 
Q 1019 -91 701 211 
Q 384 513 384 1019 
Q 384 1609 779 1909 
Q 1175 2209 1959 2209 
L 2766 2209 
L 2766 2266 
Q 2766 2663 2505 2880 
Q 2244 3097 1772 3097 
Q 1472 3097 1187 3025 
Q 903 2953 641 2809 
L 641 3341 
Q 956 3463 1253 3523 
Q 1550 3584 1831 3584 
Q 2591 3584 2966 3190 
Q 3341 2797 3341 1997 
z
" transform="scale(0.015625)"/>
      </defs>
      <use xlink:href="#DejaVuSans-64"/>
      <use xlink:href="#DejaVuSans-61" x="63.476562"/>
      <use xlink:href="#DejaVuSans-74" x="124.755859"/>
      <use xlink:href="#DejaVuSans-61" x="163.964844"/>
     </g>
    </g>
    <g id="line2d_28">
     <path d="M 61.160938 155.921722 
L 71.160938 155.921722 
L 81.160938 155.921722 
" style="fill: none; stroke-dasharray: 5.55,2.4; stroke-dashoffset: 0; stroke: #bf00bf; stroke-width: 1.5"/>
    </g>
    <g id="text_16">
     <!-- 1-step preds -->
     <g transform="translate(89.160938 159.421722)scale(0.1 -0.1)">
      <defs>
       <path id="DejaVuSans-2d" d="M 313 2009 
L 1997 2009 
L 1997 1497 
L 313 1497 
L 313 2009 
z
" transform="scale(0.015625)"/>
       <path id="DejaVuSans-73" d="M 2834 3397 
L 2834 2853 
Q 2591 2978 2328 3040 
Q 2066 3103 1784 3103 
Q 1356 3103 1142 2972 
Q 928 2841 928 2578 
Q 928 2378 1081 2264 
Q 1234 2150 1697 2047 
L 1894 2003 
Q 2506 1872 2764 1633 
Q 3022 1394 3022 966 
Q 3022 478 2636 193 
Q 2250 -91 1575 -91 
Q 1294 -91 989 -36 
Q 684 19 347 128 
L 347 722 
Q 666 556 975 473 
Q 1284 391 1588 391 
Q 1994 391 2212 530 
Q 2431 669 2431 922 
Q 2431 1156 2273 1281 
Q 2116 1406 1581 1522 
L 1381 1569 
Q 847 1681 609 1914 
Q 372 2147 372 2553 
Q 372 3047 722 3315 
Q 1072 3584 1716 3584 
Q 2034 3584 2315 3537 
Q 2597 3491 2834 3397 
z
" transform="scale(0.015625)"/>
       <path id="DejaVuSans-70" d="M 1159 525 
L 1159 -1331 
L 581 -1331 
L 581 3500 
L 1159 3500 
L 1159 2969 
Q 1341 3281 1617 3432 
Q 1894 3584 2278 3584 
Q 2916 3584 3314 3078 
Q 3713 2572 3713 1747 
Q 3713 922 3314 415 
Q 2916 -91 2278 -91 
Q 1894 -91 1617 61 
Q 1341 213 1159 525 
z
M 3116 1747 
Q 3116 2381 2855 2742 
Q 2594 3103 2138 3103 
Q 1681 3103 1420 2742 
Q 1159 2381 1159 1747 
Q 1159 1113 1420 752 
Q 1681 391 2138 391 
Q 2594 391 2855 752 
Q 3116 1113 3116 1747 
z
" transform="scale(0.015625)"/>
       <path id="DejaVuSans-20" transform="scale(0.015625)"/>
       <path id="DejaVuSans-72" d="M 2631 2963 
Q 2534 3019 2420 3045 
Q 2306 3072 2169 3072 
Q 1681 3072 1420 2755 
Q 1159 2438 1159 1844 
L 1159 0 
L 581 0 
L 581 3500 
L 1159 3500 
L 1159 2956 
Q 1341 3275 1631 3429 
Q 1922 3584 2338 3584 
Q 2397 3584 2469 3576 
Q 2541 3569 2628 3553 
L 2631 2963 
z
" transform="scale(0.015625)"/>
      </defs>
      <use xlink:href="#DejaVuSans-31"/>
      <use xlink:href="#DejaVuSans-2d" x="63.623047"/>
      <use xlink:href="#DejaVuSans-73" x="99.707031"/>
      <use xlink:href="#DejaVuSans-74" x="151.806641"/>
      <use xlink:href="#DejaVuSans-65" x="191.015625"/>
      <use xlink:href="#DejaVuSans-70" x="252.539062"/>
      <use xlink:href="#DejaVuSans-20" x="316.015625"/>
      <use xlink:href="#DejaVuSans-70" x="347.802734"/>
      <use xlink:href="#DejaVuSans-72" x="411.279297"/>
      <use xlink:href="#DejaVuSans-65" x="450.142578"/>
      <use xlink:href="#DejaVuSans-64" x="511.666016"/>
      <use xlink:href="#DejaVuSans-73" x="575.142578"/>
     </g>
    </g>
   </g>
  </g>
 </g>
 <defs>
  <clipPath id="p6ab48af28d">
   <rect x="52.160938" y="7.421409" width="334.8" height="163.08"/>
  </clipPath>
 </defs>
</svg>
