<?xml version="1.0" encoding="utf-8" standalone="no"?>
<!DOCTYPE svg PUBLIC "-//W3C//DTD SVG 1.1//EN"
  "http://www.w3.org/Graphics/SVG/1.1/DTD/svg11.dtd">
<svg xmlns:xlink="http://www.w3.org/1999/xlink" width="406.885938pt" height="207.83625pt" viewBox="0 0 406.885938 207.83625" xmlns="http://www.w3.org/2000/svg" version="1.1">
 <metadata>
  <rdf:RDF xmlns:dc="http://purl.org/dc/elements/1.1/" xmlns:cc="http://creativecommons.org/ns#" xmlns:rdf="http://www.w3.org/1999/02/22-rdf-syntax-ns#">
   <cc:Work>
    <dc:type rdf:resource="http://purl.org/dc/dcmitype/StillImage"/>
    <dc:date>2023-08-18T07:00:34.491900</dc:date>
    <dc:format>image/svg+xml</dc:format>
    <dc:creator>
     <cc:Agent>
      <dc:title>Matplotlib v3.5.1, https://matplotlib.org/</dc:title>
     </cc:Agent>
    </dc:creator>
   </cc:Work>
  </rdf:RDF>
 </metadata>
 <defs>
  <style type="text/css">*{stroke-linejoin: round; stroke-linecap: butt}</style>
 </defs>
 <g id="figure_1">
  <g id="patch_1">
   <path d="M 0 207.83625 
L 406.885938 207.83625 
L 406.885938 0 
L 0 0 
L 0 207.83625 
z
" style="fill: none"/>
  </g>
  <g id="axes_1">
   <g id="patch_2">
    <path d="M 52.160938 170.28 
L 386.960938 170.28 
L 386.960938 7.2 
L 52.160938 7.2 
z
" style="fill: #ffffff"/>
   </g>
   <g id="matplotlib.axis_1">
    <g id="xtick_1">
     <g id="line2d_1">
      <path d="M 117.775008 170.28 
L 117.775008 7.2 
" clip-path="url(#p48090c1046)" style="fill: none; stroke: #b0b0b0; stroke-width: 0.8; stroke-linecap: square"/>
     </g>
     <g id="line2d_2">
      <defs>
       <path id="m3de4c3ec4a" d="M 0 0 
L 0 3.5 
" style="stroke: #000000; stroke-width: 0.8"/>
      </defs>
      <g>
       <use xlink:href="#m3de4c3ec4a" x="117.775008" y="170.28" style="stroke: #000000; stroke-width: 0.8"/>
      </g>
     </g>
     <g id="text_1">
      <!-- 200 -->
      <g transform="translate(108.231258 184.878438)scale(0.1 -0.1)">
       <defs>
        <path id="DejaVuSans-32" d="M 1228 531 
L 3431 531 
L 3431 0 
L 469 0 
L 469 531 
Q 828 903 1448 1529 
Q 2069 2156 2228 2338 
Q 2531 2678 2651 2914 
Q 2772 3150 2772 3378 
Q 2772 3750 2511 3984 
Q 2250 4219 1831 4219 
Q 1534 4219 1204 4116 
Q 875 4013 500 3803 
L 500 4441 
Q 881 4594 1212 4672 
Q 1544 4750 1819 4750 
Q 2544 4750 2975 4387 
Q 3406 4025 3406 3419 
Q 3406 3131 3298 2873 
Q 3191 2616 2906 2266 
Q 2828 2175 2409 1742 
Q 1991 1309 1228 531 
z
" transform="scale(0.015625)"/>
        <path id="DejaVuSans-30" d="M 2034 4250 
Q 1547 4250 1301 3770 
Q 1056 3291 1056 2328 
Q 1056 1369 1301 889 
Q 1547 409 2034 409 
Q 2525 409 2770 889 
Q 3016 1369 3016 2328 
Q 3016 3291 2770 3770 
Q 2525 4250 2034 4250 
z
M 2034 4750 
Q 2819 4750 3233 4129 
Q 3647 3509 3647 2328 
Q 3647 1150 3233 529 
Q 2819 -91 2034 -91 
Q 1250 -91 836 529 
Q 422 1150 422 2328 
Q 422 3509 836 4129 
Q 1250 4750 2034 4750 
z
" transform="scale(0.015625)"/>
       </defs>
       <use xlink:href="#DejaVuSans-32"/>
       <use xlink:href="#DejaVuSans-30" x="63.623047"/>
       <use xlink:href="#DejaVuSans-30" x="127.246094"/>
      </g>
     </g>
    </g>
    <g id="xtick_2">
     <g id="line2d_3">
      <path d="M 185.07149 170.28 
L 185.07149 7.2 
" clip-path="url(#p48090c1046)" style="fill: none; stroke: #b0b0b0; stroke-width: 0.8; stroke-linecap: square"/>
     </g>
     <g id="line2d_4">
      <g>
       <use xlink:href="#m3de4c3ec4a" x="185.07149" y="170.28" style="stroke: #000000; stroke-width: 0.8"/>
      </g>
     </g>
     <g id="text_2">
      <!-- 400 -->
      <g transform="translate(175.52774 184.878438)scale(0.1 -0.1)">
       <defs>
        <path id="DejaVuSans-34" d="M 2419 4116 
L 825 1625 
L 2419 1625 
L 2419 4116 
z
M 2253 4666 
L 3047 4666 
L 3047 1625 
L 3713 1625 
L 3713 1100 
L 3047 1100 
L 3047 0 
L 2419 0 
L 2419 1100 
L 313 1100 
L 313 1709 
L 2253 4666 
z
" transform="scale(0.015625)"/>
       </defs>
       <use xlink:href="#DejaVuSans-34"/>
       <use xlink:href="#DejaVuSans-30" x="63.623047"/>
       <use xlink:href="#DejaVuSans-30" x="127.246094"/>
      </g>
     </g>
    </g>
    <g id="xtick_3">
     <g id="line2d_5">
      <path d="M 252.367973 170.28 
L 252.367973 7.2 
" clip-path="url(#p48090c1046)" style="fill: none; stroke: #b0b0b0; stroke-width: 0.8; stroke-linecap: square"/>
     </g>
     <g id="line2d_6">
      <g>
       <use xlink:href="#m3de4c3ec4a" x="252.367973" y="170.28" style="stroke: #000000; stroke-width: 0.8"/>
      </g>
     </g>
     <g id="text_3">
      <!-- 600 -->
      <g transform="translate(242.824223 184.878438)scale(0.1 -0.1)">
       <defs>
        <path id="DejaVuSans-36" d="M 2113 2584 
Q 1688 2584 1439 2293 
Q 1191 2003 1191 1497 
Q 1191 994 1439 701 
Q 1688 409 2113 409 
Q 2538 409 2786 701 
Q 3034 994 3034 1497 
Q 3034 2003 2786 2293 
Q 2538 2584 2113 2584 
z
M 3366 4563 
L 3366 3988 
Q 3128 4100 2886 4159 
Q 2644 4219 2406 4219 
Q 1781 4219 1451 3797 
Q 1122 3375 1075 2522 
Q 1259 2794 1537 2939 
Q 1816 3084 2150 3084 
Q 2853 3084 3261 2657 
Q 3669 2231 3669 1497 
Q 3669 778 3244 343 
Q 2819 -91 2113 -91 
Q 1303 -91 875 529 
Q 447 1150 447 2328 
Q 447 3434 972 4092 
Q 1497 4750 2381 4750 
Q 2619 4750 2861 4703 
Q 3103 4656 3366 4563 
z
" transform="scale(0.015625)"/>
       </defs>
       <use xlink:href="#DejaVuSans-36"/>
       <use xlink:href="#DejaVuSans-30" x="63.623047"/>
       <use xlink:href="#DejaVuSans-30" x="127.246094"/>
      </g>
     </g>
    </g>
    <g id="xtick_4">
     <g id="line2d_7">
      <path d="M 319.664455 170.28 
L 319.664455 7.2 
" clip-path="url(#p48090c1046)" style="fill: none; stroke: #b0b0b0; stroke-width: 0.8; stroke-linecap: square"/>
     </g>
     <g id="line2d_8">
      <g>
       <use xlink:href="#m3de4c3ec4a" x="319.664455" y="170.28" style="stroke: #000000; stroke-width: 0.8"/>
      </g>
     </g>
     <g id="text_4">
      <!-- 800 -->
      <g transform="translate(310.120705 184.878438)scale(0.1 -0.1)">
       <defs>
        <path id="DejaVuSans-38" d="M 2034 2216 
Q 1584 2216 1326 1975 
Q 1069 1734 1069 1313 
Q 1069 891 1326 650 
Q 1584 409 2034 409 
Q 2484 409 2743 651 
Q 3003 894 3003 1313 
Q 3003 1734 2745 1975 
Q 2488 2216 2034 2216 
z
M 1403 2484 
Q 997 2584 770 2862 
Q 544 3141 544 3541 
Q 544 4100 942 4425 
Q 1341 4750 2034 4750 
Q 2731 4750 3128 4425 
Q 3525 4100 3525 3541 
Q 3525 3141 3298 2862 
Q 3072 2584 2669 2484 
Q 3125 2378 3379 2068 
Q 3634 1759 3634 1313 
Q 3634 634 3220 271 
Q 2806 -91 2034 -91 
Q 1263 -91 848 271 
Q 434 634 434 1313 
Q 434 1759 690 2068 
Q 947 2378 1403 2484 
z
M 1172 3481 
Q 1172 3119 1398 2916 
Q 1625 2713 2034 2713 
Q 2441 2713 2670 2916 
Q 2900 3119 2900 3481 
Q 2900 3844 2670 4047 
Q 2441 4250 2034 4250 
Q 1625 4250 1398 4047 
Q 1172 3844 1172 3481 
z
" transform="scale(0.015625)"/>
       </defs>
       <use xlink:href="#DejaVuSans-38"/>
       <use xlink:href="#DejaVuSans-30" x="63.623047"/>
       <use xlink:href="#DejaVuSans-30" x="127.246094"/>
      </g>
     </g>
    </g>
    <g id="xtick_5">
     <g id="line2d_9">
      <path d="M 386.960938 170.28 
L 386.960938 7.2 
" clip-path="url(#p48090c1046)" style="fill: none; stroke: #b0b0b0; stroke-width: 0.8; stroke-linecap: square"/>
     </g>
     <g id="line2d_10">
      <g>
       <use xlink:href="#m3de4c3ec4a" x="386.960938" y="170.28" style="stroke: #000000; stroke-width: 0.8"/>
      </g>
     </g>
     <g id="text_5">
      <!-- 1000 -->
      <g transform="translate(374.235938 184.878438)scale(0.1 -0.1)">
       <defs>
        <path id="DejaVuSans-31" d="M 794 531 
L 1825 531 
L 1825 4091 
L 703 3866 
L 703 4441 
L 1819 4666 
L 2450 4666 
L 2450 531 
L 3481 531 
L 3481 0 
L 794 0 
L 794 531 
z
" transform="scale(0.015625)"/>
       </defs>
       <use xlink:href="#DejaVuSans-31"/>
       <use xlink:href="#DejaVuSans-30" x="63.623047"/>
       <use xlink:href="#DejaVuSans-30" x="127.246094"/>
       <use xlink:href="#DejaVuSans-30" x="190.869141"/>
      </g>
     </g>
    </g>
    <g id="text_6">
     <!-- time -->
     <g transform="translate(208.264844 198.556563)scale(0.1 -0.1)">
      <defs>
       <path id="DejaVuSans-74" d="M 1172 4494 
L 1172 3500 
L 2356 3500 
L 2356 3053 
L 1172 3053 
L 1172 1153 
Q 1172 725 1289 603 
Q 1406 481 1766 481 
L 2356 481 
L 2356 0 
L 1766 0 
Q 1100 0 847 248 
Q 594 497 594 1153 
L 594 3053 
L 172 3053 
L 172 3500 
L 594 3500 
L 594 4494 
L 1172 4494 
z
" transform="scale(0.015625)"/>
       <path id="DejaVuSans-69" d="M 603 3500 
L 1178 3500 
L 1178 0 
L 603 0 
L 603 3500 
z
M 603 4863 
L 1178 4863 
L 1178 4134 
L 603 4134 
L 603 4863 
z
" transform="scale(0.015625)"/>
       <path id="DejaVuSans-6d" d="M 3328 2828 
Q 3544 3216 3844 3400 
Q 4144 3584 4550 3584 
Q 5097 3584 5394 3201 
Q 5691 2819 5691 2113 
L 5691 0 
L 5113 0 
L 5113 2094 
Q 5113 2597 4934 2840 
Q 4756 3084 4391 3084 
Q 3944 3084 3684 2787 
Q 3425 2491 3425 1978 
L 3425 0 
L 2847 0 
L 2847 2094 
Q 2847 2600 2669 2842 
Q 2491 3084 2119 3084 
Q 1678 3084 1418 2786 
Q 1159 2488 1159 1978 
L 1159 0 
L 581 0 
L 581 3500 
L 1159 3500 
L 1159 2956 
Q 1356 3278 1631 3431 
Q 1906 3584 2284 3584 
Q 2666 3584 2933 3390 
Q 3200 3197 3328 2828 
z
" transform="scale(0.015625)"/>
       <path id="DejaVuSans-65" d="M 3597 1894 
L 3597 1613 
L 953 1613 
Q 991 1019 1311 708 
Q 1631 397 2203 397 
Q 2534 397 2845 478 
Q 3156 559 3463 722 
L 3463 178 
Q 3153 47 2828 -22 
Q 2503 -91 2169 -91 
Q 1331 -91 842 396 
Q 353 884 353 1716 
Q 353 2575 817 3079 
Q 1281 3584 2069 3584 
Q 2775 3584 3186 3129 
Q 3597 2675 3597 1894 
z
M 3022 2063 
Q 3016 2534 2758 2815 
Q 2500 3097 2075 3097 
Q 1594 3097 1305 2825 
Q 1016 2553 972 2059 
L 3022 2063 
z
" transform="scale(0.015625)"/>
      </defs>
      <use xlink:href="#DejaVuSans-74"/>
      <use xlink:href="#DejaVuSans-69" x="39.208984"/>
      <use xlink:href="#DejaVuSans-6d" x="66.992188"/>
      <use xlink:href="#DejaVuSans-65" x="164.404297"/>
     </g>
    </g>
   </g>
   <g id="matplotlib.axis_2">
    <g id="ytick_1">
     <g id="line2d_11">
      <path d="M 52.160938 149.070207 
L 386.960938 149.070207 
" clip-path="url(#p48090c1046)" style="fill: none; stroke: #b0b0b0; stroke-width: 0.8; stroke-linecap: square"/>
     </g>
     <g id="line2d_12">
      <defs>
       <path id="m1ce58c4b81" d="M 0 0 
L -3.5 0 
" style="stroke: #000000; stroke-width: 0.8"/>
      </defs>
      <g>
       <use xlink:href="#m1ce58c4b81" x="52.160938" y="149.070207" style="stroke: #000000; stroke-width: 0.8"/>
      </g>
     </g>
     <g id="text_7">
      <!-- −1.5 -->
      <g transform="translate(20.878125 152.869426)scale(0.1 -0.1)">
       <defs>
        <path id="DejaVuSans-2212" d="M 678 2272 
L 4684 2272 
L 4684 1741 
L 678 1741 
L 678 2272 
z
" transform="scale(0.015625)"/>
        <path id="DejaVuSans-2e" d="M 684 794 
L 1344 794 
L 1344 0 
L 684 0 
L 684 794 
z
" transform="scale(0.015625)"/>
        <path id="DejaVuSans-35" d="M 691 4666 
L 3169 4666 
L 3169 4134 
L 1269 4134 
L 1269 2991 
Q 1406 3038 1543 3061 
Q 1681 3084 1819 3084 
Q 2600 3084 3056 2656 
Q 3513 2228 3513 1497 
Q 3513 744 3044 326 
Q 2575 -91 1722 -91 
Q 1428 -91 1123 -41 
Q 819 9 494 109 
L 494 744 
Q 775 591 1075 516 
Q 1375 441 1709 441 
Q 2250 441 2565 725 
Q 2881 1009 2881 1497 
Q 2881 1984 2565 2268 
Q 2250 2553 1709 2553 
Q 1456 2553 1204 2497 
Q 953 2441 691 2322 
L 691 4666 
z
" transform="scale(0.015625)"/>
       </defs>
       <use xlink:href="#DejaVuSans-2212"/>
       <use xlink:href="#DejaVuSans-31" x="83.789062"/>
       <use xlink:href="#DejaVuSans-2e" x="147.412109"/>
       <use xlink:href="#DejaVuSans-35" x="179.199219"/>
      </g>
     </g>
    </g>
    <g id="ytick_2">
     <g id="line2d_13">
      <path d="M 52.160938 124.029309 
L 386.960938 124.029309 
" clip-path="url(#p48090c1046)" style="fill: none; stroke: #b0b0b0; stroke-width: 0.8; stroke-linecap: square"/>
     </g>
     <g id="line2d_14">
      <g>
       <use xlink:href="#m1ce58c4b81" x="52.160938" y="124.029309" style="stroke: #000000; stroke-width: 0.8"/>
      </g>
     </g>
     <g id="text_8">
      <!-- −1.0 -->
      <g transform="translate(20.878125 127.828528)scale(0.1 -0.1)">
       <use xlink:href="#DejaVuSans-2212"/>
       <use xlink:href="#DejaVuSans-31" x="83.789062"/>
       <use xlink:href="#DejaVuSans-2e" x="147.412109"/>
       <use xlink:href="#DejaVuSans-30" x="179.199219"/>
      </g>
     </g>
    </g>
    <g id="ytick_3">
     <g id="line2d_15">
      <path d="M 52.160938 98.988412 
L 386.960938 98.988412 
" clip-path="url(#p48090c1046)" style="fill: none; stroke: #b0b0b0; stroke-width: 0.8; stroke-linecap: square"/>
     </g>
     <g id="line2d_16">
      <g>
       <use xlink:href="#m1ce58c4b81" x="52.160938" y="98.988412" style="stroke: #000000; stroke-width: 0.8"/>
      </g>
     </g>
     <g id="text_9">
      <!-- −0.5 -->
      <g transform="translate(20.878125 102.78763)scale(0.1 -0.1)">
       <use xlink:href="#DejaVuSans-2212"/>
       <use xlink:href="#DejaVuSans-30" x="83.789062"/>
       <use xlink:href="#DejaVuSans-2e" x="147.412109"/>
       <use xlink:href="#DejaVuSans-35" x="179.199219"/>
      </g>
     </g>
    </g>
    <g id="ytick_4">
     <g id="line2d_17">
      <path d="M 52.160938 73.947514 
L 386.960938 73.947514 
" clip-path="url(#p48090c1046)" style="fill: none; stroke: #b0b0b0; stroke-width: 0.8; stroke-linecap: square"/>
     </g>
     <g id="line2d_18">
      <g>
       <use xlink:href="#m1ce58c4b81" x="52.160938" y="73.947514" style="stroke: #000000; stroke-width: 0.8"/>
      </g>
     </g>
     <g id="text_10">
      <!-- 0.0 -->
      <g transform="translate(29.257812 77.746733)scale(0.1 -0.1)">
       <use xlink:href="#DejaVuSans-30"/>
       <use xlink:href="#DejaVuSans-2e" x="63.623047"/>
       <use xlink:href="#DejaVuSans-30" x="95.410156"/>
      </g>
     </g>
    </g>
    <g id="ytick_5">
     <g id="line2d_19">
      <path d="M 52.160938 48.906617 
L 386.960938 48.906617 
" clip-path="url(#p48090c1046)" style="fill: none; stroke: #b0b0b0; stroke-width: 0.8; stroke-linecap: square"/>
     </g>
     <g id="line2d_20">
      <g>
       <use xlink:href="#m1ce58c4b81" x="52.160938" y="48.906617" style="stroke: #000000; stroke-width: 0.8"/>
      </g>
     </g>
     <g id="text_11">
      <!-- 0.5 -->
      <g transform="translate(29.257812 52.705835)scale(0.1 -0.1)">
       <use xlink:href="#DejaVuSans-30"/>
       <use xlink:href="#DejaVuSans-2e" x="63.623047"/>
       <use xlink:href="#DejaVuSans-35" x="95.410156"/>
      </g>
     </g>
    </g>
    <g id="ytick_6">
     <g id="line2d_21">
      <path d="M 52.160938 23.865719 
L 386.960938 23.865719 
" clip-path="url(#p48090c1046)" style="fill: none; stroke: #b0b0b0; stroke-width: 0.8; stroke-linecap: square"/>
     </g>
     <g id="line2d_22">
      <g>
       <use xlink:href="#m1ce58c4b81" x="52.160938" y="23.865719" style="stroke: #000000; stroke-width: 0.8"/>
      </g>
     </g>
     <g id="text_12">
      <!-- 1.0 -->
      <g transform="translate(29.257812 27.664938)scale(0.1 -0.1)">
       <use xlink:href="#DejaVuSans-31"/>
       <use xlink:href="#DejaVuSans-2e" x="63.623047"/>
       <use xlink:href="#DejaVuSans-30" x="95.410156"/>
      </g>
     </g>
    </g>
    <g id="text_13">
     <!-- x -->
     <g transform="translate(14.798438 91.699375)rotate(-90)scale(0.1 -0.1)">
      <defs>
       <path id="DejaVuSans-78" d="M 3513 3500 
L 2247 1797 
L 3578 0 
L 2900 0 
L 1881 1375 
L 863 0 
L 184 0 
L 1544 1831 
L 300 3500 
L 978 3500 
L 1906 2253 
L 2834 3500 
L 3513 3500 
z
" transform="scale(0.015625)"/>
      </defs>
      <use xlink:href="#DejaVuSans-78"/>
     </g>
    </g>
   </g>
   <g id="line2d_23">
    <path d="M 52.160938 66.013471 
L 52.49742 67.873006 
L 52.833902 78.812359 
L 53.506867 74.998065 
L 53.84335 63.623222 
L 54.179832 67.524876 
L 54.516314 62.147297 
L 54.852797 61.846616 
L 55.189279 48.866159 
L 56.198726 69.783679 
L 56.871691 76.761905 
L 57.208174 63.786385 
L 57.544656 63.470433 
L 57.881139 58.355725 
L 58.217621 57.716505 
L 58.554103 59.895175 
L 58.890586 51.719334 
L 59.227068 51.02167 
L 59.563551 50.695639 
L 59.900033 46.528543 
L 60.236515 50.224074 
L 60.572998 61.878627 
L 61.245963 67.037524 
L 61.582445 73.075957 
L 61.918927 66.28458 
L 62.25541 65.811465 
L 62.591892 65.061107 
L 62.928375 69.529123 
L 63.264857 76.095299 
L 64.274304 59.858685 
L 64.610787 59.371116 
L 64.947269 57.267843 
L 65.283752 52.881202 
L 65.620234 53.974485 
L 65.956716 51.385368 
L 66.293199 59.003816 
L 66.629681 61.872685 
L 66.966164 58.077007 
L 67.302646 56.414822 
L 67.639128 49.059623 
L 67.975611 47.633179 
L 68.312093 41.608112 
L 68.648576 49.184512 
L 69.321541 44.175618 
L 69.658023 46.810892 
L 69.994505 40.428648 
L 70.330988 54.284591 
L 70.66747 44.441152 
L 71.003953 53.870785 
L 71.340435 46.94289 
L 71.676917 43.963329 
L 72.349882 32.016496 
L 72.686365 38.924521 
L 73.022847 37.221088 
L 73.359329 38.310679 
L 73.695812 42.574774 
L 74.032294 42.44879 
L 74.368777 39.060451 
L 74.705259 40.130481 
L 75.041742 45.011174 
L 75.714706 43.631105 
L 76.051189 28.241099 
L 76.387671 38.368214 
L 76.724154 36.351126 
L 77.060636 24.364372 
L 77.397118 33.853665 
L 77.733601 35.511218 
L 78.070083 33.428081 
L 78.406566 34.019091 
L 78.743048 41.773702 
L 79.416013 28.321977 
L 79.752495 29.374398 
L 80.088978 25.166402 
L 80.42546 24.224019 
L 80.761943 35.196146 
L 81.098425 30.119755 
L 81.434907 34.482684 
L 81.77139 36.196476 
L 82.107872 32.436918 
L 82.444355 35.727116 
L 82.780837 32.856899 
L 83.117319 31.813195 
L 83.453802 32.586397 
L 83.790284 25.133602 
L 84.126767 34.7118 
L 84.463249 30.057802 
L 84.799731 32.843979 
L 85.136214 27.578963 
L 85.472696 29.793361 
L 85.809179 24.217204 
L 86.482144 33.505055 
L 86.818626 27.591109 
L 87.155108 33.820993 
L 87.491591 37.754213 
L 87.828073 37.933931 
L 88.164556 42.566717 
L 88.83752 34.112167 
L 89.174003 31.556777 
L 89.510485 26.673478 
L 89.846968 25.465898 
L 90.18345 24.949301 
L 91.192897 26.870245 
L 91.52938 24.157451 
L 91.865862 32.789265 
L 92.202345 35.869673 
L 92.538827 28.748104 
L 93.211792 44.481141 
L 93.548274 34.901029 
L 93.884757 34.789622 
L 94.221239 30.742485 
L 94.557721 28.371572 
L 94.894204 24.669847 
L 95.230686 28.363425 
L 95.567169 33.460703 
L 95.903651 28.879201 
L 96.240133 22.137622 
L 96.576616 31.082318 
L 97.249581 24.687594 
L 97.586063 36.039436 
L 97.922546 36.375684 
L 98.259028 32.399198 
L 98.59551 33.853743 
L 98.931993 31.709137 
L 99.268475 30.792915 
L 99.604958 27.45089 
L 99.94144 29.018292 
L 100.277922 28.079148 
L 100.614405 24.271446 
L 100.950887 27.435266 
L 101.28737 24.019963 
L 101.623852 26.884445 
L 101.960334 18.506203 
L 102.296817 27.033584 
L 102.633299 20.583701 
L 102.969782 21.933065 
L 103.306264 19.121255 
L 103.642747 26.329979 
L 103.979229 21.068118 
L 104.315711 21.659671 
L 104.652194 19.499241 
L 104.988676 30.469347 
L 105.325159 21.02558 
L 105.661641 23.628475 
L 105.998123 27.498795 
L 106.334606 16.959535 
L 106.671088 19.283531 
L 107.007571 19.072729 
L 107.344053 17.341104 
L 107.680535 21.060918 
L 108.017018 20.828766 
L 108.3535 26.589403 
L 108.689983 23.185556 
L 109.026465 31.643321 
L 109.362948 24.978836 
L 109.69943 35.222045 
L 110.035912 28.955077 
L 110.372395 27.818064 
L 110.708877 24.947292 
L 111.04536 19.831967 
L 111.381842 27.449505 
L 111.718324 24.961164 
L 112.054807 20.389997 
L 112.391289 34.21901 
L 112.727772 24.603781 
L 113.064254 24.563416 
L 113.400736 29.339078 
L 113.737219 21.348205 
L 114.073701 27.621044 
L 114.410184 25.900168 
L 114.746666 17.352602 
L 115.083149 25.474453 
L 115.419631 22.344287 
L 115.756113 16.228088 
L 116.092596 16.501011 
L 116.429078 20.919507 
L 116.765561 14.781828 
L 117.102043 17.325157 
L 117.438525 17.802476 
L 117.775008 20.424839 
L 118.11149 18.095745 
L 118.447973 19.722503 
L 118.784455 18.753925 
L 119.45742 28.839461 
L 119.793902 23.900696 
L 120.130385 28.488675 
L 120.466867 30.450983 
L 120.80335 21.716262 
L 121.139832 18.620383 
L 121.476314 31.979761 
L 121.812797 21.927363 
L 122.149279 20.631397 
L 122.485762 29.385186 
L 123.158726 26.775497 
L 123.495209 31.509233 
L 123.831691 33.884221 
L 124.504656 28.685707 
L 124.841139 30.202828 
L 125.177621 25.57415 
L 125.850586 34.339235 
L 126.187068 30.584778 
L 126.523551 40.590459 
L 126.860033 32.979163 
L 127.196515 32.327293 
L 127.532998 36.686383 
L 127.86948 27.051127 
L 128.205963 37.628223 
L 128.542445 34.411764 
L 128.878927 35.770071 
L 129.551892 41.909309 
L 129.888375 35.874968 
L 130.224857 39.425204 
L 130.56134 36.785289 
L 130.897822 37.478866 
L 131.234304 36.164718 
L 131.570787 42.775859 
L 131.907269 45.654488 
L 132.243752 49.749195 
L 132.580234 37.958678 
L 132.916716 45.529976 
L 133.253199 43.844952 
L 133.589681 41.228481 
L 133.926164 51.834122 
L 134.262646 48.845285 
L 134.599128 49.446729 
L 134.935611 48.695393 
L 135.272093 46.138891 
L 135.608576 50.890242 
L 135.945058 47.255136 
L 136.281541 52.100804 
L 136.618023 49.958818 
L 136.954505 38.991695 
L 137.290988 47.961132 
L 137.62747 41.845971 
L 137.963953 41.451236 
L 138.300435 51.056452 
L 138.636917 48.603333 
L 138.9734 44.440537 
L 139.309882 43.973064 
L 139.646365 40.772464 
L 139.982847 38.862983 
L 140.319329 44.457723 
L 140.655812 46.636621 
L 140.992294 45.001744 
L 141.328777 45.026248 
L 141.665259 40.749861 
L 142.001742 47.036635 
L 142.338224 42.533415 
L 142.674706 52.534737 
L 143.011189 47.25861 
L 143.347671 45.505104 
L 143.684154 52.202519 
L 144.020636 49.791149 
L 144.357118 57.553023 
L 144.693601 55.256636 
L 145.030083 55.43948 
L 145.366566 56.677259 
L 145.703048 49.864448 
L 146.03953 52.184833 
L 146.376013 51.695101 
L 146.712495 48.996982 
L 147.048978 47.660603 
L 147.38546 48.675557 
L 147.721943 48.071288 
L 148.058425 48.487967 
L 148.394907 53.481942 
L 148.73139 54.432499 
L 149.067872 54.104531 
L 149.740837 63.687447 
L 150.077319 66.120945 
L 150.413802 70.1269 
L 150.750284 70.757013 
L 151.086767 65.389424 
L 151.423249 77.331278 
L 151.759731 67.683776 
L 152.096214 71.862391 
L 152.432696 66.811566 
L 152.769179 72.195212 
L 153.105661 67.454794 
L 153.442144 71.658044 
L 153.778626 71.812832 
L 154.115108 82.956153 
L 154.451591 77.907738 
L 155.124556 60.26542 
L 155.461038 70.320536 
L 155.79752 65.806957 
L 156.134003 67.576162 
L 156.470485 77.647435 
L 156.806968 66.374953 
L 157.14345 65.591017 
L 157.479932 63.936323 
L 158.48938 79.95941 
L 158.825862 77.605281 
L 159.162345 80.977977 
L 159.498827 80.444465 
L 159.835309 79.003343 
L 160.171792 65.570977 
L 160.508274 75.026166 
L 161.181239 82.30305 
L 161.517721 76.9881 
L 161.854204 86.181279 
L 162.190686 77.955234 
L 162.527169 86.051787 
L 162.863651 89.788368 
L 163.200133 97.500034 
L 163.536616 97.07962 
L 163.873098 95.461268 
L 164.546063 82.649419 
L 164.882546 84.211535 
L 165.219028 85.123608 
L 165.891993 93.725094 
L 166.228475 92.037168 
L 166.564958 87.05221 
L 166.90144 83.833029 
L 167.237922 87.282684 
L 167.910887 78.260802 
L 168.24737 82.171287 
L 168.583852 91.500836 
L 168.920334 96.370425 
L 169.256817 93.681141 
L 169.593299 97.316993 
L 169.929782 94.642826 
L 170.266264 100.902436 
L 170.602747 94.012172 
L 170.939229 98.094942 
L 171.275711 96.183524 
L 171.612194 92.055804 
L 171.948676 93.50668 
L 172.285159 100.726792 
L 172.958123 104.937122 
L 173.294606 105.056497 
L 173.631088 110.37497 
L 174.304053 85.385678 
L 174.640535 99.541809 
L 174.977018 98.183271 
L 175.3135 105.852526 
L 175.649983 102.486671 
L 175.986465 109.542878 
L 176.322948 98.777069 
L 176.65943 99.615237 
L 177.332395 112.891676 
L 177.668877 109.203683 
L 178.00536 98.129363 
L 178.341842 93.68604 
L 178.678324 91.768213 
L 179.014807 99.587502 
L 179.351289 104.349358 
L 179.687772 104.186595 
L 180.024254 108.119987 
L 180.360736 105.38545 
L 180.697219 108.49769 
L 181.033701 113.130407 
L 181.370184 120.653254 
L 181.706666 120.309417 
L 182.043149 113.998691 
L 182.379631 114.971758 
L 183.389078 100.531399 
L 183.725561 114.641516 
L 184.062043 117.348734 
L 184.398525 118.712409 
L 184.735008 104.049071 
L 185.07149 118.722636 
L 185.407973 121.489251 
L 185.744455 127.490189 
L 186.080938 109.927807 
L 186.41742 110.449923 
L 186.753902 111.243631 
L 187.090385 116.320624 
L 187.426867 115.216227 
L 187.76335 115.079449 
L 188.099832 117.243187 
L 188.436314 124.606181 
L 189.109279 112.681903 
L 189.445762 113.141338 
L 189.782244 112.564311 
L 190.118726 114.124707 
L 190.455209 113.136986 
L 190.791691 116.487638 
L 191.128174 113.836462 
L 191.464656 118.738827 
L 191.801139 120.551623 
L 192.137621 130.489679 
L 192.474103 123.231862 
L 192.810586 128.218902 
L 193.147068 130.497781 
L 193.483551 128.820622 
L 193.820033 128.684346 
L 194.156515 117.580471 
L 194.492998 119.217859 
L 194.82948 114.283805 
L 195.165963 114.811157 
L 195.502445 115.687617 
L 195.838927 109.063254 
L 196.17541 116.341162 
L 196.511892 105.332216 
L 196.848375 116.173408 
L 197.184857 113.748838 
L 197.52134 127.350062 
L 197.857822 125.523206 
L 198.194304 122.779678 
L 198.530787 113.781354 
L 198.867269 120.133356 
L 199.203752 116.985548 
L 199.540234 119.321884 
L 199.876716 107.064608 
L 200.213199 112.970539 
L 200.549681 108.039162 
L 200.886164 113.608567 
L 201.222646 115.518559 
L 201.559128 113.27254 
L 201.895611 116.654938 
L 202.232093 114.829897 
L 202.568576 119.090891 
L 202.905058 119.634323 
L 203.241541 122.170172 
L 203.578023 130.533727 
L 203.914505 123.235008 
L 204.250988 128.722585 
L 204.58747 124.417075 
L 204.923953 130.787193 
L 205.260435 128.665832 
L 205.596917 132.795537 
L 205.9334 135.135916 
L 206.606365 116.820421 
L 206.942847 113.11858 
L 207.279329 117.066952 
L 207.615812 123.533495 
L 207.952294 119.916762 
L 208.288777 113.457628 
L 208.625259 115.541995 
L 208.961742 113.265086 
L 209.298224 118.152194 
L 209.634706 121.387937 
L 209.971189 118.37902 
L 210.307671 123.027024 
L 210.644154 120.423938 
L 210.980636 122.978916 
L 211.317118 121.952224 
L 211.990083 127.436189 
L 212.326566 128.359112 
L 212.663048 127.674753 
L 212.99953 126.691643 
L 213.336013 124.002306 
L 213.672495 116.617511 
L 214.008978 119.176497 
L 214.34546 120.829632 
L 214.681943 118.24546 
L 215.018425 123.577352 
L 215.354907 118.772708 
L 215.69139 120.469658 
L 216.027872 113.653798 
L 216.364355 117.020324 
L 217.037319 131.72423 
L 217.710284 121.944218 
L 218.046767 119.287729 
L 218.719731 129.920891 
L 219.056214 124.514019 
L 219.392696 124.005703 
L 219.729179 127.542142 
L 220.065661 128.934593 
L 220.402144 131.268995 
L 221.075108 127.326092 
L 221.411591 124.496204 
L 221.748073 116.018412 
L 222.084556 114.852745 
L 222.421038 110.788569 
L 223.094003 122.137623 
L 223.430485 123.552122 
L 224.439932 116.53514 
L 224.776415 122.973345 
L 225.112897 114.425158 
L 225.44938 116.232363 
L 225.785862 108.590784 
L 226.122345 108.530263 
L 226.458827 108.803368 
L 226.795309 110.936747 
L 227.131792 119.230295 
L 227.468274 110.130887 
L 228.477721 120.388391 
L 228.814204 117.965648 
L 229.150686 117.42549 
L 229.487169 118.996125 
L 229.823651 119.497182 
L 230.160133 119.756241 
L 230.496616 119.79986 
L 230.833098 113.464136 
L 231.169581 112.316078 
L 231.506063 103.37295 
L 231.842546 101.750747 
L 232.179028 103.962813 
L 232.51551 108.625793 
L 232.851993 116.055514 
L 233.188475 117.904851 
L 233.524958 111.737024 
L 233.86144 113.673577 
L 234.197922 111.583402 
L 234.534405 124.137591 
L 234.870887 103.07983 
L 235.20737 108.911823 
L 235.543852 104.795216 
L 235.880334 126.654688 
L 236.216817 112.831383 
L 236.553299 114.899211 
L 236.889782 103.489494 
L 237.226264 104.65311 
L 237.562747 95.607142 
L 238.235711 107.888289 
L 238.572194 106.704936 
L 238.908676 104.355611 
L 239.245159 99.88866 
L 239.581641 104.329513 
L 239.918123 104.938934 
L 240.591088 99.700273 
L 240.927571 104.558867 
L 241.264053 103.304152 
L 241.600535 111.726024 
L 241.937018 110.899758 
L 242.2735 112.538926 
L 242.609983 98.846837 
L 242.946465 108.495132 
L 243.282948 111.741726 
L 243.61943 126.759817 
L 243.955912 108.488893 
L 244.292395 103.446392 
L 244.628877 95.905408 
L 244.96536 95.922258 
L 245.301842 101.260592 
L 245.638324 95.702068 
L 245.974807 86.854758 
L 246.311289 88.307946 
L 246.647772 80.723989 
L 246.984254 94.680866 
L 247.320736 92.661685 
L 247.657219 103.782345 
L 247.993701 96.287271 
L 248.330184 100.750464 
L 248.666666 96.290698 
L 249.003149 100.09257 
L 249.339631 100.991073 
L 249.676113 98.78558 
L 250.012596 94.810942 
L 250.349078 87.609979 
L 250.685561 89.363859 
L 251.022043 95.076046 
L 251.358525 96.647547 
L 251.695008 90.234755 
L 252.03149 79.847913 
L 252.367973 78.942517 
L 252.704455 80.046751 
L 253.040938 75.304285 
L 253.37742 81.37784 
L 253.713902 84.74629 
L 254.050385 84.408221 
L 254.386867 82.139906 
L 254.72335 84.359758 
L 255.059832 84.28086 
L 255.396314 85.925694 
L 255.732797 90.639154 
L 256.069279 88.559483 
L 256.405762 90.129147 
L 256.742244 88.679849 
L 257.078726 95.61881 
L 257.415209 94.423582 
L 257.751691 77.618625 
L 258.088174 84.427982 
L 258.424656 72.665562 
L 258.761139 75.152461 
L 259.097621 71.738916 
L 259.434103 77.086353 
L 259.770586 80.555363 
L 260.107068 80.558216 
L 260.443551 78.941102 
L 260.780033 81.969527 
L 261.452998 72.02505 
L 261.78948 71.115383 
L 262.125963 67.078223 
L 262.462445 78.166294 
L 262.798927 70.344328 
L 263.13541 71.727019 
L 264.144857 83.206331 
L 264.48134 80.267642 
L 264.817822 66.762315 
L 265.154304 73.792529 
L 265.490787 65.918611 
L 265.827269 67.147735 
L 266.163752 71.43202 
L 266.500234 71.428593 
L 266.836716 76.883419 
L 267.173199 68.847884 
L 267.509681 77.123365 
L 267.846164 68.304885 
L 268.182646 72.048845 
L 268.519128 67.158756 
L 268.855611 67.265296 
L 269.192093 61.436954 
L 269.528576 60.145686 
L 270.201541 69.633646 
L 270.538023 64.302427 
L 271.210988 61.31216 
L 271.54747 64.428972 
L 271.883953 59.406124 
L 272.220435 62.245594 
L 272.8934 57.006345 
L 273.229882 58.707583 
L 273.566365 57.838027 
L 274.239329 65.539171 
L 274.575812 62.68109 
L 274.912294 60.863925 
L 275.585259 54.049384 
L 275.921742 49.159437 
L 276.594706 50.173356 
L 276.931189 49.5415 
L 277.267671 52.447366 
L 277.604154 53.059227 
L 277.940636 56.288371 
L 278.277118 53.14812 
L 278.613601 53.830984 
L 278.950083 55.03654 
L 279.286566 44.071898 
L 279.623048 53.456079 
L 279.95953 45.977626 
L 280.296013 43.182709 
L 280.632495 46.024167 
L 280.968978 46.179739 
L 281.30546 38.660963 
L 281.641943 45.509379 
L 281.978425 45.406112 
L 282.314907 38.90153 
L 282.65139 48.578753 
L 282.987872 39.920192 
L 283.324355 49.039382 
L 283.660837 45.256746 
L 283.997319 47.072987 
L 284.333802 42.586406 
L 284.670284 46.089436 
L 285.006767 35.543239 
L 285.343249 41.345005 
L 285.679731 40.119705 
L 286.016214 39.32046 
L 286.352696 47.703514 
L 286.689179 42.825314 
L 287.025661 45.255666 
L 287.362144 46.201226 
L 287.698626 39.573725 
L 288.035108 38.433417 
L 288.371591 49.78285 
L 288.708073 39.452232 
L 289.044556 45.032604 
L 289.381038 43.472613 
L 289.71752 40.047761 
L 290.054003 39.350413 
L 290.390485 36.322412 
L 290.726968 41.503245 
L 291.06345 37.043548 
L 291.399932 40.343734 
L 292.072897 43.757787 
L 292.40938 31.540944 
L 292.745862 39.054251 
L 293.082345 31.858631 
L 293.418827 27.740819 
L 293.755309 32.568782 
L 294.091792 32.492119 
L 294.428274 26.296486 
L 294.764757 27.386328 
L 295.101239 28.985964 
L 295.437721 26.90175 
L 295.774204 31.099056 
L 296.110686 37.52827 
L 296.447169 32.50671 
L 296.783651 32.055233 
L 297.120133 38.203537 
L 297.456616 27.14994 
L 297.793098 39.492766 
L 298.129581 28.637503 
L 298.466063 40.944956 
L 299.139028 28.433817 
L 299.47551 29.202342 
L 299.811993 23.718792 
L 300.148475 26.145314 
L 300.484958 25.781519 
L 300.82144 33.555686 
L 301.494405 28.998827 
L 302.16737 23.356824 
L 302.503852 26.742199 
L 302.840334 22.474886 
L 303.176817 25.951614 
L 303.513299 22.249677 
L 303.849782 25.552066 
L 304.186264 20.335573 
L 304.522747 22.508588 
L 304.859229 25.769495 
L 305.195711 20.907436 
L 305.532194 27.142388 
L 305.868676 24.141301 
L 306.205159 16.759909 
L 306.541641 30.149687 
L 306.878123 17.891707 
L 307.214606 23.303152 
L 307.551088 19.839973 
L 307.887571 24.370196 
L 308.560535 16.394048 
L 308.897018 18.639667 
L 309.2335 23.462186 
L 309.569983 23.38172 
L 309.906465 20.618143 
L 310.242948 31.66925 
L 310.57943 22.843654 
L 310.915912 19.630317 
L 311.252395 18.837807 
L 311.588877 20.737302 
L 311.92536 21.645366 
L 312.261842 20.009682 
L 312.598324 23.877212 
L 312.934807 23.718547 
L 313.271289 30.957406 
L 313.607772 22.043185 
L 313.944254 30.070456 
L 314.280736 27.89522 
L 314.617219 22.780525 
L 314.953701 27.260163 
L 315.290184 29.839979 
L 315.626666 30.46821 
L 315.963149 30.482768 
L 316.299631 34.795514 
L 316.636113 34.003285 
L 316.972596 30.390221 
L 317.309078 30.161296 
L 317.645561 23.221175 
L 317.982043 29.863433 
L 318.318525 17.163364 
L 318.655008 32.727904 
L 318.99149 25.281526 
L 319.327973 21.121253 
L 319.664455 31.817628 
L 320.000938 20.294987 
L 320.33742 21.964988 
L 320.673902 33.648609 
L 321.010385 21.837524 
L 321.346867 36.134296 
L 321.68335 31.352408 
L 322.019832 28.357366 
L 322.356314 33.560002 
L 322.692797 31.561915 
L 323.029279 31.142429 
L 323.365762 33.318397 
L 323.702244 36.424768 
L 324.038726 30.948672 
L 324.375209 29.490787 
L 324.711691 32.73202 
L 325.048174 24.08191 
L 325.384656 34.36828 
L 325.721139 30.999855 
L 326.057621 30.39043 
L 326.394103 36.284507 
L 326.730586 29.336191 
L 327.067068 30.968983 
L 327.403551 21.936372 
L 327.740033 30.408012 
L 328.076515 21.858061 
L 328.412998 26.129801 
L 328.74948 26.241799 
L 329.085963 18.881963 
L 329.422445 30.564277 
L 329.758927 22.824896 
L 330.09541 20.392319 
L 330.431892 24.924441 
L 330.768375 22.329851 
L 331.104857 22.574505 
L 331.44134 26.520354 
L 331.777822 24.068477 
L 332.114304 27.221702 
L 332.450787 19.466733 
L 332.787269 28.34364 
L 333.123752 28.274532 
L 333.460234 24.670391 
L 333.796716 34.306927 
L 334.133199 33.661117 
L 334.469681 33.889585 
L 334.806164 31.965089 
L 335.142646 31.991513 
L 335.479128 28.897488 
L 335.815611 33.396675 
L 336.152093 29.058675 
L 336.488576 42.357825 
L 336.825058 36.214763 
L 337.161541 35.596183 
L 337.498023 40.495861 
L 338.170988 26.540883 
L 338.50747 30.973135 
L 338.843953 28.004356 
L 339.180435 31.576637 
L 339.516917 23.776906 
L 339.8534 26.179745 
L 340.189882 32.922016 
L 340.862847 32.842776 
L 341.199329 47.334423 
L 341.535812 35.620356 
L 341.872294 49.118234 
L 342.208777 44.706403 
L 342.545259 35.142918 
L 342.881742 42.129694 
L 343.218224 34.537282 
L 343.554706 31.333646 
L 343.891189 40.087868 
L 344.227671 40.565847 
L 344.564154 39.769053 
L 344.900636 35.884377 
L 345.237118 40.429669 
L 345.573601 34.572613 
L 345.910083 36.813256 
L 346.246566 38.101026 
L 346.583048 37.913134 
L 346.91953 39.006236 
L 347.256013 45.988889 
L 347.592495 47.971296 
L 347.928978 43.910185 
L 348.26546 55.00243 
L 348.938425 51.061593 
L 349.274907 52.270445 
L 349.61139 53.00189 
L 349.947872 48.237815 
L 350.284355 50.527557 
L 350.620837 55.928812 
L 350.957319 48.438597 
L 351.293802 50.458905 
L 351.630284 46.527823 
L 351.966767 50.687523 
L 352.303249 47.820458 
L 352.639731 46.93401 
L 352.976214 50.285805 
L 353.312696 52.504755 
L 353.649179 41.846527 
L 354.322144 50.606967 
L 354.658626 48.030819 
L 354.995108 51.318593 
L 355.331591 46.446551 
L 355.668073 53.066631 
L 356.004556 50.226218 
L 356.67752 57.516042 
L 357.014003 55.934423 
L 357.350485 43.508593 
L 358.02345 53.715813 
L 358.359932 48.117047 
L 358.696415 53.267927 
L 359.36938 50.212603 
L 359.705862 50.598697 
L 360.042345 55.569757 
L 360.378827 57.721059 
L 360.715309 55.222325 
L 361.051792 60.648469 
L 361.388274 58.002147 
L 361.724757 58.115368 
L 362.061239 54.569882 
L 362.397721 56.776205 
L 362.734204 64.349215 
L 363.070686 69.005618 
L 363.407169 75.951672 
L 364.080133 62.786731 
L 364.416616 65.797302 
L 364.753098 66.684694 
L 365.089581 76.339003 
L 365.426063 68.479409 
L 365.762546 64.273588 
L 365.762546 64.273588 
" clip-path="url(#p48090c1046)" style="fill: none; stroke: #1f77b4; stroke-width: 1.5; stroke-linecap: square"/>
   </g>
   <g id="line2d_24">
    <path d="M 53.170385 66.113812 
L 53.506867 77.04016 
L 53.84335 79.3159 
L 54.179832 74.010041 
L 54.516314 65.876829 
L 54.852797 75.029504 
L 55.189279 62.173342 
L 55.525762 58.825256 
L 55.862244 61.746029 
L 56.198726 46.739548 
L 56.535209 54.205033 
L 57.208174 76.137663 
L 57.544656 74.564819 
L 58.217621 61.96751 
L 58.554103 64.049218 
L 58.890586 57.575486 
L 59.227068 54.911116 
L 59.563551 60.998323 
L 59.900033 50.506558 
L 60.236515 46.987488 
L 60.572998 47.584984 
L 60.90948 46.734369 
L 61.245963 51.335985 
L 61.582445 67.42325 
L 61.918927 66.334215 
L 62.25541 73.903514 
L 62.928375 67.764396 
L 63.264857 64.077416 
L 63.60134 67.404916 
L 63.937822 77.306443 
L 64.274304 73.585999 
L 64.610787 65.339103 
L 64.947269 63.755643 
L 65.283752 57.967788 
L 65.620234 58.97464 
L 66.293199 51.188563 
L 66.629681 51.85064 
L 66.966164 50.732425 
L 67.302646 61.283328 
L 67.639128 63.532175 
L 68.648576 43.789882 
L 68.985058 45.966453 
L 69.321541 40.639803 
L 69.658023 50.313862 
L 70.330988 42.821699 
L 70.66747 42.984414 
L 71.003953 38.185203 
L 71.340435 58.087331 
L 71.676917 42.06998 
L 72.0134 54.041178 
L 72.349882 40.790673 
L 72.686365 42.855783 
L 73.022847 32.313126 
L 73.359329 27.860736 
L 73.695812 36.882854 
L 74.032294 40.756225 
L 74.368777 39.491387 
L 74.705259 39.694786 
L 75.041742 40.107182 
L 75.378224 37.979627 
L 75.714706 38.982868 
L 76.051189 45.375724 
L 76.387671 45.169799 
L 76.724154 42.414193 
L 77.060636 23.029328 
L 77.397118 29.436691 
L 77.733601 38.641718 
L 78.070083 28.623034 
L 78.406566 28.488525 
L 78.743048 29.915469 
L 79.07953 35.277087 
L 79.416013 35.496648 
L 79.752495 42.326025 
L 80.42546 23.296596 
L 80.761943 24.231228 
L 81.098425 25.877652 
L 81.434907 25.336837 
L 81.77139 36.224906 
L 82.107872 29.206739 
L 82.444355 31.938793 
L 82.780837 33.514924 
L 83.117319 32.608198 
L 83.453802 34.539906 
L 83.790284 30.115672 
L 84.126767 28.55998 
L 84.463249 30.278369 
L 84.799731 24.045303 
L 85.136214 32.983241 
L 85.472696 29.489486 
L 85.809179 32.445277 
L 86.145661 24.699 
L 86.482144 25.782484 
L 86.818626 23.034802 
L 87.491591 35.454856 
L 87.828073 27.15629 
L 88.164556 28.64599 
L 88.83752 42.344096 
L 89.174003 44.792667 
L 89.510485 33.282101 
L 89.846968 27.063277 
L 90.18345 27.453317 
L 90.519932 27.091137 
L 91.192897 22.316794 
L 91.52938 23.554289 
L 91.865862 26.476796 
L 92.202345 27.543655 
L 92.538827 22.798662 
L 93.211792 37.825064 
L 93.548274 30.285596 
L 93.884757 35.463137 
L 94.221239 44.010228 
L 94.557721 35.696527 
L 95.230686 24.912113 
L 95.567169 26.062884 
L 95.903651 25.022003 
L 96.240133 27.74449 
L 96.576616 33.535175 
L 96.913098 28.051365 
L 97.249581 18.801185 
L 97.922546 30.383254 
L 98.259028 27.388767 
L 98.59551 35.017027 
L 98.931993 34.465224 
L 99.268475 31.132187 
L 99.604958 30.475837 
L 99.94144 29.071618 
L 100.277922 29.086842 
L 100.614405 25.627153 
L 100.950887 26.550131 
L 101.28737 26.728491 
L 101.623852 23.446305 
L 101.960334 25.243054 
L 102.296817 23.46098 
L 102.633299 25.989259 
L 102.969782 18.306607 
L 103.306264 23.308979 
L 103.642747 21.385298 
L 103.979229 22.46319 
L 104.315711 18.622324 
L 104.652194 24.319297 
L 105.325159 21.353184 
L 105.661641 17.895826 
L 105.998123 29.124204 
L 106.334606 23.849295 
L 106.671088 21.838783 
L 107.007571 24.092719 
L 107.344053 17.519715 
L 107.680535 17.817407 
L 108.017018 19.271262 
L 108.3535 19.043684 
L 108.689983 21.447262 
L 109.026465 21.186185 
L 109.362948 26.312704 
L 109.69943 23.888236 
L 110.035912 31.254281 
L 110.372395 24.047267 
L 110.708877 33.498864 
L 111.04536 27.828336 
L 111.381842 25.566311 
L 112.054807 18.266833 
L 112.391289 26.317904 
L 112.727772 27.889528 
L 113.064254 20.416236 
L 113.400736 28.509699 
L 113.737219 24.408179 
L 114.073701 24.007473 
L 114.410184 27.571154 
L 114.746666 21.323345 
L 115.083149 24.727911 
L 115.419631 25.319234 
L 115.756113 17.744445 
L 116.092596 21.496409 
L 116.429078 23.210942 
L 116.765561 18.028078 
L 117.102043 14.612727 
L 117.438525 18.651817 
L 117.775008 17.82487 
L 118.11149 18.843114 
L 118.447973 17.748141 
L 118.784455 20.196192 
L 119.120937 19.269382 
L 119.45742 19.925574 
L 119.793902 18.703172 
L 120.130385 23.656272 
L 120.466867 31.585028 
L 120.80335 25.429101 
L 121.139832 24.46475 
L 121.476314 27.073146 
L 122.149279 17.135436 
L 122.485762 28.353804 
L 123.158726 20.006924 
L 123.831691 29.142094 
L 124.168174 29.0254 
L 124.841139 31.063243 
L 125.177621 29.572388 
L 125.514103 26.580964 
L 125.850586 27.767661 
L 126.187068 24.216618 
L 126.523551 27.821288 
L 126.860033 35.278618 
L 127.196515 31.444027 
L 127.532998 40.575026 
L 127.86948 29.942935 
L 128.205963 27.780637 
L 128.542445 34.009494 
L 128.878927 27.636068 
L 129.21541 37.593584 
L 129.551892 32.607365 
L 130.224857 37.309342 
L 130.56134 44.126916 
L 130.897822 34.036736 
L 131.234304 35.749241 
L 131.570787 32.644022 
L 131.907269 38.70077 
L 132.243752 35.457023 
L 132.580234 43.479951 
L 132.916716 45.860475 
L 133.253199 52.742907 
L 133.589681 33.006907 
L 134.262646 44.124041 
L 134.599128 46.29697 
L 134.935611 53.116712 
L 135.272093 46.878096 
L 135.608576 47.075471 
L 136.281541 46.212876 
L 136.618023 51.38649 
L 136.954505 46.485781 
L 137.290988 51.809043 
L 137.62747 48.691534 
L 137.963953 35.167417 
L 138.300435 44.24844 
L 138.636917 41.65819 
L 138.9734 43.421502 
L 139.309882 51.013768 
L 139.646365 49.462905 
L 139.982847 41.730125 
L 140.319329 38.873043 
L 140.655812 37.756965 
L 140.992294 38.768931 
L 141.328777 45.974704 
L 141.665259 48.215839 
L 142.001742 43.917248 
L 142.338224 41.16957 
L 142.674706 36.907971 
L 143.011189 48.3885 
L 143.347671 43.860092 
L 143.684154 55.42923 
L 144.020636 43.986359 
L 144.357118 42.383049 
L 144.693601 53.510562 
L 145.030083 54.109173 
L 145.366566 60.149024 
L 145.703048 51.686589 
L 146.03953 53.423278 
L 146.376013 57.385474 
L 146.712495 50.34895 
L 147.048978 49.296036 
L 147.38546 48.785099 
L 147.721943 49.115711 
L 148.058425 46.971942 
L 148.394907 47.321707 
L 148.73139 46.564301 
L 149.067872 48.32658 
L 149.404355 55.031963 
L 149.740837 56.450924 
L 150.077319 53.680265 
L 150.413802 59.149307 
L 150.750284 66.874974 
L 151.423249 74.69392 
L 151.759731 66.547073 
L 152.096214 77.332399 
L 152.432696 70.476516 
L 152.769179 74.228871 
L 153.105661 67.727184 
L 153.442144 73.567301 
L 153.778626 70.62149 
L 154.451591 73.985041 
L 154.788073 83.324542 
L 155.461038 71.19114 
L 155.79752 58.510597 
L 156.134003 62.987423 
L 156.470485 73.186303 
L 156.806968 68.177639 
L 157.14345 77.083081 
L 158.152897 62.761061 
L 158.48938 64.919171 
L 159.162345 79.055349 
L 159.498827 77.908359 
L 159.835309 80.318961 
L 160.171792 79.87622 
L 160.508274 77.028104 
L 160.844757 67.57037 
L 161.517721 77.487128 
L 161.854204 80.939584 
L 162.190686 78.079642 
L 162.527169 85.107154 
L 162.863651 78.585749 
L 163.873098 95.77569 
L 164.209581 94.156364 
L 164.546063 94.704911 
L 165.219028 82.34931 
L 165.55551 84.879768 
L 165.891993 86.001167 
L 166.564958 92.762564 
L 167.237922 86.361966 
L 167.574405 85.641563 
L 167.910887 87.410941 
L 168.24737 78.803469 
L 168.583852 78.690609 
L 168.920334 81.42787 
L 169.256817 91.846088 
L 169.593299 94.451484 
L 169.929782 91.548864 
L 170.266264 100.708828 
L 170.602747 94.013602 
L 170.939229 98.366996 
L 171.275711 95.758146 
L 171.612194 97.762327 
L 172.285159 91.217742 
L 172.958123 102.533621 
L 173.294606 98.887718 
L 173.631088 106.697366 
L 173.967571 107.372466 
L 174.304053 104.888337 
L 174.640535 95.614267 
L 174.977018 92.593046 
L 175.3135 105.232355 
L 175.649983 92.035354 
L 175.986465 106.449243 
L 176.322948 107.929012 
L 176.65943 101.886244 
L 176.995912 98.388895 
L 177.332395 105.164689 
L 177.668877 107.657857 
L 178.00536 107.126466 
L 178.341842 107.140639 
L 178.678324 97.596934 
L 179.014807 94.961388 
L 179.351289 95.372685 
L 179.687772 100.677586 
L 180.024254 102.91098 
L 180.360736 103.836707 
L 180.697219 109.986291 
L 181.033701 104.408925 
L 181.706666 117.569142 
L 182.043149 117.437225 
L 182.379631 117.452365 
L 182.716113 115.91024 
L 183.052596 115.298768 
L 183.389078 107.358877 
L 183.725561 106.36552 
L 184.062043 106.307111 
L 184.398525 116.995942 
L 184.735008 113.040406 
L 185.07149 115.356479 
L 185.407973 109.411652 
L 185.744455 123.943308 
L 186.080938 118.30281 
L 186.41742 120.93998 
L 186.753902 112.288723 
L 187.090385 113.761139 
L 187.426867 112.935503 
L 187.76335 114.26127 
L 188.099832 116.125473 
L 188.436314 116.475829 
L 188.772797 118.961934 
L 189.109279 123.912908 
L 189.445762 114.267855 
L 189.782244 114.271951 
L 190.118726 117.946242 
L 190.455209 108.946907 
L 190.791691 114.701033 
L 191.128174 117.153078 
L 191.464656 113.435288 
L 191.801139 114.992302 
L 192.137621 123.499608 
L 192.474103 119.959014 
L 192.810586 129.432085 
L 193.147068 124.266297 
L 193.483551 129.675515 
L 193.820033 131.987254 
L 194.156515 124.973314 
L 194.492998 128.877691 
L 194.82948 117.966654 
L 195.165963 119.076144 
L 195.838927 113.839077 
L 196.17541 116.057436 
L 196.511892 108.931107 
L 196.848375 117.176765 
L 197.184857 105.481101 
L 197.52134 118.777281 
L 197.857822 117.568719 
L 198.194304 124.59691 
L 198.530787 124.850924 
L 199.203752 116.37064 
L 199.540234 123.380001 
L 199.876716 113.506554 
L 200.213199 116.961524 
L 200.549681 110.334468 
L 200.886164 113.268561 
L 201.222646 108.327049 
L 201.559128 115.022816 
L 201.895611 116.300902 
L 202.232093 110.605292 
L 202.568576 120.155846 
L 202.905058 115.747161 
L 203.241541 117.423803 
L 203.578023 123.448234 
L 203.914505 123.103413 
L 204.250988 129.267857 
L 204.58747 122.791851 
L 204.923953 131.008885 
L 205.260435 125.897479 
L 205.596917 129.783164 
L 206.269882 132.750116 
L 206.606365 132.774385 
L 206.942847 121.822951 
L 207.279329 118.789425 
L 207.952294 117.14803 
L 208.288777 122.669682 
L 208.961742 113.690252 
L 209.298224 119.807878 
L 209.634706 112.0054 
L 210.307671 124.138296 
L 210.644154 114.760213 
L 210.980636 125.893396 
L 211.653601 119.525892 
L 211.990083 126.072938 
L 212.326566 125.949432 
L 212.663048 125.482651 
L 212.99953 129.89267 
L 213.336013 127.792085 
L 213.672495 124.877426 
L 214.008978 124.129036 
L 214.34546 117.202971 
L 214.681943 121.738681 
L 215.018425 121.035043 
L 215.354907 116.416315 
L 215.69139 126.833048 
L 216.027872 117.06237 
L 216.364355 118.058282 
L 216.700837 118.392984 
L 217.037319 118.945122 
L 217.373802 126.316338 
L 217.710284 130.128523 
L 218.046767 122.620828 
L 218.383249 124.402269 
L 218.719731 123.529937 
L 219.056214 123.69004 
L 219.392696 129.671294 
L 219.729179 123.124434 
L 220.065661 126.416261 
L 220.402144 131.27918 
L 220.738626 125.954548 
L 221.075108 131.97437 
L 221.411591 131.11488 
L 221.748073 123.821665 
L 222.084556 124.682517 
L 222.421038 116.545534 
L 222.75752 114.608701 
L 223.094003 114.086044 
L 223.430485 119.791877 
L 223.766968 121.294169 
L 224.10345 121.563234 
L 224.439932 122.160823 
L 224.776415 118.753615 
L 225.112897 117.731335 
L 225.44938 123.681926 
L 225.785862 110.630245 
L 226.122345 117.11514 
L 226.795309 105.939909 
L 227.131792 113.123801 
L 227.468274 112.404136 
L 227.804757 115.840395 
L 228.141239 109.77448 
L 228.477721 117.912466 
L 228.814204 117.610976 
L 229.150686 116.323158 
L 229.487169 120.007599 
L 229.823651 119.153781 
L 230.160133 117.985601 
L 230.496616 120.410004 
L 230.833098 120.132741 
L 231.169581 117.557948 
L 231.506063 112.632765 
L 231.842546 112.671052 
L 232.179028 101.811494 
L 232.51551 103.878224 
L 232.851993 108.582016 
L 233.188475 107.227873 
L 233.524958 116.855532 
L 233.86144 117.096286 
L 234.197922 108.648002 
L 234.534405 118.447546 
L 234.870887 113.518632 
L 235.20737 117.868883 
L 235.543852 101.197603 
L 235.880334 115.18845 
L 236.216817 109.806286 
L 236.553299 120.49822 
L 236.889782 110.558677 
L 237.226264 115.158017 
L 237.562747 104.406818 
L 238.235711 99.09881 
L 238.572194 104.294679 
L 238.908676 106.617806 
L 239.245159 102.663927 
L 239.581641 105.967578 
L 239.918123 101.74266 
L 240.254606 103.771288 
L 240.591088 104.640973 
L 240.927571 100.357206 
L 241.264053 102.106658 
L 241.600535 106.843385 
L 241.937018 101.711081 
L 242.2735 113.783313 
L 242.946465 106.731261 
L 243.282948 102.637855 
L 243.61943 114.646597 
L 243.955912 110.731276 
L 244.292395 121.112788 
L 244.628877 105.310613 
L 244.96536 103.737127 
L 245.301842 100.274939 
L 245.638324 93.628556 
L 245.974807 101.777747 
L 246.647772 84.295663 
L 246.984254 90.454685 
L 247.320736 83.124884 
L 247.657219 93.844537 
L 247.993701 94.374498 
L 248.330184 101.178454 
L 248.666666 95.777705 
L 249.003149 101.440767 
L 249.339631 97.204198 
L 249.676113 99.073529 
L 250.012596 101.819267 
L 250.349078 95.36559 
L 250.685561 93.457831 
L 251.022043 89.923782 
L 251.358525 91.212717 
L 251.695008 95.108103 
L 252.03149 92.481995 
L 252.704455 81.166363 
L 253.040938 78.91594 
L 253.37742 79.456402 
L 253.713902 76.469369 
L 254.386867 84.944549 
L 254.72335 82.090831 
L 255.059832 82.744947 
L 255.396314 84.369358 
L 255.732797 83.999945 
L 256.069279 86.649928 
L 256.405762 91.116474 
L 256.742244 86.139053 
L 257.078726 91.173949 
L 257.415209 91.033509 
L 257.751691 93.353463 
L 258.088174 89.85227 
L 258.424656 75.006973 
L 258.761139 83.949686 
L 259.097621 80.154832 
L 259.434103 71.685279 
L 260.107068 75.993767 
L 260.443551 79.885926 
L 260.780033 79.643967 
L 261.116515 79.059769 
L 261.452998 82.129831 
L 261.78948 75.514809 
L 262.125963 73.617311 
L 262.462445 75.468573 
L 262.798927 69.675632 
L 263.13541 80.533844 
L 263.471892 68.975782 
L 263.808375 73.210247 
L 264.144857 75.41294 
L 264.817822 81.437098 
L 265.154304 77.485206 
L 265.490787 67.846925 
L 265.827269 73.469123 
L 266.163752 72.504824 
L 266.500234 65.415809 
L 266.836716 71.598744 
L 267.173199 72.558826 
L 267.509681 78.207352 
L 267.846164 70.974749 
L 268.182646 77.362869 
L 268.519128 70.759224 
L 268.855611 74.459094 
L 269.192093 69.2868 
L 269.528576 75.220904 
L 269.865058 60.72401 
L 270.538023 58.926399 
L 270.874505 73.241318 
L 271.883953 60.148898 
L 272.220435 61.244274 
L 272.556917 66.867902 
L 272.8934 57.726445 
L 273.229882 61.461255 
L 273.566365 57.93994 
L 273.902847 57.092318 
L 274.239329 57.527836 
L 274.575812 58.159317 
L 274.912294 62.646925 
L 275.248777 69.564337 
L 275.585259 60.842419 
L 275.921742 56.979082 
L 276.594706 53.396898 
L 276.931189 46.970574 
L 277.267671 47.183654 
L 278.277118 53.094514 
L 278.613601 52.499806 
L 278.950083 56.493584 
L 279.286566 52.538227 
L 279.623048 52.920686 
L 279.95953 53.858468 
L 280.296013 40.904767 
L 280.632495 53.533793 
L 280.968978 44.96534 
L 281.30546 42.28054 
L 281.641943 40.904221 
L 281.978425 46.94587 
L 282.314907 37.401275 
L 282.65139 44.600318 
L 282.987872 43.780467 
L 283.324355 38.312634 
L 283.660837 47.460207 
L 283.997319 38.404083 
L 284.333802 51.164361 
L 284.670284 43.948711 
L 285.006767 47.451935 
L 285.343249 37.231091 
L 285.679731 45.484507 
L 286.016214 32.304206 
L 286.352696 39.221011 
L 286.689179 37.623423 
L 287.025661 41.444663 
L 287.362144 48.65285 
L 287.698626 42.601971 
L 288.035108 42.456053 
L 288.371591 43.891818 
L 288.708073 38.431967 
L 289.044556 35.34501 
L 289.381038 51.373004 
L 289.71752 39.988023 
L 290.054003 43.372499 
L 290.390485 37.541157 
L 290.726968 39.402055 
L 291.06345 37.732651 
L 291.399932 34.937818 
L 291.736415 39.814274 
L 292.072897 35.957736 
L 292.40938 39.972625 
L 292.745862 41.30518 
L 293.082345 44.725299 
L 293.418827 27.97232 
L 293.755309 31.412931 
L 294.091792 28.949214 
L 294.428274 27.909444 
L 294.764757 31.039234 
L 295.101239 31.340136 
L 295.437721 24.357032 
L 295.774204 23.482037 
L 296.110686 27.735732 
L 296.447169 28.695784 
L 296.783651 31.159477 
L 297.120133 36.922383 
L 297.456616 30.70946 
L 297.793098 28.456791 
L 298.129581 36.680661 
L 298.466063 26.941705 
L 298.802546 38.020792 
L 299.139028 26.534083 
L 299.47551 40.00499 
L 300.148475 25.715429 
L 300.484958 23.554354 
L 300.82144 22.556385 
L 301.157922 26.645705 
L 301.494405 26.563913 
L 301.830887 33.905281 
L 302.840334 22.911732 
L 303.176817 21.921715 
L 303.513299 26.680831 
L 303.849782 23.588373 
L 304.186264 23.875474 
L 304.522747 20.541688 
L 304.859229 24.388023 
L 305.195711 21.366199 
L 305.532194 21.48226 
L 305.868676 24.809503 
L 306.205159 21.698489 
L 306.541641 25.836129 
L 306.878123 23.821886 
L 307.214606 15.859995 
L 307.551088 25.498591 
L 307.887571 20.612191 
L 308.224053 23.241515 
L 308.560535 18.974847 
L 308.897018 22.514403 
L 309.2335 20.697541 
L 309.569983 16.518462 
L 309.906465 16.586468 
L 310.242948 24.019858 
L 310.57943 27.190341 
L 310.915912 21.064721 
L 311.252395 26.623191 
L 311.92536 19.102622 
L 312.261842 17.269324 
L 312.934807 23.69349 
L 313.271289 21.114447 
L 313.607772 21.877996 
L 313.944254 22.942431 
L 314.280736 33.424222 
L 314.617219 23.735509 
L 314.953701 25.238498 
L 315.290184 24.932444 
L 315.626666 23.258578 
L 316.299631 30.010677 
L 316.636113 30.633343 
L 316.972596 28.266511 
L 317.309078 32.841329 
L 317.645561 33.558662 
L 317.982043 28.833881 
L 318.318525 26.349517 
L 318.655008 20.757965 
L 318.99149 27.517347 
L 319.327973 18.715435 
L 319.664455 30.638964 
L 320.33742 19.647123 
L 320.673902 27.561109 
L 321.010385 22.08469 
L 321.346867 20.774724 
L 321.68335 32.515883 
L 322.019832 23.93246 
L 322.356314 35.290412 
L 322.692797 29.19739 
L 323.029279 25.732817 
L 323.365762 30.290235 
L 323.702244 32.487128 
L 324.375209 30.475935 
L 324.711691 34.67823 
L 325.048174 29.527304 
L 325.384656 26.402293 
L 325.721139 29.788077 
L 326.057621 23.544892 
L 326.394103 33.418383 
L 326.730586 30.684759 
L 327.067068 28.887201 
L 327.403551 33.677407 
L 327.740033 27.918662 
L 328.076515 28.17645 
L 328.412998 19.72836 
L 328.74948 26.479533 
L 329.085963 22.697766 
L 329.422445 25.756403 
L 329.758927 25.109166 
L 330.09541 17.871092 
L 330.431892 26.500459 
L 330.768375 24.557709 
L 331.104857 20.470165 
L 331.44134 21.514081 
L 331.777822 22.166208 
L 332.114304 23.603746 
L 332.450787 26.532656 
L 332.787269 23.541489 
L 333.123752 24.926635 
L 333.460234 18.682575 
L 333.796716 25.940136 
L 334.133199 30.024426 
L 334.469681 25.628365 
L 334.806164 31.862022 
L 335.142646 32.171611 
L 335.479128 34.886145 
L 335.815611 29.278519 
L 336.152093 28.27283 
L 336.488576 25.991952 
L 336.825058 33.980696 
L 337.161541 28.899751 
L 337.498023 44.326662 
L 337.834505 35.093801 
L 338.170988 32.142948 
L 338.50747 36.496172 
L 338.843953 32.670718 
L 339.180435 24.215938 
L 339.8534 27.04339 
L 340.189882 34.47286 
L 340.526365 23.843922 
L 340.862847 20.276061 
L 341.535812 39.633195 
L 341.872294 36.915774 
L 342.208777 46.466715 
L 342.545259 30.839692 
L 342.881742 50.327068 
L 343.218224 46.088947 
L 343.554706 33.39195 
L 344.227671 31.290395 
L 344.564154 32.368553 
L 344.900636 42.193981 
L 345.237118 41.232738 
L 345.573601 37.84868 
L 345.910083 30.163466 
L 346.246566 38.382763 
L 346.583048 34.736344 
L 346.91953 37.118791 
L 347.256013 34.84847 
L 347.928978 38.201286 
L 348.26546 48.728056 
L 348.601943 50.218177 
L 348.938425 42.097598 
L 349.274907 56.347451 
L 349.947872 51.836215 
L 350.284355 46.742246 
L 350.620837 52.18851 
L 350.957319 48.253971 
L 351.293802 51.350582 
L 351.630284 55.755542 
L 351.966767 47.584918 
L 352.303249 47.576584 
L 352.639731 42.969112 
L 352.976214 52.192354 
L 353.649179 45.910348 
L 353.985661 46.83263 
L 354.322144 54.077627 
L 354.658626 40.107266 
L 354.995108 43.257193 
L 355.331591 51.669026 
L 355.668073 52.374118 
L 356.004556 51.330414 
L 356.341038 40.708231 
L 356.67752 54.084859 
L 357.014003 52.449254 
L 357.350485 56.657457 
L 357.686968 54.886419 
L 358.02345 55.465929 
L 358.359932 38.215522 
L 358.696415 45.633282 
L 359.032897 56.091372 
L 360.042345 46.392356 
L 360.715309 52.625137 
L 361.051792 58.309077 
L 361.388274 58.344807 
L 361.724757 53.466042 
L 362.061239 64.09718 
L 362.397721 55.578775 
L 362.734204 57.579835 
L 363.070686 50.469416 
L 364.080133 77.115379 
L 364.416616 72.128075 
L 364.753098 62.395256 
L 365.089581 65.632874 
L 365.426063 65.597723 
L 365.762546 75.655936 
L 366.099028 74.727522 
L 366.43551 65.147733 
L 366.771993 82.21562 
L 366.771993 82.21562 
" clip-path="url(#p48090c1046)" style="fill: none; stroke-dasharray: 5.55,2.4; stroke-dashoffset: 0; stroke: #bf00bf; stroke-width: 1.5"/>
   </g>
   <g id="line2d_25">
    <path d="M 57.208174 74.412651 
L 57.544656 77.651791 
L 57.881139 78.50681 
L 58.217621 77.507038 
L 58.554103 75.398816 
L 58.890586 76.978871 
L 59.227068 69.397932 
L 59.563551 57.969775 
L 59.900033 60.059841 
L 60.236515 44.674886 
L 60.572998 50.490512 
L 61.245963 77.833286 
L 61.582445 77.503222 
L 61.918927 76.095082 
L 62.25541 61.824738 
L 62.591892 63.704938 
L 62.928375 57.207511 
L 63.264857 53.412699 
L 63.60134 58.923563 
L 63.937822 48.709128 
L 64.274304 43.581737 
L 64.947269 41.468296 
L 65.283752 46.897418 
L 65.620234 73.348686 
L 66.293199 77.047922 
L 66.629681 76.795022 
L 66.966164 75.727465 
L 67.302646 67.689139 
L 67.639128 75.046609 
L 67.975611 77.780464 
L 68.312093 77.428483 
L 68.648576 75.007211 
L 68.985058 63.694005 
L 69.321541 57.428391 
L 69.658023 57.613271 
L 69.994505 53.927917 
L 70.330988 48.665826 
L 70.66747 48.448603 
L 71.003953 46.957983 
L 71.340435 59.373653 
L 71.676917 63.269222 
L 72.349882 48.621676 
L 72.686365 39.360684 
L 73.022847 39.925273 
L 73.359329 34.676543 
L 73.695812 44.66262 
L 74.032294 42.161775 
L 74.368777 38.084766 
L 74.705259 37.254315 
L 75.041742 31.384883 
L 75.378224 54.154227 
L 75.714706 39.216569 
L 76.051189 49.801583 
L 76.387671 36.847901 
L 76.724154 36.543647 
L 77.060636 26.344457 
L 77.397118 23.490443 
L 77.733601 27.122167 
L 78.070083 32.266486 
L 78.406566 33.196551 
L 78.743048 33.43275 
L 79.07953 33.015856 
L 79.416013 30.683466 
L 79.752495 31.711382 
L 80.088978 38.593028 
L 80.42546 39.624198 
L 80.761943 37.289029 
L 81.098425 22.844215 
L 81.434907 23.537411 
L 81.77139 27.102432 
L 82.107872 24.138295 
L 82.780837 23.789551 
L 83.453802 27.433072 
L 83.790284 35.20162 
L 84.126767 26.136693 
L 84.463249 22.164655 
L 84.799731 21.623611 
L 85.136214 22.056093 
L 85.472696 22.296006 
L 85.809179 26.682099 
L 86.145661 24.158752 
L 86.818626 25.536135 
L 87.155108 25.202617 
L 87.491591 26.569313 
L 87.828073 24.381862 
L 88.164556 23.57537 
L 88.501038 23.921341 
L 88.83752 22.119091 
L 89.174003 24.785553 
L 89.510485 23.858638 
L 89.846968 25.066905 
L 90.18345 22.55777 
L 90.519932 22.381691 
L 90.856415 21.387053 
L 91.52938 26.327167 
L 91.865862 23.542133 
L 92.202345 23.633203 
L 92.538827 26.877979 
L 93.211792 39.287716 
L 93.548274 28.035837 
L 93.884757 23.30791 
L 94.221239 22.75754 
L 94.557721 22.743122 
L 94.894204 22.264776 
L 95.230686 21.344354 
L 95.567169 21.403125 
L 96.240133 22.987644 
L 96.576616 21.762329 
L 96.913098 23.438299 
L 97.249581 27.507801 
L 97.586063 24.675525 
L 97.922546 27.532016 
L 98.259028 35.976778 
L 98.59551 28.820445 
L 99.268475 22.343875 
L 99.94144 22.07564 
L 100.277922 23.031716 
L 100.614405 25.186698 
L 100.950887 23.590367 
L 101.28737 20.725469 
L 101.623852 21.715062 
L 101.960334 23.265121 
L 102.296817 23.241993 
L 102.633299 26.646645 
L 102.969782 26.515907 
L 103.306264 24.77101 
L 103.642747 24.342602 
L 103.979229 23.650642 
L 104.315711 23.590492 
L 104.652194 22.566899 
L 105.325159 22.664237 
L 105.661641 21.757045 
L 105.998123 22.107485 
L 106.334606 21.571025 
L 106.671088 22.311338 
L 107.007571 20.231458 
L 107.344053 21.236962 
L 107.680535 20.65446 
L 108.017018 21.124626 
L 108.3535 20.054913 
L 108.689983 21.463991 
L 109.362948 20.937263 
L 109.69943 19.76171 
L 110.035912 22.818663 
L 110.372395 21.862133 
L 110.708877 21.344712 
L 111.04536 21.577425 
L 111.381842 19.644472 
L 111.718324 19.459115 
L 112.054807 19.732993 
L 112.391289 19.838863 
L 112.727772 20.653493 
L 113.064254 20.688705 
L 113.400736 22.247546 
L 113.737219 21.834097 
L 114.073701 24.089474 
L 114.410184 22.195002 
L 114.746666 25.104867 
L 115.083149 23.366705 
L 115.419631 22.592505 
L 116.092596 19.775686 
L 116.429078 21.947196 
L 116.765561 22.896455 
L 117.102043 21.240663 
L 117.438525 23.147478 
L 117.775008 21.87867 
L 118.11149 21.832389 
L 118.447973 22.826472 
L 118.784455 21.145116 
L 119.120937 21.906754 
L 119.45742 22.03435 
L 119.793902 20.051581 
L 120.466867 21.062631 
L 121.139832 18.722665 
L 121.476314 19.334254 
L 121.812797 19.254599 
L 122.149279 19.81863 
L 122.485762 19.514728 
L 122.822244 20.110095 
L 123.158726 19.958064 
L 123.495209 20.202204 
L 123.831691 19.826128 
L 124.168174 21.225153 
L 124.504656 23.782058 
L 124.841139 22.747408 
L 125.177621 22.235868 
L 125.514103 22.569973 
L 126.187068 19.772963 
L 126.523551 22.628482 
L 126.860033 21.971406 
L 127.196515 20.897967 
L 127.532998 21.728919 
L 127.86948 23.012778 
L 128.542445 24.169161 
L 128.878927 24.428582 
L 129.21541 23.834304 
L 129.551892 22.885511 
L 129.888375 23.094391 
L 130.224857 22.005316 
L 130.56134 22.98768 
L 130.897822 25.885422 
L 131.234304 24.905089 
L 131.570787 32.584648 
L 131.907269 24.807034 
L 132.243752 23.439279 
L 132.580234 25.2598 
L 132.916716 23.364961 
L 133.253199 28.458447 
L 133.589681 25.731749 
L 133.926164 26.756461 
L 134.262646 28.969095 
L 134.599128 36.630266 
L 134.935611 27.860715 
L 135.272093 28.134465 
L 135.608576 25.421497 
L 135.945058 29.705894 
L 136.281541 27.926101 
L 136.618023 36.265507 
L 136.954505 39.938037 
L 137.290988 48.147525 
L 137.62747 29.055499 
L 137.963953 31.94422 
L 138.636917 40.324889 
L 138.9734 49.482998 
L 139.309882 43.598218 
L 139.982847 41.605766 
L 140.319329 41.048222 
L 140.655812 46.856603 
L 140.992294 42.524773 
L 141.328777 47.658519 
L 141.665259 44.807392 
L 142.001742 30.346346 
L 142.338224 37.087358 
L 142.674706 34.613014 
L 143.011189 37.324262 
L 143.347671 46.117207 
L 143.684154 45.444217 
L 144.020636 37.555739 
L 144.357118 32.730453 
L 144.693601 29.979506 
L 145.030083 30.89048 
L 145.366566 39.252832 
L 145.703048 43.198004 
L 146.376013 35.717077 
L 146.712495 29.857424 
L 147.048978 41.130972 
L 147.38546 38.555866 
L 147.721943 51.227314 
L 148.058425 40.657875 
L 148.394907 37.072937 
L 148.73139 47.589318 
L 149.067872 50.68402 
L 149.404355 58.816347 
L 149.740837 50.44079 
L 150.077319 50.353446 
L 150.413802 54.127113 
L 150.750284 47.884462 
L 151.423249 44.492207 
L 151.759731 44.451344 
L 152.096214 42.677661 
L 152.432696 42.779009 
L 152.769179 41.725893 
L 153.105661 43.44612 
L 153.442144 51.034013 
L 153.778626 54.008891 
L 154.115108 51.905029 
L 154.451591 56.971733 
L 154.788073 74.115976 
L 155.124556 76.480797 
L 155.461038 77.318648 
L 155.79752 75.719146 
L 156.134003 77.449638 
L 156.470485 76.893925 
L 156.806968 77.136661 
L 157.14345 76.084949 
L 157.479932 76.895696 
L 157.816415 76.70792 
L 158.152897 76.830762 
L 158.48938 77.261778 
L 158.825862 79.119023 
L 159.162345 78.308773 
L 159.498827 76.945758 
L 159.835309 59.249362 
L 160.171792 61.57377 
L 160.508274 77.135458 
L 160.844757 76.123228 
L 161.181239 77.52973 
L 161.517721 77.173763 
L 161.854204 74.910327 
L 162.190686 63.247642 
L 162.527169 65.1976 
L 162.863651 77.023622 
L 163.200133 78.254523 
L 163.536616 78.29291 
L 163.873098 78.584726 
L 164.209581 78.666042 
L 164.546063 78.144712 
L 164.882546 76.246954 
L 165.219028 76.779742 
L 165.55551 78.104899 
L 165.891993 78.924752 
L 166.228475 78.397997 
L 166.564958 79.471533 
L 166.90144 78.735832 
L 167.237922 79.685996 
L 167.574405 89.636907 
L 167.910887 95.324213 
L 168.24737 95.138542 
L 168.583852 93.47424 
L 169.256817 80.91634 
L 169.593299 80.311446 
L 170.602747 91.654946 
L 170.939229 89.578263 
L 171.275711 85.420269 
L 171.612194 83.048703 
L 171.948676 85.046467 
L 172.285159 78.981792 
L 172.621641 78.40512 
L 172.958123 78.90416 
L 173.294606 88.710149 
L 173.631088 94.801285 
L 173.967571 92.331302 
L 174.304053 97.010703 
L 174.640535 96.262528 
L 174.977018 96.941326 
L 175.3135 96.299919 
L 175.649983 96.330215 
L 175.986465 95.55109 
L 176.322948 91.060545 
L 176.65943 93.684365 
L 176.995912 101.723194 
L 177.332395 101.796314 
L 178.00536 108.292115 
L 178.341842 107.207968 
L 179.014807 90.603524 
L 179.351289 100.331516 
L 179.687772 98.242433 
L 180.024254 102.430939 
L 180.360736 108.620548 
L 180.697219 105.259368 
L 181.033701 99.570442 
L 181.370184 101.616903 
L 181.706666 108.749935 
L 182.043149 110.185174 
L 182.379631 108.451409 
L 182.716113 99.461817 
L 183.052596 93.59554 
L 183.389078 93.956771 
L 184.062043 104.071596 
L 184.398525 104.854459 
L 184.735008 109.169244 
L 185.07149 107.718705 
L 185.407973 109.687611 
L 185.744455 117.876835 
L 186.080938 121.475448 
L 186.41742 120.860934 
L 186.753902 117.952484 
L 187.090385 116.822615 
L 187.76335 106.696064 
L 188.099832 106.242122 
L 188.436314 115.861079 
L 188.772797 118.715818 
L 189.109279 117.077152 
L 189.445762 111.913958 
L 189.782244 121.065593 
L 190.118726 125.385682 
L 190.455209 123.865905 
L 190.791691 116.220635 
L 191.128174 112.951282 
L 191.464656 115.232597 
L 192.137621 118.13308 
L 192.474103 118.545111 
L 192.810586 120.948499 
L 193.147068 126.095422 
L 193.820033 115.004723 
L 194.156515 117.863677 
L 194.492998 114.162561 
L 194.82948 114.68143 
L 195.165963 118.392005 
L 195.502445 117.271647 
L 195.838927 116.836272 
L 196.17541 123.31911 
L 196.511892 125.265371 
L 196.848375 130.969332 
L 197.184857 130.208984 
L 197.52134 131.353516 
L 197.857822 136.06555 
L 198.194304 131.624605 
L 198.530787 130.799808 
L 198.867269 123.61617 
L 199.203752 120.109296 
L 199.540234 118.994113 
L 199.876716 116.260015 
L 200.213199 117.387848 
L 200.549681 112.712539 
L 200.886164 115.963895 
L 201.222646 111.022831 
L 202.568576 129.523495 
L 203.241541 118.988191 
L 203.578023 123.056791 
L 204.58747 113.347338 
L 204.923953 113.042824 
L 205.260435 111.874097 
L 205.596917 114.517989 
L 205.9334 118.767185 
L 206.269882 114.804646 
L 206.606365 119.025851 
L 206.942847 119.941192 
L 207.279329 119.742671 
L 207.615812 124.727598 
L 207.952294 126.962828 
L 208.288777 131.97323 
L 208.625259 129.018248 
L 208.961742 131.540533 
L 209.298224 131.764559 
L 209.634706 132.671805 
L 209.971189 135.584129 
L 210.307671 136.975697 
L 210.644154 137.828775 
L 211.317118 120.446183 
L 211.653601 119.081207 
L 211.990083 120.029265 
L 212.326566 124.718487 
L 212.663048 122.386467 
L 212.99953 116.208098 
L 213.336013 119.206444 
L 213.672495 117.095397 
L 214.008978 119.261454 
L 214.34546 125.974095 
L 214.681943 121.143134 
L 215.018425 125.019613 
L 215.354907 126.990751 
L 215.69139 123.739193 
L 216.364355 129.673831 
L 216.700837 130.074069 
L 217.037319 132.635028 
L 217.373802 132.434763 
L 218.046767 127.176455 
L 218.383249 121.373047 
L 218.719731 122.264358 
L 219.056214 124.60119 
L 219.392696 120.897215 
L 219.729179 126.283573 
L 220.402144 119.962781 
L 220.738626 120.118753 
L 221.075108 121.09816 
L 221.748073 134.323166 
L 222.421038 125.863288 
L 222.75752 126.127774 
L 223.094003 127.35577 
L 223.430485 132.447301 
L 223.766968 129.220961 
L 224.10345 128.146788 
L 224.439932 133.686885 
L 224.776415 132.576347 
L 225.112897 134.395913 
L 225.44938 135.570499 
L 225.785862 129.785898 
L 226.122345 126.966673 
L 226.795309 116.330639 
L 227.131792 115.753624 
L 227.804757 125.037631 
L 228.141239 125.311819 
L 228.477721 124.811378 
L 229.150686 120.234008 
L 229.487169 124.669113 
L 229.823651 117.547196 
L 230.496616 113.988392 
L 230.833098 108.202722 
L 231.506063 114.778535 
L 231.842546 117.86339 
L 232.179028 113.867827 
L 232.51551 116.316024 
L 232.851993 120.805578 
L 233.188475 120.225291 
L 233.524958 121.487144 
L 233.86144 121.732932 
L 234.197922 121.222007 
L 234.534405 122.516146 
L 234.870887 123.069567 
L 235.20737 121.052972 
L 235.543852 115.759752 
L 235.880334 113.259408 
L 236.216817 105.490176 
L 236.553299 102.512164 
L 236.889782 107.786327 
L 237.226264 109.981396 
L 237.562747 116.773671 
L 237.899229 120.283549 
L 238.235711 113.265366 
L 238.572194 116.292006 
L 238.908676 117.450881 
L 239.245159 119.57212 
L 239.581641 107.726586 
L 239.918123 109.439211 
L 240.254606 113.789978 
L 240.591088 121.043843 
L 241.264053 113.752793 
L 241.937018 101.836118 
L 242.2735 99.203065 
L 242.609983 102.375945 
L 242.946465 108.030046 
L 243.282948 105.670492 
L 243.61943 104.983845 
L 243.955912 102.972423 
L 244.292395 103.599293 
L 244.628877 105.511266 
L 244.96536 102.114416 
L 245.301842 101.251252 
L 245.638324 105.984973 
L 245.974807 104.966567 
L 246.311289 111.56456 
L 246.647772 114.219231 
L 247.320736 103.632033 
L 247.993701 115.849329 
L 248.330184 121.771344 
L 249.003149 102.098148 
L 249.339631 99.998889 
L 249.676113 94.97237 
L 250.012596 99.179951 
L 250.349078 95.138005 
L 250.685561 86.025906 
L 251.022043 85.733758 
L 251.358525 83.317515 
L 252.367973 99.68624 
L 252.704455 98.152641 
L 253.040938 98.947229 
L 253.713902 98.340073 
L 254.050385 101.402776 
L 255.059832 88.749222 
L 255.396314 88.998391 
L 255.732797 93.763629 
L 256.069279 93.483596 
L 256.405762 87.521922 
L 256.742244 79.427383 
L 257.078726 78.433677 
L 257.415209 78.500469 
L 257.751691 78.036987 
L 258.088174 78.568748 
L 258.424656 82.00292 
L 258.761139 80.043521 
L 259.097621 79.44821 
L 259.770586 82.30995 
L 260.107068 84.203156 
L 260.443551 88.772127 
L 260.780033 86.864708 
L 261.116515 87.996638 
L 261.78948 92.229439 
L 262.125963 90.505111 
L 262.462445 78.58674 
L 263.13541 79.320206 
L 263.471892 77.019396 
L 263.808375 77.137401 
L 264.144857 77.627059 
L 264.48134 78.63 
L 265.154304 78.481791 
L 265.490787 79.06009 
L 265.827269 77.959979 
L 266.163752 77.324224 
L 266.500234 77.526023 
L 266.836716 76.493157 
L 267.173199 78.156704 
L 267.509681 76.71587 
L 267.846164 76.85809 
L 268.855611 78.923002 
L 269.192093 78.335144 
L 269.528576 76.367154 
L 270.201541 77.128053 
L 270.538023 74.550868 
L 270.874505 76.591105 
L 271.210988 77.025859 
L 271.54747 77.977591 
L 271.883953 76.954422 
L 272.220435 77.693931 
L 272.556917 76.909862 
L 272.8934 77.189621 
L 273.229882 76.419446 
L 273.566365 77.234867 
L 273.902847 62.948827 
L 274.239329 58.629017 
L 274.575812 57.389178 
L 274.912294 76.743444 
L 275.248777 76.22232 
L 275.585259 63.191183 
L 275.921742 59.875851 
L 276.258224 60.1946 
L 276.594706 74.428621 
L 276.931189 57.797225 
L 277.267671 60.544788 
L 277.604154 56.886823 
L 277.940636 55.500251 
L 278.277118 55.85894 
L 278.613601 56.386817 
L 278.950083 61.657007 
L 279.286566 76.19756 
L 279.623048 61.726105 
L 279.95953 56.23456 
L 280.296013 52.75274 
L 280.632495 50.536353 
L 280.968978 43.646529 
L 281.30546 42.653804 
L 281.978425 46.675055 
L 282.314907 49.841063 
L 282.65139 49.629459 
L 282.987872 53.719912 
L 283.324355 50.113551 
L 283.660837 50.114569 
L 283.997319 50.824406 
L 284.333802 37.126191 
L 284.670284 48.112611 
L 285.006767 40.528464 
L 285.679731 34.953179 
L 286.016214 40.200747 
L 286.352696 31.573798 
L 286.689179 38.22672 
L 287.025661 37.740117 
L 287.362144 32.120864 
L 287.698626 41.216233 
L 288.035108 32.453838 
L 288.371591 45.140297 
L 288.708073 39.419625 
L 289.044556 42.571493 
L 289.381038 31.861697 
L 289.71752 38.508144 
L 290.054003 26.573253 
L 290.390485 31.33904 
L 290.726968 29.719246 
L 291.06345 33.953257 
L 291.399932 42.918353 
L 291.736415 37.797282 
L 292.072897 37.027647 
L 292.40938 37.638946 
L 292.745862 31.925023 
L 293.082345 28.193794 
L 293.418827 44.304781 
L 293.755309 34.847831 
L 294.091792 37.867856 
L 294.428274 31.282073 
L 294.764757 31.576446 
L 295.101239 30.317438 
L 295.437721 27.518983 
L 295.774204 31.985865 
L 296.110686 28.330873 
L 296.447169 32.470638 
L 296.783651 34.388841 
L 297.120133 38.448364 
L 297.456616 24.613378 
L 297.793098 24.732442 
L 298.129581 23.41406 
L 298.466063 23.216297 
L 298.802546 24.293921 
L 299.139028 24.507857 
L 299.47551 22.364192 
L 299.811993 21.615139 
L 300.148475 22.659688 
L 300.484958 23.287659 
L 300.82144 24.449203 
L 301.157922 28.138521 
L 301.494405 24.74883 
L 301.830887 23.669729 
L 302.16737 27.176311 
L 302.503852 23.339021 
L 302.840334 28.982468 
L 303.176817 23.300913 
L 303.513299 30.765109 
L 303.849782 26.052728 
L 304.186264 23.055137 
L 304.522747 21.694035 
L 304.859229 21.045079 
L 305.195711 22.352425 
L 305.532194 22.711665 
L 305.868676 25.470268 
L 306.541641 22.782221 
L 306.878123 21.487549 
L 307.214606 20.915716 
L 307.551088 22.313845 
L 307.887571 21.779559 
L 308.224053 21.80544 
L 308.560535 20.621916 
L 308.897018 21.552082 
L 309.2335 20.87165 
L 309.569983 20.87802 
L 309.906465 21.747134 
L 310.242948 21.036607 
L 310.57943 22.242173 
L 310.915912 21.744478 
L 311.252395 19.48908 
L 311.588877 21.701492 
L 311.92536 20.486488 
L 312.261842 21.428737 
L 312.598324 20.183953 
L 312.934807 20.930899 
L 313.271289 20.48647 
L 313.607772 19.363872 
L 313.944254 18.971504 
L 314.617219 22.566821 
L 314.953701 21.363082 
L 315.290184 22.58112 
L 315.963149 20.17821 
L 316.299631 19.338839 
L 316.636113 20.106209 
L 316.972596 21.296121 
L 317.309078 20.914934 
L 317.982043 21.165606 
L 318.318525 24.429415 
L 318.655008 22.338837 
L 318.99149 22.435948 
L 319.664455 21.462648 
L 320.673902 24.173248 
L 321.010385 23.564492 
L 321.346867 25.029308 
L 321.68335 25.589147 
L 322.019832 23.858752 
L 322.356314 22.835338 
L 322.692797 20.864426 
L 323.029279 22.579699 
L 323.365762 20.271506 
L 323.702244 23.685371 
L 324.375209 20.705201 
L 324.711691 22.559914 
L 325.048174 21.155217 
L 325.384656 20.791452 
L 325.721139 24.102889 
L 326.057621 22.124076 
L 326.394103 26.365105 
L 326.730586 23.983595 
L 327.067068 22.706333 
L 327.740033 24.647895 
L 328.076515 24.717102 
L 328.412998 24.434695 
L 328.74948 26.152347 
L 329.085963 24.055563 
L 329.422445 22.922371 
L 329.758927 23.657299 
L 330.09541 21.88119 
L 330.431892 24.94208 
L 331.104857 23.81053 
L 331.44134 25.560627 
L 331.777822 23.452831 
L 332.114304 23.404048 
L 332.450787 20.782407 
L 332.787269 22.293182 
L 333.123752 21.27101 
L 333.460234 22.311147 
L 333.796716 22.187026 
L 334.133199 20.104149 
L 334.469681 22.165193 
L 334.806164 21.809589 
L 335.142646 20.893358 
L 335.815611 20.823548 
L 336.152093 21.442845 
L 336.488576 22.516641 
L 336.825058 21.809971 
L 337.161541 22.048374 
L 337.498023 20.157463 
L 338.170988 23.418681 
L 338.50747 22.724417 
L 338.843953 24.625118 
L 339.180435 24.769096 
L 339.516917 26.480506 
L 339.8534 24.162331 
L 340.189882 23.487834 
L 340.526365 22.543818 
L 340.862847 25.11473 
L 341.199329 23.836877 
L 341.535812 35.853637 
L 341.872294 28.618452 
L 342.208777 25.797857 
L 342.545259 27.675463 
L 343.218224 22.514588 
L 343.554706 22.339648 
L 343.891189 22.539872 
L 344.227671 25.35315 
L 344.564154 22.578744 
L 344.900636 20.846671 
L 345.237118 22.976032 
L 345.573601 28.436462 
L 345.910083 30.092042 
L 346.246566 40.841101 
L 346.583048 25.985569 
L 346.91953 42.538442 
L 347.256013 40.784279 
L 347.592495 28.533824 
L 347.928978 25.892365 
L 348.26546 24.201547 
L 348.601943 24.77338 
L 348.938425 33.983049 
L 349.274907 34.886587 
L 349.61139 31.636256 
L 349.947872 24.761565 
L 350.284355 29.032764 
L 350.620837 26.833038 
L 350.957319 29.309152 
L 351.293802 27.438102 
L 351.630284 28.399041 
L 351.966767 30.267775 
L 352.303249 41.998967 
L 352.639731 45.87307 
L 352.976214 38.256218 
L 353.312696 51.736151 
L 353.649179 51.099786 
L 353.985661 49.448421 
L 354.322144 43.731165 
L 354.658626 47.381394 
L 354.995108 44.07039 
L 355.331591 47.532082 
L 355.668073 52.639683 
L 356.004556 44.621647 
L 356.341038 43.577985 
L 356.67752 37.721717 
L 357.014003 46.630711 
L 357.686968 42.019576 
L 358.02345 42.074789 
L 358.359932 49.215578 
L 358.696415 36.076729 
L 359.032897 37.612737 
L 359.36938 45.353867 
L 359.705862 48.429976 
L 360.042345 48.914382 
L 360.378827 37.03685 
L 360.715309 48.226773 
L 361.051792 48.735827 
L 361.388274 54.456057 
L 361.724757 53.337983 
L 362.061239 52.997759 
L 362.397721 34.856232 
L 362.734204 39.294093 
L 363.070686 51.240642 
L 363.407169 50.11612 
L 363.743651 47.585805 
L 364.080133 42.363195 
L 364.416616 44.279816 
L 364.753098 48.373002 
L 365.089581 55.778578 
L 365.426063 57.143817 
L 365.762546 52.023235 
L 366.099028 62.767786 
L 366.43551 54.883581 
L 366.771993 55.689583 
L 367.108475 48.346619 
L 367.444958 55.362442 
L 367.78144 74.05106 
L 368.117922 77.742939 
L 368.454405 77.140024 
L 368.790887 64.032779 
L 369.12737 68.11653 
L 369.463852 73.894895 
L 369.800334 77.344002 
L 370.136817 77.605229 
L 370.473299 74.930453 
L 370.809782 78.37582 
L 370.809782 78.37582 
" clip-path="url(#p48090c1046)" style="fill: none; stroke-dasharray: 9.6,2.4,1.5,2.4; stroke-dashoffset: 0; stroke: #008000; stroke-width: 1.5"/>
   </g>
   <g id="line2d_26">
    <path d="M 73.359329 78.256809 
L 75.378224 78.242827 
L 75.714706 48.820431 
L 76.051189 54.647892 
L 76.387671 22.187062 
L 76.724154 27.937937 
L 77.060636 75.739546 
L 77.397118 78.266412 
L 78.070083 78.261863 
L 78.406566 59.619316 
L 78.743048 65.421682 
L 79.07953 46.701971 
L 79.416013 36.059451 
L 79.752495 51.464802 
L 80.088978 24.99743 
L 80.42546 21.825667 
L 81.098425 21.352438 
L 81.434907 23.313408 
L 81.77139 78.253706 
L 84.799731 78.258527 
L 85.136214 65.291757 
L 85.472696 47.312187 
L 85.809179 47.815721 
L 86.482144 24.935958 
L 86.818626 24.679149 
L 87.155108 23.357021 
L 87.491591 52.730032 
L 87.828073 63.660396 
L 88.501038 24.88719 
L 88.83752 21.058888 
L 89.174003 21.123862 
L 89.510485 20.712341 
L 89.846968 22.172542 
L 90.519932 20.933478 
L 90.856415 20.86562 
L 91.192897 20.591384 
L 91.52938 38.088512 
L 91.865862 21.044948 
L 92.202345 26.571886 
L 92.538827 20.837351 
L 92.875309 20.816258 
L 93.211792 20.479914 
L 93.548274 20.419872 
L 94.894204 20.659087 
L 95.903651 20.600638 
L 96.240133 20.978195 
L 96.576616 21.08859 
L 96.913098 20.868605 
L 97.249581 20.406469 
L 99.604958 20.502536 
L 99.94144 20.737828 
L 100.277922 20.475652 
L 100.950887 20.380666 
L 105.998123 20.452917 
L 107.007571 20.37583 
L 108.017018 20.421132 
L 108.689983 20.490494 
L 109.026465 20.686394 
L 109.362948 21.050554 
L 109.69943 20.515915 
L 110.372395 20.404463 
L 114.073701 20.504613 
L 114.410184 20.780097 
L 114.746666 20.53142 
L 115.756113 20.393794 
L 118.447973 20.414857 
L 119.120937 20.483276 
L 120.80335 20.400576 
L 131.907269 20.371155 
L 132.580234 20.387496 
L 134.599128 20.405967 
L 135.945058 20.347925 
L 138.9734 20.349047 
L 144.020636 20.409902 
L 148.058425 20.447675 
L 149.067872 20.417406 
L 149.404355 20.524178 
L 150.077319 20.488237 
L 150.413802 20.533969 
L 150.750284 20.821244 
L 151.086767 20.512028 
L 152.432696 20.513252 
L 153.105661 21.12554 
L 153.442144 24.354808 
L 153.778626 20.536309 
L 154.451591 20.770539 
L 154.788073 21.1768 
L 155.124556 26.044358 
L 155.461038 21.830706 
L 156.134003 21.377065 
L 156.470485 21.283332 
L 156.806968 23.285038 
L 157.14345 21.561592 
L 157.479932 23.899546 
L 158.152897 20.564721 
L 158.48938 20.852874 
L 158.825862 20.70886 
L 159.162345 20.870719 
L 159.498827 22.831988 
L 159.835309 22.498988 
L 160.171792 20.889997 
L 160.508274 20.633433 
L 161.181239 20.57785 
L 161.517721 21.045652 
L 161.854204 21.719176 
L 162.190686 21.079885 
L 162.863651 20.552871 
L 163.200133 21.294061 
L 163.536616 20.975729 
L 163.873098 29.896257 
L 164.209581 21.226102 
L 164.546063 20.853011 
L 164.882546 23.829725 
L 165.219028 28.39128 
L 165.55551 51.187145 
L 165.891993 27.86731 
L 166.228475 27.652095 
L 166.564958 38.019559 
L 166.90144 24.116176 
L 167.237922 22.864902 
L 167.574405 22.113019 
L 167.910887 22.097676 
L 168.24737 21.594679 
L 168.583852 21.61733 
L 168.920334 21.399095 
L 169.256817 21.786221 
L 169.929782 37.711039 
L 170.266264 31.839956 
L 170.602747 46.002008 
L 170.939229 78.255835 
L 175.649983 78.264324 
L 175.986465 52.419649 
L 176.322948 58.899587 
L 176.65943 78.264476 
L 178.00536 78.258123 
L 178.341842 63.611304 
L 178.678324 78.1919 
L 179.351289 78.267184 
L 183.389078 78.2712 
L 183.725561 83.399334 
L 184.062043 92.756074 
L 184.398525 92.564181 
L 184.735008 89.791815 
L 185.07149 79.498264 
L 185.407973 78.27508 
L 186.080938 78.310123 
L 186.41742 79.579134 
L 186.753902 86.753524 
L 187.090385 83.402441 
L 187.426867 78.392376 
L 187.76335 78.287392 
L 188.099832 78.35323 
L 188.772797 78.268029 
L 189.109279 78.269194 
L 189.445762 81.029085 
L 189.782244 91.971289 
L 190.118726 87.935182 
L 190.455209 95.479471 
L 190.791691 94.525165 
L 191.128174 95.348822 
L 191.464656 94.571823 
L 191.801139 94.407155 
L 192.137621 93.292265 
L 192.474103 85.848668 
L 192.810586 90.056658 
L 193.147068 103.309767 
L 193.483551 103.522444 
L 194.156515 114.242855 
L 194.492998 112.3971 
L 195.165963 85.146527 
L 195.502445 100.81833 
L 195.838927 97.844047 
L 196.17541 104.219843 
L 196.511892 114.872286 
L 196.848375 109.180993 
L 197.184857 99.934389 
L 197.52134 103.105138 
L 197.857822 114.938934 
L 198.194304 117.257309 
L 198.530787 114.508735 
L 199.203752 90.002356 
L 199.540234 90.592147 
L 200.213199 107.212064 
L 200.549681 108.516798 
L 200.886164 115.555057 
L 201.222646 113.360929 
L 201.559128 116.351583 
L 201.895611 129.918043 
L 202.232093 135.876485 
L 202.568576 134.903537 
L 202.905058 130.182028 
L 203.241541 128.25221 
L 203.914505 111.572664 
L 204.250988 110.859594 
L 204.58747 126.434882 
L 204.923953 131.453123 
L 205.260435 128.597157 
L 205.596917 120.356033 
L 205.9334 134.923221 
L 206.269882 142.495627 
L 206.606365 139.721369 
L 206.942847 127.537676 
L 207.279329 121.785219 
L 207.615812 125.670677 
L 208.288777 130.41332 
L 208.625259 131.083739 
L 208.961742 134.996063 
L 209.298224 143.440258 
L 209.971189 125.238039 
L 210.307671 129.957297 
L 210.644154 123.977983 
L 210.980636 124.59276 
L 211.317118 130.871665 
L 211.653601 128.996475 
L 211.990083 128.249947 
L 212.326566 138.834852 
L 212.663048 142.211146 
L 212.99953 151.343647 
L 213.336013 150.476109 
L 213.672495 152.02769 
L 214.008978 159.970465 
L 214.34546 152.713322 
L 214.681943 151.217699 
L 215.018425 139.685775 
L 215.354907 133.57237 
L 215.69139 131.942865 
L 216.027872 127.308856 
L 216.364355 129.164536 
L 216.700837 121.611503 
L 217.037319 126.660753 
L 217.373802 118.958829 
L 218.046767 136.238519 
L 218.383249 144.097083 
L 218.719731 149.255176 
L 219.392696 131.908059 
L 219.729179 138.389653 
L 220.402144 129.736089 
L 220.738626 122.740806 
L 221.075108 121.89485 
L 221.411591 120.226181 
L 221.748073 124.288046 
L 222.084556 131.488341 
L 222.421038 124.979594 
L 222.75752 131.728409 
L 223.094003 133.509844 
L 223.430485 132.952566 
L 223.766968 141.230359 
L 224.10345 144.948167 
L 224.439932 153.075445 
L 224.776415 148.497777 
L 225.112897 152.316076 
L 225.44938 153.017265 
L 225.785862 154.208938 
L 226.122345 159.198343 
L 226.795309 162.867273 
L 227.468274 134.269202 
L 227.804757 132.017815 
L 228.141239 133.495426 
L 228.477721 141.153928 
L 228.814204 137.53993 
L 229.150686 127.283733 
L 229.487169 132.098939 
L 229.823651 128.831386 
L 230.160133 132.08898 
L 230.496616 143.31557 
L 230.833098 135.485352 
L 231.169581 141.546392 
L 231.506063 145.145059 
L 231.842546 139.596795 
L 232.51551 149.433757 
L 232.851993 150.044283 
L 233.188475 154.248598 
L 233.524958 154.024691 
L 234.197922 145.341061 
L 234.534405 135.875798 
L 234.870887 137.10814 
L 235.20737 141.107026 
L 235.543852 135.001502 
L 235.880334 143.674332 
L 236.216817 139.560329 
L 236.553299 133.322845 
L 236.889782 133.767178 
L 237.226264 135.233964 
L 237.899229 157.026832 
L 238.572194 143.119246 
L 238.908676 143.635795 
L 239.245159 145.538998 
L 239.581641 153.895806 
L 239.918123 148.816097 
L 240.254606 146.817848 
L 240.591088 155.993364 
L 240.927571 154.255142 
L 241.600535 159.213692 
L 241.937018 149.683133 
L 242.2735 144.95917 
L 242.946465 127.423096 
L 243.282948 126.530358 
L 243.955912 141.764896 
L 244.292395 142.215355 
L 244.628877 141.431579 
L 245.301842 133.871537 
L 245.638324 141.080489 
L 245.974807 129.683151 
L 246.647772 123.789993 
L 246.984254 114.033694 
L 247.657219 124.905474 
L 247.993701 129.853786 
L 248.330184 123.539423 
L 248.666666 127.251076 
L 249.003149 134.859363 
L 249.339631 133.806784 
L 249.676113 135.91913 
L 250.012596 136.370867 
L 250.349078 135.485711 
L 250.685561 137.598295 
L 251.022043 138.559941 
L 251.358525 135.250562 
L 251.695008 126.596233 
L 252.03149 122.383834 
L 252.367973 109.784059 
L 252.704455 104.596954 
L 253.040938 113.332093 
L 253.37742 116.955562 
L 253.713902 127.992613 
L 254.050385 134.003055 
L 254.386867 122.500331 
L 254.72335 127.220927 
L 255.059832 129.417727 
L 255.396314 132.606276 
L 255.732797 113.648368 
L 256.069279 115.785833 
L 256.405762 123.461512 
L 256.742244 134.846468 
L 257.415209 123.04546 
L 258.424656 99.338511 
L 258.761139 104.32188 
L 259.097621 113.732252 
L 259.434103 109.927353 
L 259.770586 108.715842 
L 260.107068 105.539469 
L 260.443551 106.376099 
L 260.780033 109.635258 
L 261.116515 104.084032 
L 261.452998 102.571496 
L 261.78948 110.329818 
L 262.125963 108.789657 
L 262.462445 119.355473 
L 262.798927 124.089513 
L 263.471892 106.658464 
L 264.144857 126.735662 
L 264.48134 136.137843 
L 265.154304 103.940263 
L 265.490787 100.688708 
L 265.827269 92.282497 
L 266.163752 99.049905 
L 266.500234 92.741593 
L 266.836716 78.493211 
L 267.509681 78.29208 
L 267.846164 82.346153 
L 268.182646 93.025313 
L 268.519128 99.823537 
L 268.855611 97.663164 
L 269.192093 98.657151 
L 269.528576 98.480908 
L 269.865058 97.703702 
L 270.201541 102.850825 
L 271.210988 81.540337 
L 271.54747 81.954059 
L 271.883953 90.196558 
L 272.220435 89.845354 
L 272.556917 79.209627 
L 272.8934 78.271134 
L 276.258224 78.310472 
L 276.594706 81.330715 
L 276.931189 78.731599 
L 277.267671 79.560258 
L 277.940636 87.645479 
L 278.277118 84.987357 
L 278.613601 78.26972 
L 289.71752 78.264102 
L 290.390485 50.658948 
L 290.726968 47.179224 
L 291.06345 78.26282 
L 291.399932 78.262121 
L 291.736415 63.458924 
L 292.072897 54.163649 
L 292.40938 55.041859 
L 292.745862 78.256775 
L 293.082345 48.360127 
L 293.418827 56.02514 
L 293.755309 45.785134 
L 294.091792 41.901235 
L 294.428274 42.898413 
L 294.764757 44.375599 
L 295.437721 78.261667 
L 296.110686 43.966968 
L 296.447169 34.196159 
L 297.120133 21.845064 
L 297.456616 21.58887 
L 297.793098 22.092058 
L 298.129581 23.164356 
L 298.466063 26.651863 
L 298.802546 26.290946 
L 299.139028 36.893454 
L 299.47551 27.181627 
L 299.811993 27.178863 
L 300.148475 28.78546 
L 300.484958 20.857638 
L 300.82144 24.311566 
L 301.157922 21.205917 
L 301.494405 20.866199 
L 301.830887 20.72541 
L 302.16737 21.159235 
L 302.503852 20.597014 
L 302.840334 20.944809 
L 303.176817 20.903316 
L 303.513299 20.613462 
L 303.849782 21.309004 
L 304.186264 20.624006 
L 304.522747 22.359231 
L 304.859229 21.065222 
L 305.195711 21.570744 
L 305.532194 20.605337 
L 305.868676 20.969848 
L 306.205159 20.484732 
L 306.541641 20.589868 
L 306.878123 20.549623 
L 307.214606 20.679636 
L 307.551088 21.649008 
L 307.887571 20.908809 
L 308.560535 20.895185 
L 308.897018 20.60714 
L 309.2335 20.519061 
L 309.569983 22.041729 
L 309.906465 20.720848 
L 310.242948 20.914015 
L 310.57943 20.588489 
L 312.934807 20.698442 
L 313.271289 20.9646 
L 313.607772 20.443687 
L 320.673902 20.38217 
L 321.68335 20.403657 
L 322.356314 20.436798 
L 324.038726 20.384146 
L 357.350485 20.427293 
L 357.686968 20.772891 
L 358.02345 20.527605 
L 359.36938 20.399526 
L 361.388274 20.408976 
L 362.061239 20.558471 
L 362.397721 21.250616 
L 362.734204 20.472523 
L 363.070686 21.558279 
L 363.407169 21.242389 
L 363.743651 20.526297 
L 364.753098 20.44681 
L 365.089581 20.680633 
L 365.426063 20.722234 
L 366.099028 20.446589 
L 366.43551 20.535026 
L 367.444958 20.502637 
L 368.117922 20.562297 
L 368.454405 21.448295 
L 368.790887 22.704691 
L 369.12737 20.949126 
L 369.463852 31.306527 
L 369.800334 29.55937 
L 370.473299 21.870461 
L 370.809782 23.664678 
L 371.146264 21.971537 
L 371.482747 23.797629 
L 371.819229 33.861895 
L 372.155711 22.164978 
L 372.492194 21.823517 
L 372.828676 20.902343 
L 373.165159 23.130708 
L 373.838123 21.456779 
L 374.174606 21.465824 
L 374.511088 25.631518 
L 374.847571 20.78787 
L 375.184053 20.893567 
L 375.520535 22.449686 
L 375.857018 24.65679 
L 376.1935 25.249887 
L 376.529983 20.851214 
L 376.866465 24.42357 
L 377.202948 25.011576 
L 377.53943 38.973405 
L 377.875912 35.84709 
L 378.212395 34.880494 
L 378.548877 20.721828 
L 378.88536 21.050291 
L 379.221842 29.908416 
L 380.231289 21.525442 
L 380.567772 22.037806 
L 380.904254 24.58819 
L 381.240736 42.661163 
L 381.577219 46.505972 
L 381.913701 32.176109 
L 382.250184 62.241448 
L 382.586666 40.189634 
L 382.923149 42.423796 
L 383.259631 24.57384 
L 383.596113 41.483672 
L 383.932596 78.255685 
L 384.605561 78.264856 
L 384.942043 76.098341 
L 385.278525 78.237196 
L 386.960938 78.266591 
L 386.960938 78.266591 
" clip-path="url(#p48090c1046)" style="fill: none; stroke-dasharray: 1.5,2.475; stroke-dashoffset: 0; stroke: #ff0000; stroke-width: 1.5"/>
   </g>
   <g id="patch_3">
    <path d="M 52.160938 170.28 
L 52.160938 7.2 
" style="fill: none; stroke: #000000; stroke-width: 0.8; stroke-linejoin: miter; stroke-linecap: square"/>
   </g>
   <g id="patch_4">
    <path d="M 386.960938 170.28 
L 386.960938 7.2 
" style="fill: none; stroke: #000000; stroke-width: 0.8; stroke-linejoin: miter; stroke-linecap: square"/>
   </g>
   <g id="patch_5">
    <path d="M 52.160938 170.28 
L 386.960938 170.28 
" style="fill: none; stroke: #000000; stroke-width: 0.8; stroke-linejoin: miter; stroke-linecap: square"/>
   </g>
   <g id="patch_6">
    <path d="M 52.160938 7.2 
L 386.960938 7.2 
" style="fill: none; stroke: #000000; stroke-width: 0.8; stroke-linejoin: miter; stroke-linecap: square"/>
   </g>
   <g id="legend_1">
    <g id="patch_7">
     <path d="M 59.160938 165.28 
L 160.248438 165.28 
Q 162.248438 165.28 162.248438 163.28 
L 162.248438 105.5675 
Q 162.248438 103.5675 160.248438 103.5675 
L 59.160938 103.5675 
Q 57.160938 103.5675 57.160938 105.5675 
L 57.160938 163.28 
Q 57.160938 165.28 59.160938 165.28 
z
" style="fill: #ffffff; opacity: 0.8; stroke: #cccccc; stroke-linejoin: miter"/>
    </g>
    <g id="line2d_27">
     <path d="M 61.160938 111.665938 
L 71.160938 111.665938 
L 81.160938 111.665938 
" style="fill: none; stroke: #1f77b4; stroke-width: 1.5; stroke-linecap: square"/>
    </g>
    <g id="text_14">
     <!-- 1-step preds -->
     <g transform="translate(89.160938 115.165938)scale(0.1 -0.1)">
      <defs>
       <path id="DejaVuSans-2d" d="M 313 2009 
L 1997 2009 
L 1997 1497 
L 313 1497 
L 313 2009 
z
" transform="scale(0.015625)"/>
       <path id="DejaVuSans-73" d="M 2834 3397 
L 2834 2853 
Q 2591 2978 2328 3040 
Q 2066 3103 1784 3103 
Q 1356 3103 1142 2972 
Q 928 2841 928 2578 
Q 928 2378 1081 2264 
Q 1234 2150 1697 2047 
L 1894 2003 
Q 2506 1872 2764 1633 
Q 3022 1394 3022 966 
Q 3022 478 2636 193 
Q 2250 -91 1575 -91 
Q 1294 -91 989 -36 
Q 684 19 347 128 
L 347 722 
Q 666 556 975 473 
Q 1284 391 1588 391 
Q 1994 391 2212 530 
Q 2431 669 2431 922 
Q 2431 1156 2273 1281 
Q 2116 1406 1581 1522 
L 1381 1569 
Q 847 1681 609 1914 
Q 372 2147 372 2553 
Q 372 3047 722 3315 
Q 1072 3584 1716 3584 
Q 2034 3584 2315 3537 
Q 2597 3491 2834 3397 
z
" transform="scale(0.015625)"/>
       <path id="DejaVuSans-70" d="M 1159 525 
L 1159 -1331 
L 581 -1331 
L 581 3500 
L 1159 3500 
L 1159 2969 
Q 1341 3281 1617 3432 
Q 1894 3584 2278 3584 
Q 2916 3584 3314 3078 
Q 3713 2572 3713 1747 
Q 3713 922 3314 415 
Q 2916 -91 2278 -91 
Q 1894 -91 1617 61 
Q 1341 213 1159 525 
z
M 3116 1747 
Q 3116 2381 2855 2742 
Q 2594 3103 2138 3103 
Q 1681 3103 1420 2742 
Q 1159 2381 1159 1747 
Q 1159 1113 1420 752 
Q 1681 391 2138 391 
Q 2594 391 2855 752 
Q 3116 1113 3116 1747 
z
" transform="scale(0.015625)"/>
       <path id="DejaVuSans-20" transform="scale(0.015625)"/>
       <path id="DejaVuSans-72" d="M 2631 2963 
Q 2534 3019 2420 3045 
Q 2306 3072 2169 3072 
Q 1681 3072 1420 2755 
Q 1159 2438 1159 1844 
L 1159 0 
L 581 0 
L 581 3500 
L 1159 3500 
L 1159 2956 
Q 1341 3275 1631 3429 
Q 1922 3584 2338 3584 
Q 2397 3584 2469 3576 
Q 2541 3569 2628 3553 
L 2631 2963 
z
" transform="scale(0.015625)"/>
       <path id="DejaVuSans-64" d="M 2906 2969 
L 2906 4863 
L 3481 4863 
L 3481 0 
L 2906 0 
L 2906 525 
Q 2725 213 2448 61 
Q 2172 -91 1784 -91 
Q 1150 -91 751 415 
Q 353 922 353 1747 
Q 353 2572 751 3078 
Q 1150 3584 1784 3584 
Q 2172 3584 2448 3432 
Q 2725 3281 2906 2969 
z
M 947 1747 
Q 947 1113 1208 752 
Q 1469 391 1925 391 
Q 2381 391 2643 752 
Q 2906 1113 2906 1747 
Q 2906 2381 2643 2742 
Q 2381 3103 1925 3103 
Q 1469 3103 1208 2742 
Q 947 2381 947 1747 
z
" transform="scale(0.015625)"/>
      </defs>
      <use xlink:href="#DejaVuSans-31"/>
      <use xlink:href="#DejaVuSans-2d" x="63.623047"/>
      <use xlink:href="#DejaVuSans-73" x="99.707031"/>
      <use xlink:href="#DejaVuSans-74" x="151.806641"/>
      <use xlink:href="#DejaVuSans-65" x="191.015625"/>
      <use xlink:href="#DejaVuSans-70" x="252.539062"/>
      <use xlink:href="#DejaVuSans-20" x="316.015625"/>
      <use xlink:href="#DejaVuSans-70" x="347.802734"/>
      <use xlink:href="#DejaVuSans-72" x="411.279297"/>
      <use xlink:href="#DejaVuSans-65" x="450.142578"/>
      <use xlink:href="#DejaVuSans-64" x="511.666016"/>
      <use xlink:href="#DejaVuSans-73" x="575.142578"/>
     </g>
    </g>
    <g id="line2d_28">
     <path d="M 61.160938 126.344063 
L 71.160938 126.344063 
L 81.160938 126.344063 
" style="fill: none; stroke-dasharray: 5.55,2.4; stroke-dashoffset: 0; stroke: #bf00bf; stroke-width: 1.5"/>
    </g>
    <g id="text_15">
     <!-- 4-step preds -->
     <g transform="translate(89.160938 129.844063)scale(0.1 -0.1)">
      <use xlink:href="#DejaVuSans-34"/>
      <use xlink:href="#DejaVuSans-2d" x="63.623047"/>
      <use xlink:href="#DejaVuSans-73" x="99.707031"/>
      <use xlink:href="#DejaVuSans-74" x="151.806641"/>
      <use xlink:href="#DejaVuSans-65" x="191.015625"/>
      <use xlink:href="#DejaVuSans-70" x="252.539062"/>
      <use xlink:href="#DejaVuSans-20" x="316.015625"/>
      <use xlink:href="#DejaVuSans-70" x="347.802734"/>
      <use xlink:href="#DejaVuSans-72" x="411.279297"/>
      <use xlink:href="#DejaVuSans-65" x="450.142578"/>
      <use xlink:href="#DejaVuSans-64" x="511.666016"/>
      <use xlink:href="#DejaVuSans-73" x="575.142578"/>
     </g>
    </g>
    <g id="line2d_29">
     <path d="M 61.160938 141.022188 
L 71.160938 141.022188 
L 81.160938 141.022188 
" style="fill: none; stroke-dasharray: 9.6,2.4,1.5,2.4; stroke-dashoffset: 0; stroke: #008000; stroke-width: 1.5"/>
    </g>
    <g id="text_16">
     <!-- 16-step preds -->
     <g transform="translate(89.160938 144.522188)scale(0.1 -0.1)">
      <use xlink:href="#DejaVuSans-31"/>
      <use xlink:href="#DejaVuSans-36" x="63.623047"/>
      <use xlink:href="#DejaVuSans-2d" x="127.246094"/>
      <use xlink:href="#DejaVuSans-73" x="163.330078"/>
      <use xlink:href="#DejaVuSans-74" x="215.429688"/>
      <use xlink:href="#DejaVuSans-65" x="254.638672"/>
      <use xlink:href="#DejaVuSans-70" x="316.162109"/>
      <use xlink:href="#DejaVuSans-20" x="379.638672"/>
      <use xlink:href="#DejaVuSans-70" x="411.425781"/>
      <use xlink:href="#DejaVuSans-72" x="474.902344"/>
      <use xlink:href="#DejaVuSans-65" x="513.765625"/>
      <use xlink:href="#DejaVuSans-64" x="575.289062"/>
      <use xlink:href="#DejaVuSans-73" x="638.765625"/>
     </g>
    </g>
    <g id="line2d_30">
     <path d="M 61.160938 155.700313 
L 71.160938 155.700313 
L 81.160938 155.700313 
" style="fill: none; stroke-dasharray: 1.5,2.475; stroke-dashoffset: 0; stroke: #ff0000; stroke-width: 1.5"/>
    </g>
    <g id="text_17">
     <!-- 64-step preds -->
     <g transform="translate(89.160938 159.200313)scale(0.1 -0.1)">
      <use xlink:href="#DejaVuSans-36"/>
      <use xlink:href="#DejaVuSans-34" x="63.623047"/>
      <use xlink:href="#DejaVuSans-2d" x="127.246094"/>
      <use xlink:href="#DejaVuSans-73" x="163.330078"/>
      <use xlink:href="#DejaVuSans-74" x="215.429688"/>
      <use xlink:href="#DejaVuSans-65" x="254.638672"/>
      <use xlink:href="#DejaVuSans-70" x="316.162109"/>
      <use xlink:href="#DejaVuSans-20" x="379.638672"/>
      <use xlink:href="#DejaVuSans-70" x="411.425781"/>
      <use xlink:href="#DejaVuSans-72" x="474.902344"/>
      <use xlink:href="#DejaVuSans-65" x="513.765625"/>
      <use xlink:href="#DejaVuSans-64" x="575.289062"/>
      <use xlink:href="#DejaVuSans-73" x="638.765625"/>
     </g>
    </g>
   </g>
  </g>
 </g>
 <defs>
  <clipPath id="p48090c1046">
   <rect x="52.160938" y="7.2" width="334.8" height="163.08"/>
  </clipPath>
 </defs>
</svg>
